<?xml version="1.0" encoding="utf-8"?>
<svg xmlns="http://www.w3.org/2000/svg" xmlns:svg="http://www.w3.org/2000/svg" version="1.1" viewBox="0 0 274 196">
	<title>A schematic diagram showing a cross section of the petrol tank. The entire shape is square, but the actual tank is a trapezoid, leaving a small triangular space at the front, with a hinge on that side allowing access. Inside the triangular space is a large container, or pocket.</title>
	<path d="M80.42 194.44c-.5-.95-.16-1.67.98-2.14 1.42-.6.5-.86-2.4-.68-1.55.09-4.78.16-7.18.15-2.4 0-5.65 0-7.22.03-2.23.02-3-.06-3.5-.4-.94-.6-.8-1.11.47-1.76 1.1-.57 1.26-.57 9.2-.4 4.43.09 8.39.24 8.79.33.91.2 1.02-.44.13-.83-.7-.3-.77-.88-.14-1.28.54-.34 1.55-.03 4.38 1.35 1.4.68 1.96 1.1 2.08 1.56.19.75-.4 1.74-1.42 2.4-.4.26-1.12.92-1.61 1.47-1.13 1.24-1.98 1.3-2.56.2zm102-2.48c-.14-.13-37.32-.41-74.22-.56-9.9-.04-18.21-.09-18.49-.1-.27-.02-1.31-.9-2.32-1.93-1.42-1.48-1.85-2.12-1.98-2.92-.1-.57-.37-1.14-.62-1.27a9.65 9.65 0 0 1-1.62-1.78c-.64-.84-1.31-1.69-1.5-1.88-.18-.2-.32-.51-.32-.71 0-.2-.33-.74-.73-1.21-.4-.48-.97-1.31-1.26-1.87-.76-1.44-3.04-4.73-3.3-4.73-.1 0-.5-.7-.88-1.57a10.7 10.7 0 0 0-2.15-3.05 7.66 7.66 0 0 1-1.47-1.78c0-.16-.64-1.14-1.42-2.18a35.75 35.75 0 0 1-2.4-3.7c-.54-1-1.48-2.54-2.1-3.4-.6-.87-1.46-2.22-1.9-3-.44-.77-1.1-1.74-1.46-2.14-.87-.98-1.84-2.38-1.84-2.67 0-.13-.23-.45-.53-.72-.29-.26-.52-.61-.52-.78 0-.52-2.78-4.82-6.76-10.46a72.16 72.16 0 0 1-2.79-4.23 14.5 14.5 0 0 0-1.45-2.12 7.03 7.03 0 0 1-1.04-1.59c-.44-.97-1.8-3.19-3.9-6.31a39.61 39.61 0 0 1-1.69-2.74c-.24-.48-.7-1.23-1.03-1.66a15.2 15.2 0 0 1-1.17-2.05c-.33-.7-.7-1.26-.83-1.26s-.57-.69-1-1.52c-.41-.84-1.19-1.98-1.72-2.53a4.42 4.42 0 0 1-.97-1.28c0-.15-.4-.77-.88-1.37-.49-.61-1.2-1.7-1.6-2.43-.39-.73-.94-1.62-1.23-1.98-1-1.27-1.84-2.52-2.3-3.45-.26-.5-.77-1.33-1.13-1.83a62.5 62.5 0 0 1-1.85-2.82L23.2 91.8c-.91-1.45-2.4-3.67-3.3-4.93-1.87-2.58-1.76-2.4-2.73-4.36-.4-.8-.8-1.52-.9-1.6-.49-.33-2.12-2.97-3.03-4.89a14.74 14.74 0 0 0-2.01-3.17 27.82 27.82 0 0 1-3.85-5.89c-.38-.76-.8-1.39-.92-1.39-.13 0-.67-.67-1.2-1.5a17.59 17.59 0 0 0-1.3-1.85c-.2-.2-.69-1.02-1.09-1.83l-.72-1.49.95-.9c.52-.49 1.06-.9 1.2-.9.14 0 .4-.18.6-.41a6.05 6.05 0 0 1 2.84-1.44c.63 0 1.43.7 2 1.72.24.44.97 1.51 1.63 2.39a79.9 79.9 0 0 1 2.07 2.9c1.74 2.6 2.43 3.65 2.95 4.48l1.65 2.53c.62.92 1.13 1.9 1.13 2.16 0 .27.1.5.2.5.12 0 .43.38.7.85 1.31 2.3 2.39 3.7 3.03 3.94.69.27 1.95.1 7.18-.97.95-.2 2.5-.43 3.44-.53 1.56-.16 3-.45 5.9-1.2.98-.27 1-.29.82-1.25a7.53 7.53 0 0 0-1.65-3.58c-.44-.55-.74-1.18-.66-1.39.2-.54 1.08-.46 1.87.16.97.75 1.3.33 1.49-1.93l.26-2.84c.06-.5.19-2.6.29-4.63.1-2.04.31-4.36.47-5.16.15-.8.31-2.82.35-4.5.04-1.67.2-3.75.37-4.63.16-.87.36-2.54.43-3.7.18-2.76.3-3.22.8-3.41 1.14-.44 1.92 1.07 1.43 2.75-.15.5-.39 1.98-.54 3.27a14.42 14.42 0 0 1-.5 2.8c-.14.25-.32 2.47-.4 4.93a94.7 94.7 0 0 1-.3 5.4c-.07.51-.24 2.6-.38 4.63-.14 2.04-.38 4.58-.53 5.65-.2 1.44-.2 2.05.03 2.32.43.52.7.46 1.35-.3.7-.8 1.8-.9 1.8-.16 0 .28-.27.68-.6.9-.34.22-1.14 1.1-1.79 1.95-.65.85-1.3 1.63-1.44 1.74-.17.12-.16.29.03.48.31.31 4.39-.23 10.55-1.4 1.6-.3 4.04-.7 5.42-.88 3.23-.42 6.1-.88 6.65-1.05.39-.12.38-.3-.07-1.91-.27-.98-.66-3.1-.87-4.7-.2-1.6-.45-3.08-.53-3.3-.1-.23.17-.92.57-1.54.73-1.12.74-1.13 2.16-1.05 1.2.07 1.52.2 1.96.8.34.44.52 1.07.5 1.68-.02.53.1 1.2.25 1.5.2.39.2.7-.05 1.16-.28.52-.27.7.1 1.1.25.28.48 1.19.59 2.31.09 1.02.46 3.51.82 5.55.37 2.04.76 4.5.87 5.46.12.97.28 1.87.37 2 .29.47 1.53 8.42 1.65 10.53.07 1.17.23 2.42.37 2.78.23.6.82 3.73 1.6 8.6.57 3.48 1.37 7.4 1.74 8.56.27.8.36 2.16.32 4.5-.05 2.92 0 3.44.44 4.1.44.67.5 1.18.44 3.97-.08 3.63-.72 6.53-1.82 8.22-2.32 3.6-5.49 5.58-11.9 7.47-.91.27-1.66.58-1.66.7 0 .36 1.01 2.2 1.65 3 .35.41 1.14 1.62 1.77 2.68a12.63 12.63 0 0 0 1.45 2.11c.3.19 1.06 1.31 3.2 4.7.55.87 1.08 1.64 1.19 1.72.1.07.27.37.36.66.09.29.5.88.9 1.31 1.34 1.45 3.1 4.42 2.8 4.72-.08.08.12.3.43.5.9.54 4.24 5.78 4.24 6.64 0 .2.3.52.67.72.58.3 2.51 3.22 3.51 5.29.27.55 1.28 1.94 2.44 3.36.14.18.26.42.26.53 0 .12.48.75 1.06 1.4a6.85 6.85 0 0 1 1.06 1.39c0 .1.23.2.51.2.4 0 .55-.25.69-1.16.1-.63.08-7.33-.02-14.88-.25-17.5-.26-24.23-.05-30 .13-3.76.09-4.9-.25-6.04a4.51 4.51 0 0 1-.15-2.52c.13-.6.21-2.88.17-5.06.57-3.17 0-6.68.1-9.66.1-.62.32-23.44.46-45.11.06-10.77.18-20.54.26-21.7.18-2.76.18-2.97.01-6.07-.13-2.42-.09-2.7.45-3.51.33-.48.83-.95 1.12-1.05.81-.26 72.63-.27 87 0 6.95.13 13.04.16 13.53.07l.89-.17.1-3.11c.04-1.71.04-4.22 0-5.56-.12-3.06-.22-3.14-3.87-3.3-2.46-.12-2.68-.18-3.24-.83-.5-.58-.61-1.02-.61-2.4 0-1.5.08-1.77.71-2.36l.71-.65 20.61.05 20.61.05.62.72c1.11 1.29 1.19 4.4.13 4.97-.27.15-1.81.26-3.42.26-4.07 0-3.9-.22-3.97 5.44-.03 2.45-.1 4.55-.18 4.66-.07.12-.05.63.05 1.14.25 1.36 1.01 1.49 7.36 1.2 7.62-.33 41.31-.35 41.94-.02.27.15.58.48.69.74.1.26.45 7.93.3 17.04-.29 15.88.12 32.62.12 49.05 0 .72-.06 2.63-.13 4.23-.13 3.13-.38 19.15-.57 36.9-.06 6.05-.27 13.57-.23 16.73.09 6.15.02 12-.05 18.12-.02 9.31.1 12.66.54 13.97.1.31.01.76-.21 1.06-.44.6-1.15.63-7.58.4-1.96-.07-10.54-.03-19.05.09a23025.47 23025.47 0 0 1-33.2.44c-1.11.03-14.36.12-15.88.1l-7.04-.06c-3-.03-5.91.01-6.48.1-.57.1-1.1.1-1.17.03zm-58.26-7.31a7080 7080 0 0 0 36.7.04c37.48.03 58.33-.04 71.3-.23 7.64-.1 14.66-.18 15.6-.15 11.19.3 16.93.3 17.11 0 .11-.17.24-5.68.3-12.23.07-10.5.22-19.44.3-21.44.17-5.04-.03-13.98-.03-22.5 0-11.05.08-20.39.16-20.75.09-.37.23-8.82.31-18.79.09-9.97.07-20.27.2-22.89.27-5.24.04-10.23.1-15.47.04-4 0-7.86-.12-8.56-.18-1.17-.28-1.31-1.15-1.61-.74-.25-6.23-.32-23.76-.3l-22.8.02-.59-.62c-.5-.53-.67-.88-.52-2.51.32-3.45.23-6 .3-9.31.09-4.1.34-5.6-.11-6.07-.61-.6-2.16-.7-9.51-.62l-6.88.08-.13 3.22c-.13 3.05.16 6.27.21 9.45l.07 5.21-1.64 1.64-3.36-.21c-4.28-.28-16.79-.43-19.3-.23-1.55.12-1.91.23-1.91.59 0 .65-.98 3.2-1.41 3.7-.21.25-.47.74-.58 1.1-.1.36-.34.84-.53 1.06-.18.22-1.04 1.76-1.9 3.44a56.94 56.94 0 0 1-2.31 4.1c-.4.58-1.44 2.49-2.31 4.23a79.27 79.27 0 0 1-2.09 3.97c-.27.44-.66 1.18-.94 1.59-1.19 1.73-1.97 3.44-2.93 5.32-.26.5-.61.9-.61 1.01 0 .11-.22.52-.5.9-.26.39-1 1.66-1.63 2.82a3811.03 3811.03 0 0 1-3.48 6.48c-.19.37-.4.73-.48.8-.32.29-2.34 3.87-2.51 4.46-.1.34-.47 1.04-.82 1.56a3.69 3.69 0 0 0-.64 1.36c0 .23-.47 1.2-1.05 2.14-.59.95-1.07 1.84-1.07 1.99 0 .14-.36.73-.8 1.3a4.49 4.49 0 0 0-.78 1.34c0 .17-.21.53-.47.81-.25.29-1.25 2.06-2.22 3.96-2.22 4.35-2.59 5.02-3.53 6.48-.42.65-1.52 2.68-2.45 4.5a114.9 114.9 0 0 1-3.77 6.88 20.99 20.99 0 0 0-1.73 3.22c-.1.31-.57 1.17-1.04 1.91-.47.74-1.3 2.36-1.85 3.6a27.1 27.1 0 0 1-1.47 2.9c-.25.37-1.02 1.74-1.71 3.05a41.46 41.46 0 0 1-3.57 5.95 21.8 21.8 0 0 0-1.85 2.99c-.17.33-2.1 4.36-3.8 7.24-.53.9-.97 1.76-.97 1.9 0 .4-.44 1.37-1.12 2.47l-1.77 2.91a33.31 33.31 0 0 1-2.05 3.02c-.48.6-.96 1.49-1.05 1.98-.1.49-.58 1.4-1.06 2.04a6.95 6.95 0 0 0-1.06 1.87c-.1.38-.5 1.3-.9 2.03l-1.59 2.9a17.5 17.5 0 0 1-1.3 2.12c-.25.3-.95 1.48-1.57 2.64a46.02 46.02 0 0 1-1.9 3.25 5.27 5.27 0 0 0-.77 1.47c0 .17-.24.67-.53 1.11-.67 1-1.58 3-1.58 3.47 0 .2.3.43.66.52.9.23 6.76.58 7.36.44.26-.06 8.9-.09 19.18-.06zm89.86-66.43c-1.66-.49-3.48-3.28-3.18-4.88.17-.88-.14-1.27-.51-.66-.27.43-1.77 1.14-2.78 1.3-.81.14-.92.26-.92.94 0 .67.12.8.88.96.49.1 1.01.3 1.17.46.4.4-.18 1.03-1.14 1.24-.84.18-1.52-.11-3-1.29-1.13-.9-1.75-.78-2.34.46-.53 1.1-1.38 1.37-2.1.65-.4-.41-.48-.7-.32-1.24.12-.39.19-1.24.16-1.9-.03-.65-.07-2.25-.08-3.56-.02-2.35-.02-2.38.83-3.14.84-.75.86-.76 3.79-.66 2.3.08 3.14.21 3.87.62 1.48.84 2.11 1.5 2.12 2.23 0 1.55.9 1.62 2.06.16 1.2-1.54 4.7-2.68 6.92-2.26 1.72.33 2.1.54 3.25 1.82 1.7 1.87 1.67 4.41-.06 6.6-1.47 1.87-2.8 2.44-5.58 2.4-1.23 0-2.6-.12-3.04-.25zm6.7-3.24c.98-.94 1.12-2.05.44-3.5-.59-1.23-1.9-1.8-3.82-1.66-1.61.12-2.8.84-3.77 2.3-1.05 1.58-.2 3.4 1.97 4.2 1.4.53 1.4.53 2.86 0 .8-.3 1.84-.9 2.32-1.34zm-13.9-2.68c1.2-.51 1.59-1.01 1.38-1.83-.22-.88-.91-1.29-3.16-1.85-2.68-.68-3.3-.36-3.3 1.7 0 1.21.36 1.82 1.31 2.17.79.29 2.87.18 3.76-.2zm21.76 5.95c-3.81-.3-4.29-.7-3.4-2.95.37-.91.4-1.3.14-2.4-.38-1.64-.4-4.06-.03-4.74.3-.57 1.43-.7 1.74-.19.26.42.88 3.65 1.07 5.58.19 1.88.43 2.04 3.33 2.14 1.2.04 2.45.22 2.78.4 1.37.73.22 2.15-1.86 2.28-.61.04-2.31-.01-3.77-.12zm-62.78-.82c-.73-.67-.73-1.3-.03-2.68.42-.82.5-1.31.36-2.04-.1-.53-.22-1.97-.25-3.2-.05-2.09 0-2.31.62-2.98.62-.68.82-.73 2.73-.73 2.32 0 4.54.68 5.44 1.66.8.87 1 2.51.45 3.87-.48 1.2-2.45 2.94-3.33 2.94-.75 0-2.6 1.01-2.8 1.53-.09.25-.45.84-.8 1.31-.76 1-1.55 1.1-2.4.32zm5.78-5.55c.38 0 1.58-1.22 1.57-1.61-.03-1.07-2.8-2.6-3.83-2.14-.78.36-1.27 2.06-.85 2.94.32.67 1.66 1.15 2.53.91.19-.05.45-.1.58-.1zm5.52 5.54c-.2-.11-.24-.6-.14-1.34l.2-1.42c.01-.14-.06-1.82-.17-3.71l-.2-3.46.85-.71c.65-.55 1.17-.73 2.22-.77 2.73-.12 3.42 0 4.13.7.64.66.65.72.25 1.4-.23.4-.57.7-.76.65-.2-.04-1.08-.15-1.97-.23-1.3-.12-1.69-.07-1.98.28-.59.71.09 1.22 1.61 1.22 1.32 0 2.5.44 3.1 1.15.52.63-.37 1.32-1.45 1.11-1.13-.2-2.7.44-2.99 1.24-.3.81.17 1.8.87 1.8 2.24.02 4.66.25 5.38.52.87.32 1.17 1.1.57 1.48-.4.24-9.14.33-9.52.1zm14.75-.72c-.36-.4-.44-1.08-.44-3.8 0-3.95-.17-4.34-1.79-4.13-1.29.18-2.18-.33-2.18-1.24 0-1.44 1.96-1.79 6.75-1.21 3.12.37 3.84.6 3.84 1.2 0 .4-.44.54-2.37.76-1.82.2-1.94.52-1.78 4.44.15 3.53.04 3.98-1.03 4.3-.36.1-.7 0-1-.32zM94 183c.14-.19.66-1.35 1.14-2.59a22.78 22.78 0 0 1 2-3.87c.6-.9 2.06-3.46 3.2-5.7 2.88-5.56 4.09-7.74 4.35-7.85.12-.05.21-.19.21-.31 0-.13.4-.92.9-1.77.49-.84.98-1.83 1.1-2.2.1-.36.6-1.25 1.08-1.97.5-.73.9-1.46.9-1.62 0-.16.23-.5.52-.77.3-.26.64-.84.78-1.3.59-1.93 1.13-3.18 1.74-3.97a26.5 26.5 0 0 0 1.72-2.93 26.5 26.5 0 0 1 1.72-2.95c.36-.47.66-1.02.66-1.23 0-.22.17-.53.38-.7.22-.18.47-.59.57-.9.25-.78 3.47-5.89 3.86-6.67 1.58-3.24 1.28-2.71 1.81-3.83.45-.95 2.64-4.77 2.64-5.08 0-.13.41-.88.92-1.68.51-.8.93-1.54.93-1.66 0-.12.48-.96 1.06-1.86.58-.9 1.06-1.7 1.06-1.77a12 12 0 0 1 1.05-1.54 6.98 6.98 0 0 0 1.06-1.7c0-.17.36-.96.8-1.77.43-.8.79-1.6.79-1.76 0-.17.5-1.15 1.1-2.18.6-1.03 1.53-2.71 2.08-3.73l1.85-3.44c.48-.87 1.14-2.13 1.47-2.8.33-.67.89-1.56 1.24-1.98.71-.87 1.36-2.05 2.55-4.66.44-.97 1.24-2.45 1.78-3.3a35.1 35.1 0 0 0 1.87-3.45 27.61 27.61 0 0 1 1.7-3.12c.44-.66 1.12-1.82 1.51-2.59.4-.76.91-1.68 1.15-2.05.71-1.1 1.79-2.99 2.2-3.88.22-.46.52-.92.68-1.02.16-.1.37-.38.47-.62.1-.25.95-1.79 1.9-3.42.94-1.64 2.2-3.9 2.79-5.02l2.21-4.16 2.34-4.37a27.71 27.71 0 0 1 1.52-2.64c.19-.22 1.07-1.8 1.95-3.52.9-1.72 1.8-3.3 2.02-3.53.22-.22.4-.54.4-.71 0-.17.48-1.02 1.06-1.9 1.18-1.77 1.32-2.62.5-3.05-.39-.21-6.84-.33-21.95-.39-11.77-.05-21.52-.17-21.68-.26-.15-.1-1.94.02-3.97.25-2.3.27-3.88.34-4.17.19-.55-.28-25.33-.27-25.61.01-.45.45-.84 4.05-.63 5.73.11.96.15 1.83.07 1.95-.11.2-.14 10.96-.03 13.7.02.5 0 1.4-.04 1.98-.04.58-.07 6.71-.05 13.63.03 15.2-.35 36.63-.38 37.58-.02.64.52 2.08.42 3.91-.07 1.3-.38 20.83-.3 41.32.02 5.6-.08 12.95-.24 16.32-.15 3.37-.2 6.44-.11 6.81.18.73.92.92 1.38.35zM145.7 69.54c-.67-.27-1.08-1.48-.64-1.91.2-.21.69-.2 1.74.03 1.51.34 2.04.22 2.91-.65.92-.92.12-2.25-1.69-2.79-2.47-.74-3.25-2.61-1.75-4.18 1.55-1.62 4.78-1.63 4.78-.02 0 .58-.13.67-1.19.8-2.09.24-2.52 1.06-.92 1.73.52.21 1.4.82 1.99 1.34.97.88 1.05 1.06 1.05 2.32 0 1.21-.1 1.48-.88 2.23a5.58 5.58 0 0 1-5.4 1.1zm-24.8-.14-1.01-.24c-.4-.09-1.1-.52-1.56-.95-.87-.83-1.54-1.02-1.54-.43 0 .2-.22.55-.48.8-.71.64-7.17.63-8.25 0l-.75-.45.5-.94c.58-1.08.67-3 .23-4.97-.42-1.86.1-3.28 1.34-3.71 1.88-.64 5.3-.26 5.3.6 0 .59-.93.9-2.63.9-1.5 0-1.62.06-1.99.77-.36.7-.35.8.08 1.19.3.26.94.43 1.68.43.8 0 1.42.17 1.83.5l.63.52-.99.41c-.54.23-1.26.42-1.6.42-1.1 0-1.61.59-1.41 1.65.21 1.15.52 1.25 3.86 1.26h2.52v-2.71c0-4.41 1.1-5.76 4.66-5.76 1.37 0 1.9.12 2.45.55.85.68.87.92.07 1.43-.55.37-.73.37-1.77 0-2.06-.72-2.9-.2-3.37 2.13-.6 2.94 1.13 4.97 3.73 4.37 1.7-.4 2.03-.35 2.03.3 0 .58-.53 1.14-1.45 1.51-.75.31-1.8.52-2.12.43zm16.13-.05c-.29-.07-.74-.32-1-.55-.42-.37-.58-.38-1.33-.05-.52.23-2.07.4-4.03.46-2.89.09-3.23.05-3.65-.42-.45-.49-.45-.59-.02-1.88.35-1.09.42-1.98.3-4.27-.12-2.83-.11-2.91.51-3.4.35-.28 1.1-.58 1.68-.68 1.33-.22 3.78.28 4.34.9.73.8-.03 1.16-2.25 1.05-1.58-.08-1.94-.02-2.19.37-.53.83.1 1.38 1.7 1.47 1.7.1 2.21.41 1.82 1.13-.2.39-.56.5-1.53.5-1.75 0-2.28.44-2.07 1.73.2 1.27.48 1.44 2.35 1.45.86 0 1.92.2 2.45.44.86.42.96.42 1.41 0 .57-.51 1.9-.57 3.12-.13 1.55.56 3.37-.72 2.73-1.93-.3-.57-1.8-1.44-3.16-1.85-1.99-.6-2.79-2.67-1.5-3.89.83-.77 3-1.4 4.16-1.2 2.11.37 1.88 1.28-.4 1.56a5.6 5.6 0 0 0-1.86.49c-.66.48-.2 1.18 1.03 1.54 1.9.56 3.37 1.54 3.77 2.49.8 1.93.16 3.44-1.86 4.36a8.79 8.79 0 0 1-4.52.31zm-33.12-1.2a22 22 0 0 1-1.4-1.87c-.64-.95-.99-1.25-1.42-1.19-.48.07-.58.27-.61 1.22-.02.62-.18 1.3-.36 1.52-.4.47-1.22.51-1.38.06-.18-.53-.04-8.21.16-8.83.53-1.65 5.72-1.37 7.4.39.59.61.7.92.6 1.75a3.68 3.68 0 0 1-2.08 2.68c-1.03.54-.91 1.17.49 2.73 1.38 1.54 1.39 2.14.03 2.14-.6 0-1.08-.2-1.43-.6zm.22-5.44c.25-.1.7-.5 1-.89l.55-.7-.96-.6c-1.18-.72-3.49-1.01-3.83-.47-.38.6-.27 1.87.2 2.4.45.49 2.13.63 3.04.26zm-39.07 69.94c2.95-.56 4.56-1.57 6-3.77 1.51-2.31 2-4.4 2.06-8.96.03-2.5-.06-3.75-.35-4.5-.36-.95-.64-2.84-.84-5.53a160.43 160.43 0 0 0-1.98-12.7c-.12-.73-.4-2.22-.63-3.3-.23-1.1-.54-2.82-.68-3.84-.15-1.02-.5-2.93-.79-4.24a23.93 23.93 0 0 1-.53-3.37c-.01-1.34-1.54-8.85-1.94-9.5-.38-.64-1.57-.58-6.14.3-1.6.3-4.04.72-5.42.92-6.67.94-12.88 1.92-14.29 2.23-.65.15-1.92.28-2.8.28-.9.01-2.27.14-3.05.3-.78.15-1.84.32-2.35.37a38.7 38.7 0 0 0-5.92 1.18c-.66.26-.74.4-.6 1.09.09.44.64 1.5 1.22 2.36a9.5 9.5 0 0 1 1.07 1.82c0 .13.16.3.35.38.4.15 2.82 4.15 2.82 4.63 0 .17.38.73.84 1.25.46.53 1.02 1.3 1.25 1.72a59.43 59.43 0 0 0 3.65 5.91 9.72 9.72 0 0 1 1.14 1.78c0 .13.47.85 1.04 1.61.58.76 1 1.47.92 1.58-.06.1.04.3.23.41.53.33 1.66 1.91 2.4 3.4.38.72.95 1.61 1.29 1.98.33.36 1.13 1.43 1.78 2.38l2.31 3.37a11.7 11.7 0 0 1 1.14 1.87c0 .11.48.94 1.06 1.84.58.9 1.06 1.7 1.06 1.79 0 .1.4.66.89 1.27.48.6 1.22 1.79 1.64 2.63.42.84 1.28 2.15 1.92 2.91.63.76 1.5 2.1 1.93 2.97.85 1.73 1.4 2.28 3.01 3.05 1.28.61 2.6.65 5.29.13zM45 191.52c-.85-.1-1.74-.4-1.99-.63-.47-.48-.66-2.47-.66-7.1 0-2.93.27-3.47 1.83-3.73 1.25-.2 4.1.29 4.68.8 1.35 1.23-.14 2.61-2.48 2.3-1.23-.16-1.34-.13-1.25.32.06.3.36.53.75.58 1.09.13 2.12.63 2.4 1.15.37.69-.12 1.5-1.02 1.7-1.24.26-1.9.62-1.9 1.02 0 .76.8 1.21 2.2 1.24 1.92.04 2.67.3 2.77.95.06.39-.19.71-.83 1.1-.95.6-1.77.65-4.5.3zm-37.48-.92c-.28-.34-.28-.6-.01-1.43.47-1.42.12-1.92-1.62-2.31-1.88-.43-2.5-.06-2.75 1.63-.24 1.6-1.1 2.26-2.1 1.61-.91-.6-1.22-1.28-.97-2.18.12-.42.24-1.95.26-3.4.06-2.9.35-3.66 1.5-3.95 1.06-.27 1.45.23 1.45 1.82 0 1.28.06 1.4.86 1.84.8.42.94.42 1.85.04 1.06-.45 1.53-1.08 1.53-2.08 0-.35.24-.85.53-1.12.43-.39.65-.42 1.16-.2.6.28.63.43.68 3.16l.09 4.05c.04 1.58-.55 2.76-1.43 2.86-.38.05-.83-.1-1.03-.34zm25.73-.15c-1.37-.64-2.91-2.14-3.14-3.04-.28-1.13-.76-.55-.84 1.02-.09 1.6-.63 2.3-1.8 2.3-.81 0-3.56-2.2-4.3-3.45-1.03-1.73-1.83-1.33-2 1-.12 1.92-.25 2.19-1.1 2.19-.93 0-1.25-.83-1.05-2.74.1-.9.16-2.57.15-3.73-.04-2.72.49-3.98 1.53-3.72.96.23 2.16 1.42 2.16 2.14 0 .32.55 1.25 1.23 2.06 1.98 2.42 3.06 1.82 2.6-1.44-.2-1.5.11-2.1 1.09-2.1.8 0 1.43.94 1.43 2.15 0 1.47 1.28 1.63 1.85.24.66-1.6 3.53-3.44 5.35-3.45 1.12 0 1.39.29 1.15 1.22-.12.5-.58.85-1.86 1.43-1.74.78-2.43 1.6-2.88 3.5-.2.86.5 1.44 2.24 1.83 1.52.34 1.87.15 2.54-1.37.46-1.06.7-1.32 1.22-1.32.99 0 1.2.5 1.15 2.64-.04 1.93-.06 1.99-.94 2.58-1.2.8-4.12.84-5.78.06zm-19.78-.52c-.1-.15-.15-1.25-.12-2.45.02-1.2-.04-3.13-.15-4.3-.23-2.47.07-3.03 1.6-3.03 1.12 0 1.34.6.96 2.67-.14.79-.18 1.9-.08 2.49.22 1.25.16 4.22-.08 4.61-.23.36-1.91.37-2.13 0zM5.2 52.68c-.62-.88-1.9-3.65-1.9-4.11 0-.19-.25-1.04-.55-1.9-.63-1.77-.52-2.78.3-2.78.85 0 1.5.45 1.67 1.18.1.37.28.67.4.67.52 0 .44-1.54.52-3.97.08-2.63-.05-5.3.05-8.07.17-4.57 1.45-10.8 2.5-13.63.18-.5.72-2.11 1.2-3.57.47-1.45 1.22-3.3 1.67-4.1C12.34 10.1 16 5 16.68 4.56c1.65-1.08 2.28.57.83 2.2-.86.98-2.57 3.42-2.57 3.68 0 .07-.46.7-1.02 1.41a8.93 8.93 0 0 0-1.37 2.57c-.2.7-.52 1.59-.7 1.95-.2.36-.3.81-.35.97-.72 2.13-.6 1.58-1.06 3.03-.15.35-.52 1.7-.82 3.01-.3 1.31-.7 3.1-.92 3.97-.86 3.63-1.4 13.36-.87 15.65.17.7.34 2 .37 2.87.04.87.08 1.74.1 1.92.05.76 1.34.3 2.44-.87a5.58 5.58 0 0 1 1.74-1.35c.77-.2 1.38.3 1.2.96-.14.59-2.54 2.91-2.99 2.91-.52 0-3.16 2.23-3.16 2.67 0 .53-.83 1.3-1.4 1.3-.23 0-.65-.33-.93-.73zm61.2-21.8a5.9 5.9 0 0 0-2.03-.1c-1.45.18-2.24-.35-1.94-1.29.35-1.08.68-4.8.54-6-.12-.97-.05-1.36.36-1.86.45-.56.76-.64 2.88-.72 1.77-.07 2.57.01 3.16.32.74.38.83.38 1.26-.1.41-.45.82-.5 4.14-.47 3.79.04 4.38.2 4.03 1.11-.09.24-.63.68-1.2.97-.57.3-1.1.7-1.19.92-.08.2-.04 1.45.09 2.75s.15 2.61.04 2.9c-.27.74-1.16 1.16-1.77.84-.43-.23-.5-.6-.5-2.72-.01-2.78-.5-4.53-1.28-4.66-.28-.04-1.07-.25-1.76-.46-1.14-.36-1.33-.35-1.94.05-.56.37-.83.39-1.68.13-1.17-.35-2.65-.13-2.86.42-.08.2-.02.65.13.98.23.5.55.63 1.8.76 1.64.17 2.12.45 1.88 1.1-.12.3-.54.41-1.56.41-1.74 0-2.15.26-2.12 1.3.04 1.15.19 1.3 1.59 1.47 2.44.31 2.88.42 3.36.76.46.34.46.38-.09.93-.61.62-1.92.72-3.34.27zm-20.42-.68c-.91-.08-1.37-.36-2.74-1.66-1.6-1.52-1.65-1.55-2.27-1.15-.35.23-.63.58-.63.78 0 .2-.51.74-1.13 1.19-1.03.75-1.26.8-2.86.72-1.34-.07-1.87-.23-2.36-.68-.35-.33-.7-.6-.78-.6-.08 0-.5-.54-.91-1.2-.72-1.14-.76-1.32-.6-3.11.17-1.77.26-1.97 1.3-3.03 1.7-1.74 3.6-2.05 5.9-.97 1.08.52 2.33 2.22 2.38 3.26l.07 1.75.05 1.06.65-.8c.36-.43.65-.94.66-1.12 0-.18.13-.33.27-.33.15 0 .27-.2.27-.44 0-.68 1.84-2.76 2.8-3.17 1.71-.7 3.81-.33 3.81.69 0 .57-.63.84-1.78.75a5.47 5.47 0 0 0-2.28.73l-1.5.78v1.63c0 1.98.46 2.46 2.82 2.97 2.67.59 2.7.61 1.88 1.44-.4.4-.96.68-1.31.66l-1.7-.15zm-7.43-2.93c.6-.56.73-.9.73-1.96 0-1.8-.8-3.25-1.98-3.64-1.18-.4-1.69-.22-2.9.99-.93.92-.99 1.07-.87 2.26.15 1.62.89 2.61 2.2 2.98 1.29.36 1.9.23 2.82-.63zm18.95 1.6c-.64-.69-1.35-1.54-1.57-1.9-.6-.92-1.3-.57-1.3.65 0 1.16-.99 2.28-1.81 2.07-.72-.19-.87-.67-.56-1.73.15-.5.19-1.88.09-3.17-.22-2.87-.05-3.66.78-3.66.47 0 .74.27 1.1 1.06.27.6.66 1.06.9 1.05.23 0 .9-.48 1.47-1.06 1.1-1.11 1.6-1.22 2.09-.46.24.37.1.64-.72 1.49-.96.99-1 1.07-.73 2.06.15.56.68 1.44 1.17 1.95 1.1 1.13 1.6 2.03 1.4 2.53-.27.71-1.15.38-2.3-.88zm-34.55.66c-.15-.18-.25-2.3-.23-4.88.02-4.23.06-4.58.55-4.95.3-.22.65-.42.8-.43 1.94-.22 4.09-.21 4.22 0 .1.15.38.28.63.28.26 0 .82.36 1.24.8 2.01 2.1-.48 5.89-3.6 5.47-1.49-.2-1.83.14-1.83 1.79 0 .94-.15 1.56-.42 1.84-.5.5-1.02.53-1.36.08zm4.42-5.51c1.62-.35 2.16-1.19 1.46-2.26-.35-.53-.63-.63-1.85-.63-1.13 0-1.59.14-2.16.63-.67.57-.7.7-.42 1.33.26.57.75.94 1.57 1.2.03.01.66-.11 1.4-.27zm95-14.11c-.34-.42-.45-2.05-.16-2.51.08-.12 0-1.26-.16-2.52-.37-2.86-.16-3.44 1.38-3.86 2.22-.6 4.07-.34 4.37.6.2.65-.5 1.3-1.34 1.24-1.33-.1-1.99.03-1.99.41 0 .26.38.45 1.07.56.58.1 1.13.28 1.21.42.25.4-.6 1.43-1.46 1.8-.59.24-.82.5-.82.96 0 .71-.04.7 2.62.75 1.7.04 2.02.12 2.45.66.47.58.48.65.06 1.1-.36.4-.79.49-2.32.45-1.04-.03-2.48.04-3.21.16-1.1.18-1.4.14-1.7-.22zm-69.49-.17a4.34 4.34 0 0 1-1.85-1.07c-.71-.74-.77-.96-.76-2.7.01-2.26.55-3.31 2.26-4.46C53.65.76 54.71.57 55.38 1c.42.26.18.82-.34.82-.19 0-.9.48-1.56 1.07-2.06 1.82-1.96 3.81.25 4.8 1.42.62 2.29.4 2.8-.7.37-.84 1.4-.9 1.81-.12.36.68.12 2.18-.42 2.63-.51.42-3.65.57-5.04.24zm12.2-.25c-.44-.11-1.53-.21-2.42-.23-1.91-.04-2.36-.4-2.1-1.68.46-2.21.46-2.88.02-3.8-.65-1.38-.36-2.59.73-3.1.67-.3 1.21-.34 2.53-.16.93.13 1.79.3 1.92.39.5.3.21.97-.55 1.25-.86.33-1.08.98-.33.99.25 0 .62.1.8.22.57.36-.36 1.1-1.37 1.1-1.06 0-1.49.4-1.48 1.44 0 1.2.26 1.43 2.1 1.8 1.84.37 2.47.92 1.88 1.63-.37.45-.52.46-1.74.15zm5.09-.05c-.37-.27-.46-.71-.44-2.07.01-.94-.02-2.49-.08-3.44-.13-2.13.08-2.77 1.09-3.29 2.17-1.13 5.38-.07 6.37 2.1.67 1.46.67 2.4.02 3.87-.85 1.92-2.13 2.72-4.78 3-1.24.12-1.85.07-2.18-.17zm4.68-2.62c1.03-.9 1.09-1.14.63-2.65a2.98 2.98 0 0 0-2.97-2.03c-.82.07-.82.09-.9 1.8-.05.94.04 2.16.2 2.7.27.9.38 1 1.2 1 .64 0 1.19-.25 1.84-.82zm11.82 1.94c-.86-3.3-.9-3.87-.44-5.95.25-1.11.62-2.17.83-2.34.26-.21 1.2-.27 3.03-.18 2.58.12 2.68.15 3.57 1.01 1.11 1.08 1.15 1.71.16 3.06-1.31 1.78-2 2.26-3.52 2.45l-1.41.17-.16 1.14c-.15 1.17-.53 1.62-1.35 1.63-.3 0-.54-.32-.71-.99Zm4.2-4.1c.96-.55 1.53-1.5 1.2-2.03-.2-.32-2.54-.53-3.2-.28-.57.22-.98 1.36-.73 2.02.1.26.87.67 1.62.87.04 0 .54-.25 1.11-.58zm6.01 4.92c-1.03-.18-1.68-1.23-1.28-2.1.16-.36.3-1.95.3-3.55 0-2.52.06-2.92.48-3.14a1.9 1.9 0 0 1 1-.19c.46.07.5.35.58 3.35.05 2.21.18 3.34.4 3.48.17.1.81.2 1.42.2.6 0 1.29.08 1.52.17.5.2.55.99.09 1.37-.38.31-3.42.59-4.5.4zm-50.5-.68c-.67-1.27-3.95-4-4.64-3.86-.37.07-.51.42-.62 1.5-.2 1.92-1.08 2.46-1.77 1.06-.24-.49-.25-.92-.04-1.66.15-.56.2-1.57.1-2.26-.16-1.16-.11-1.31.54-1.83.8-.63 1.81-.73 2.23-.23l1.33 1.65c1.7 2.1 2.5 2.16 2.23.15-.2-1.52.18-2.4 1.05-2.4.98 0 1.31.63 1.14 2.11-.11.9 0 1.9.36 3.17.4 1.49.45 1.98.2 2.52-.4.89-1.65.93-2.1.08zm63.19.1a1.68 1.68 0 0 1-.44-.89c0-1.17-1.91-1.2-3.48-.05-1 .74-1.36.79-1.9.26-.51-.52-.05-2.31 1.01-3.88.44-.64.93-1.46 1.1-1.83.42-.94 1.36-1.85 1.9-1.85.69 0 1.63.76 1.63 1.32 0 .66 2.06 4.77 2.39 4.77.4 0 .3 1.4-.15 2.05-.5.72-1.47.77-2.06.1zm-1.29-4.34c.07-.34-.08-.46-.59-.46s-.68.14-.68.55c0 .41.14.52.6.46.32-.05.63-.3.67-.55zm7.65 4.5c-.53-.39-1.25-2.95-1.25-4.43 0-1.56-.43-2.27-1.6-2.62-1.3-.39-1.54-.79-.83-1.36.43-.35 1.34-.5 3.76-.65 2.85-.17 3.25-.14 3.71.27 1.12 1.01.24 1.9-1.51 1.56-1.55-.31-2.47 2-1.45 3.65 1.38 2.24.79 4.78-.83 3.58zm-86.3-.55c-.4-.3-.45-.57-.31-1.46.17-1.07.15-1.1-.82-1.5-1.62-.68-2.24-.46-2.64.93-.38 1.36-1.28 2.28-1.8 1.85-.2-.17-.4-1.45-.52-3.45-.2-3.52-.07-3.96 1.2-3.96.66 0 .8.14 1.04 1.06.25.93.38 1.06 1.06 1.06.82 0 2.12-.49 2.12-.8 0-.26 1.26-1.58 1.5-1.58.76.02 1.01.6 1.06 2.44.03 1.06.13 2.53.22 3.28.16 1.25.12 1.39-.55 1.92-.84.66-.92.67-1.56.2zm4.85.17c-.13-.72-.27-3.41-.26-5.1.01-1.72.1-2.04.66-2.6 1.25-1.27 2.96.12 1.74 1.41-.66.7-.67 2.1-.02 3.8.65 1.73.33 2.5-1.1 2.62-.54.05-1-.01-1.02-.13z"/>
</svg>
