<?xml version="1.0" encoding="utf-8"?>
<svg xmlns="http://www.w3.org/2000/svg" xmlns:svg="http://www.w3.org/2000/svg" version="1.1" viewBox="0 0 344 214">
	<title>A schematic diagram showing a cross section of the two garages, separated by a wall, but with an underground pipe communicating between them. The pipe connects the inspection chamber and vent pipe of each garage in a straight line.</title>
	<path d="M136.23 213.93c-.1-.09-18.89-.2-41.77-.26-37.87-.1-41.65-.14-42.04-.53-1.05-1.05.99-1.6 3.54-1.44 4.23.26 7.4.05 11.57.22 1.33.06 1.65-1.63.22-1.84-.88-.13-1.5-.42-2.1-1.46-1.11-1.88-.41-3.91 1.75-5.1.88-.49 1.21-.56 1.64-.33.84.45.65.98-.41 1.15-1.23.2-1.68.82-1.69 2.32 0 1.47.55 2.1 1.87 2.1 1.2 0 1.7.34 1.43.96-.2.46-.25.65-.36 1.29-.02.14-.14.1-.26-.08-.14-.22-.22-.05-.22.47 0 .65.1.78.42.64.23-.1 1.08-.2 1.89-.23 2.14-.07 2.56-.5 1.73-1.8a5.33 5.33 0 0 1-.36-2.33c0-2.2-.2-2.85-1-3.05-.94-.24-1.36-.84-.89-1.29.32-.3 3.34-.59 4.67-.44.59.06.36.96-.42 1.63-.7.63-.75.8-.9 3.5-.15 2.5-.11 2.9.32 3.43l.5.6H87.9c12.72-.42 25.36.03 38.1.06l22.82.06.62-.67c.6-.64.6-.7.16-1.18-.25-.28-.66-.52-.9-.52-.78 0-2.64-1.41-3.08-2.35-.34-.71-.39-1.18-.2-2.11a3.9 3.9 0 0 1 3.5-2.94c1.86 0 2.59 1.38.9 1.72-2.26.46-3.17 1.33-2.86 2.74.23 1.03.92 1.43 2.79 1.61 1.58.16 1.56.12 1.18 2.01-.32 1.58-.53 1.56 12.8 1.45 6.64-.05 24.34-.14 39.33-.2l28.18-.13 17.23.06c11.76.04 16.56-.02 17.22-.24a2.28 2.28 0 0 1 1.65-.04c1 .38 3.92.35 4.46-.05.42-.31.41-.4-.13-1.26-.57-.9-.62-1.3-.76-5.38-.07-2.02.27-2.37 2.52-2.51 1.42-.09 1.75-.03 1.89.32.34.9-1.66 2.22-2.6 1.72-.42-.23-.5-.21-.41.07.06.2.48.4.93.44 1.08.1 1.86.94 1.4 1.5-.19.22-.68.4-1.1.4-.42 0-.76.07-.76.17 0 .41 1.18 1.13 2.13 1.29.57.1 1.1.27 1.18.4.29.46-.22 1.05-.92 1.05-.4 0-1.11.08-1.58.17-.71.14-.83.27-.76.86.08.63.2.7 1.54.82 1.23.11 1.45.22 1.45.66 0 1.18-.5 1.22-16.6 1.17l-16.6-.07c-.8-.01-2.17.02-3.05.06-.87.05-4.56.1-8.2.1a1119.2 1119.2 0 0 0-19.44.18c-26.85 0-60.4.19-63.37.34-.44.03-2.76 0-5.16-.04-2.4-.05-4.96 0-5.69.1-.73.1-1.4.12-1.48.03zm-82.87-3.84c-.79-.5-1.24-.98-1.24-1.31 0-.6.92-.99 1.4-.6.56.45 1.98.62 2.57.31 1.04-.56.57-1.35-1.15-1.92-.84-.29-1.6-.68-1.68-.89-.23-.58.13-1.61.64-1.82 1.03-.42 2.14-.58 2.55-.35.62.35.53.71-.23.9-.82.21-.85.58-.07.88.66.26 1.3.9 1.77 1.82.37.72-.1 1.64-1.4 2.73-1.3 1.1-1.77 1.13-3.16.25zm8.94.24c-.29-.12-.96-.22-1.5-.23a5.5 5.5 0 0 1-1.38-.18c-.49-.19-.57-1.04-.13-1.32.2-.12.26-.86.17-2.2-.19-2.89-.02-3.2 1.75-3.2.87 0 1.54.14 1.72.36.37.44.13.7-.65.7-.73 0-1.43.25-1.43.51 0 .11.3.33.66.5.81.37.92 1.52.16 1.76-.5.16-.91 1.1-.66 1.5.07.13.42.23.76.23.96 0 1.99.47 1.99.9 0 .55-.82.93-1.46.67zm50.13 0a3.29 3.29 0 0 0-1.34-.25c-1.34 0-1.59-.42-1.4-2.28.1-.9.04-2.04-.14-2.7-.33-1.22-.09-1.9.68-1.9.51 0 .79.86.97 3.02.17 1.92.4 2.26 1.5 2.27 1 .01 1.42.37 1.2 1.03-.22.72-.97 1.13-1.47.8zm69.38 0c-1.1-.44-2.88-1.86-3.19-2.53-.31-.69-.14-4 .24-4.61.12-.19.4-.25.66-.15.4.15.44.41.3 2-.16 1.7-.13 1.88.51 2.64.77.91 1.35 1 2.54.4l.81-.43-.12-2.1c-.13-2.2.13-2.85 1-2.5.38.13.42.54.33 2.83-.1 2.63-.12 2.68-.96 3.37-.47.38-.85.85-.85 1.03 0 .38-.4.4-1.27.05zm-103.87-.71c-.19-.58.03-5.55.25-5.9.28-.47.9-.26 1.05.34.09.33.12 1.79.07 3.24-.07 2.48-.1 2.65-.65 2.73-.37.05-.62-.1-.72-.41zm38.6.2c-.29-.11-.81-.52-1.16-.9-.54-.58-.64-.95-.63-2.3.02-1.97.5-2.73 2.27-3.68 1.16-.62 1.3-.64 1.96-.26a4.83 4.83 0 0 1 2.18 3.58c.02 1.29-1.25 3.4-2.17 3.65-.8.22-1.8.18-2.45-.08zm2.78-2.32c.64-.8.69-1.99.11-2.56-.58-.58-1.16-.52-2.3.25-.84.58-.98.82-.98 1.66 0 .54.1 1.11.2 1.27.53.8 2.12.47 2.97-.62zm13.9 2.4c-1.53-.2-2.23-.65-2.78-1.78-1.02-2.12-.47-4.09 1.37-4.92 1.5-.68 3.02-.7 3.37-.03.36.66-.05.98-1.53 1.16-.63.08-1.36.34-1.62.58-.53.48-.87 1.77-.63 2.4.22.57 1.5 1.18 2.46 1.18.66 0 .83-.13.96-.73.28-1.27.35-1.38.87-1.38 1.02 0 1.14 1.96.18 3-.63.68-.93.74-2.66.52zm20.2-.1a4.68 4.68 0 0 1-1.55-2.8c0-.47-.18-1.03-.4-1.25-.6-.6-.52-1.3.14-1.1.4.13.7 0 1.09-.51.64-.81 2.33-1.73 3.19-1.73 1.06 0 2.27.96 2.87 2.27.54 1.2.54 1.28.12 2.4a5.7 5.7 0 0 1-1.44 2c-.83.69-1.23.83-2.38.85-.77.01-1.5-.05-1.63-.13zm3.58-2.12c.86-1.02.87-1.94.04-2.77-.72-.72-1.14-.8-2.06-.37-.71.32-1.8 1.8-1.8 2.45 0 .8.99 1.5 2.1 1.5.83 0 1.17-.16 1.72-.81zm44.11 1.76c-2.43-.85-3.02-2.36-1.9-4.84.85-1.86 3.45-2.8 4.8-1.7.4.32.54.63.42.95-.15.4-.38.44-1.38.29-1.11-.17-1.26-.12-1.98.66-1.87 2-.09 4.36 2.73 3.61.97-.26 1.27.43.5 1.15-.68.64-1.06.62-3.19-.12zm-118.45.13c-1.91-.82-1.9-4.55.02-6.06.99-.78 2.36-.75 3.45.08 1.46 1.11 1.52 3.47.12 5.13-.6.7-.99.91-1.9.99-.63.05-1.4 0-1.7-.14zm2.67-1.73c.83-.82.89-2.3.12-3.05-.63-.64-1.13-.67-1.97-.12-1.2.79-1.1 3.24.14 3.59 1 .28 1.03.27 1.71-.42zm16.53 1.45a1 1 0 0 1-.01-1.05c.15-.28.27-.71.27-.96 0-.75 1.68-3.8 2.17-3.96.68-.22 1.53.34 1.98 1.29.21.46.58 1.2.82 1.63.53.98.6 3.34.11 3.5-.2.08-.47-.21-.64-.68-.32-.84-.83-1.09-2.25-1.1-.73 0-.86.1-.86.61 0 1.17-1.08 1.66-1.6.72zm3.7-2.86c0-.12-.16-.44-.35-.7-.4-.56-.86-.15-.6.53.15.4.95.54.95.17zm54.4 3.16c-.15-.25.27-5.41.5-6.06.16-.46 1.06-.41 1.46.07.18.22.53.79.76 1.26.63 1.26 1.29 1.11 2.12-.47.56-1.04.84-1.32 1.36-1.32.6 0 .67.12.83 1.59l.36 2.92c.14 1.04.1 1.4-.23 1.67-.61.51-.97.14-.97-1.02 0-1.92-.47-2.33-1.37-1.19-.66.84-1.98 1.55-2.2 1.19a.56.56 0 0 1 0-.54c.24-.38-.61-1.64-.96-1.43-.15.1-.2.43-.13.74.32 1.26-.99 3.47-1.53 2.59zm15.85-.62c-.65-3.22-.97-3.5-2.09-1.8-.86 1.3-1.42 1.33-2.24.13-.78-1.15-1-1.16-1.22-.07-.44 2.23-1.25 3.05-1.55 1.57-.23-1.17.7-5.39 1.27-5.72.31-.18.51-.19.58-.01.47 1.17 1.6 3.17 1.81 3.23.15.04.68-.76 1.17-1.78.73-1.49 1.02-1.85 1.51-1.85.48 0 .66.2.86 1 1.07 4.15 1.23 5.95.52 6.09-.31.06-.49-.17-.62-.8zm40.58.79a72.8 72.8 0 0 1-.34-2.85c-.25-2.46-.35-2.79-.82-2.86-1.42-.21-1.72-.35-1.72-.84 0-.92 1.02-1.36 2.78-1.2 2.58.26 2.78.33 2.78 1.06 0 .48-.14.66-.52.66-.8 0-1.07.82-1.07 3.28 0 1.99-.06 2.3-.53 2.54-.29.16-.54.25-.56.2zm9.62-.25c-.34-.35-.48-5.6-.17-6.42.36-.92 1.4-.44 3.6 1.68l2.2 2.1.07-1.95c.08-1.97.55-2.93 1.14-2.34.4.4.38 6.09-.02 6.57-.46.55-1 .5-1.19-.12-.26-.82-4.18-4.28-4.42-3.9-.11.17-.13.53-.05.8.2.66-.14 2.96-.52 3.48-.25.34-.38.36-.64.1zm12.83.05c-1.87-.36-3.16-2.3-2.56-3.87.76-2 2.74-3.51 4.14-3.16.7.18.75.88.08 1.2l-1.45.7c-.97.47-1.07.61-1.15 1.65-.1 1.37.41 2.06 1.69 2.3 1.41.26 1.97-.05 1.97-1.1 0-.6.15-.98.42-1.08.91-.35 1.24 1.73.43 2.72-.52.65-2.06.92-3.57.64zm-150.65-.43a7.18 7.18 0 0 1 .15-2.2c.18-.97.24-1.96.15-2.2-.2-.54.3-1.53.8-1.53.2 0 .8.64 1.32 1.43 1.65 2.48 2.24 2.55 2.25.26 0-1.24.56-1.95 1.15-1.46.28.23.33.94.24 3.01-.07 1.5-.23 2.82-.35 2.96-.38.4-1.53-.4-2.54-1.77-1.03-1.4-1.5-1.5-1.62-.3-.18 1.8-1.13 2.9-1.55 1.8zm38.5-.4a34.16 34.16 0 0 0-1.75-2.03l-1.12-1.22v1.57c-.01 1.79-.24 2.33-.96 2.2-.44-.1-.5-.4-.55-2.72a11.9 11.9 0 0 1 .2-3.1c.5-.91 1.24-.57 2.36 1.09.6.87 1.31 1.7 1.6 1.86.58.3.54.4.62-1.65.06-1.39.43-1.95 1.11-1.7.37.15.42.4.28 1.4-.09.68-.16 2.1-.16 3.17 0 1.75-.06 1.95-.51 1.95-.28 0-.79-.37-1.13-.82zm60.28.64c-.1-.1-.18-1.5-.18-3.14 0-4.07.23-4.24 2.5-1.88.93.97 1.82 1.76 1.98 1.76.16 0 .28-.53.28-1.2 0-1.64.38-2.34 1.07-1.97.48.25.5.5.38 3.1-.13 2.73-.3 3.23-1.07 3.24-.16 0-.52-.41-.8-.93-.49-.91-2.4-2.68-2.65-2.43-.06.06-.2.76-.28 1.54-.2 1.74-.67 2.48-1.23 1.91zm9.08-1.03c0-.66-.13-1.74-.3-2.4-.42-1.65.06-3.34.91-3.22.5.07.58.25.6 1.4.02.73.11 1.93.22 2.66.23 1.62-.14 2.77-.9 2.77-.45 0-.53-.17-.53-1.2zm16.21.88a3.45 3.45 0 0 1-.42-.8c-.12-.33-.45-.46-1.24-.46-1.2 0-2.9.62-2.9 1.05 0 .15-.32.28-.7.28-.54 0-.66-.1-.54-.47 1.45-4.34 1.84-5.29 2.32-5.69.68-.56 1.08-.32 1.82 1.11.28.52.92 1.6 1.44 2.4.52.79.94 1.77.94 2.17 0 .79-.3.95-.72.4zm-1.97-3.04c-.13-.69-1.01-.77-1.01-.09 0 .38.17.55.55.55s.52-.14.46-.46zm11.6 3.17c-.23-.4-.47-5.25-.3-5.96.22-.89 1.05-.97 1.28-.12.21.77.21 5.32 0 5.86-.16.43-.77.57-.98.22zm38.9 0c-.3-.5-.46-5.55-.2-6.22.27-.72.9-.96 1.2-.47.24.38.27 6.21.04 6.58-.22.35-.86.42-1.04.11zm3.92-.07a19.1 19.1 0 0 1-.32-3.12c-.2-3.69.1-4.03 3.23-3.77 1.98.16 2.96 1.7 2.24 3.53-.57 1.42-1.02 1.78-2.28 1.78-1.06 0-1.17.07-1.53.92-.38.9-1 1.21-1.34.66zm3.16-3.21c.49-.22.68-.51.68-1.04 0-.84-.22-1.02-1.5-1.3-.73-.17-.94-.12-1.15.27-.38.71-.32 1.49.15 1.96.5.5.92.52 1.82.1zm-14.41 3.15-.14-3c-.15-3.52 0-3.78 2.45-4 1.5-.14 1.6-.1 2.55.8.84.78.96 1.04.81 1.68a3.4 3.4 0 0 1-2.94 2.46c-1.1.12-1.28.23-1.36.8-.11.8-.5 1.33-1 1.33-.2 0-.37-.03-.37-.07zm4.12-4.01c.83-1.27-.75-2.29-2.28-1.47-.57.3-.68 1.3-.2 1.79.58.57 2.01.38 2.48-.32zM63.13 183.77c-.98-.43-1.55-1.96-1.32-3.55.23-1.58 1.65-2.64 3.46-2.59 1.1.03 1.32.14 1.85.94.87 1.29.85 3.39-.04 4.35-1.12 1.2-2.48 1.5-3.95.85zm2.8-1.65c.91-.83.5-2.44-.82-3.12-.68-.35-.8-.34-1.15.07-1.03 1.18-1.12 2.46-.22 3.15.6.46 1.62.42 2.18-.1zm-38.9 1.3c-.51-.35-.76-.37-1.48-.11-.47.17-.94.31-1.03.31-.25 0-.23-4.82.02-5.19.67-1 3.94-1.3 4.89-.44.75.68.58 1.85-.39 2.74-.47.42-.95.77-1.06.77-.42 0-.18.63.47 1.23.37.35.6.75.52.9-.25.38-1.24.29-1.94-.2zm.33-3.23c.77-.3.88-.67.26-.9-.7-.28-1.7.11-1.7.66s.43.62 1.44.24zm2.7 3.51c-.25-.25-.2-1.34.1-1.93l.53-1.06c.14-.29.26-.65.26-.8 0-.47 1.35-2.11 1.73-2.11.35 0 .66.35 2.4 2.73.73 1.01.91 1.48.85 2.25-.11 1.28-.75 1.39-1.95.33-1.16-1.02-1.72-1.02-2.85-.02-.5.43-.97.7-1.07.61zm7-.3c-.32-.6-.32-4.85 0-5.37.17-.28.34-.3.7-.07.38.24.48.73.54 2.74.05 1.57-.03 2.58-.23 2.82-.41.5-.7.46-1.01-.13zm2.83.34c-.08-.08-.08-1.24 0-2.58.2-3.78.64-4.15 2.44-2.1.6.69 1.18 1.25 1.28 1.25.1 0 .23-.47.3-1.05.11-.86.26-1.08.74-1.15.6-.08.6-.06.53 2.51-.07 2.38-.12 2.61-.6 2.68-.34.05-.89-.28-1.45-.86-1.01-1.04-1.6-1.2-1.6-.42 0 1.24-1.03 2.33-1.64 1.72zm20.28-.11c-.16-.16-.72-.5-1.26-.78l-.97-.5-.5.68c-.83 1.15-1.3.65-1.23-1.3.14-4 .05-3.65 1.12-4.1 1.94-.81 4.31-.02 4.31 1.44 0 .68-1.3 2.17-1.9 2.17-.19 0 .11.3.67.68.72.5.98.84.92 1.26-.1.63-.73.88-1.16.45zm-.27-3.86c.93-.93.16-1.87-1.3-1.6-.68.14-.96.35-1.08.82-.09.35-.08.76.01.91.27.43 1.9.33 2.37-.13zm14.07 3.7a4.13 4.13 0 0 1-.16-1.18c0-1-.45-1.23-1.09-.55-.69.74-1.19.7-1.93-.16l-.61-.71-.19.65c-.44 1.56-.76 2.1-1.23 2.1-.46 0-.49-.2-.38-2.4.16-3.43.92-4.05 2.6-2.1.5.58 1 1.06 1.12 1.06.26 0 1.71-1.6 1.71-1.9 0-.3 1-.27 1.18.02.08.14.21 1.34.3 2.69.11 1.87.06 2.5-.2 2.67-.54.34-.94.27-1.12-.2zm7.8.17c-.5-.32-.86-3.55-.53-4.82.2-.8.45-1.04 1.34-1.4 1.8-.72 3.18-.22 3.85 1.38.51 1.22-.05 2.2-1.7 2.98-.7.32-1.56.93-1.92 1.34-.48.55-.77.7-1.04.52zm3.16-4c.35-.65-.28-1.1-1.38-1-.75.07-.89.2-.96.87-.13 1.1.58 1.6 1.45 1.02.35-.23.75-.63.9-.89zm2.7 3.91c-.38-.46-.63-3.58-.38-4.69.25-1.09.94-1.35 1.39-.51.17.32.37 1.49.45 2.6.11 1.69.06 2.11-.31 2.49-.54.53-.79.56-1.15.11zm4.42-.23a3.28 3.28 0 0 1-.16-1.67c.17-1.2-.54-2.8-1.24-2.8-.2 0-.52-.17-.7-.39-.26-.32-.26-.48 0-.8.47-.56 5.17-.57 5.39 0 .08.22-.13.6-.51.9-.55.43-.69.82-.82 2.33-.22 2.63-1.2 3.84-1.96 2.43zm-73.94.02a13.6 13.6 0 0 1-.3-2.9c-.08-2.48-.07-2.56.56-2.9 1.63-.87 5.2.55 5.38 2.14.1.9-1 2.96-1.8 3.32-1.08.5-3.6.73-3.84.34zm3.5-1.9c.8-.86.55-2.17-.48-2.6-1.33-.54-1.81.27-1.4 2.37.21 1.01 1.07 1.12 1.89.23zm28.63 1.85c-.02-.18 0-1.34.02-2.58.07-2.93.27-3.17 2.7-3.17 1.74 0 1.8.02 1.8.65 0 .48-.18.7-.66.82-.78.2-.82.34-.22.77.75.55.24 1.2-.93 1.2-1.07 0-1.5.4-1.2 1.16.22.57-.38 1.48-.96 1.48-.3 0-.54-.15-.55-.33zm1.88-4.03a.13.13 0 0 0-.13-.14.13.13 0 0 0-.14.14c0 .07.06.13.14.13.07 0 .13-.06.13-.13zm252.22 3.5a5.09 5.09 0 0 1-.28-1.88 5.74 5.74 0 0 0-.18-1.7c-.08-.08-.54.22-1 .67-.48.46-1.2.95-1.6 1.1-.4.16-.84.58-.98.95-.14.36-.43.66-.65.66-.7 0-.96-1-.89-3.36.08-2.3.09-2.31.98-2.91.5-.33 1.28-.6 1.75-.6 1.04 0 2.24.88 2.26 1.67.02.48.09.43.45-.3.65-1.3 1.24-1.02 1.3.61.04.73.14 1.92.23 2.64.26 2.04-.57 3.52-1.39 2.45zm-2.39-3.74c1.02-.77.11-2.27-1.13-1.88-.56.18-.94 1.2-.7 1.85.2.49 1.2.5 1.83.03zm6.9 3.74c-.12-.18-.34-1.34-.48-2.57-.25-2.07-.32-2.25-.93-2.39-.8-.2-1.02-1.03-.37-1.5.71-.53 4.44-.47 4.89.07.5.6-.01 1.28-1.03 1.38l-.83.08.14 2.1c.14 2.16-.12 3.16-.8 3.16a.79.79 0 0 1-.6-.33zm-66.7-.23c-.22-.23-.33-1.26-.33-3.18 0-3.33.19-3.67 2.02-3.67 1.4 0 2.49.5 3.24 1.52l.55.73v-.73c.02-.95.96-1.34 2.9-1.18 2.19.17 2.63 1.13 1.61 3.5-.29.68-.46 1.35-.38 1.48.3.48.93.22 1.19-.49.15-.4.44-1.08.65-1.52.21-.44.56-1.24.77-1.79.65-1.64 2.02-1.2 2.4.77.1.55.4 1.44.69 1.99.93 1.82.4 3.55-.63 2.07-.2-.29-.76-.66-1.24-.83-.8-.28-.92-.24-1.64.53-1.04 1.11-2.17 1.12-3.54.03l-1.02-.8-.63.8c-.71.92-1.01.98-1.69.36-.45-.4-.52-.4-1.02.05-.68.62-3.4.87-3.9.36zm3.38-1.82c.35-.35.53-.88.53-1.57 0-.85-.15-1.14-.77-1.59-1.61-1.14-2.33-.37-1.9 2.02l.29 1.59c0 .32 1.42-.02 1.85-.45zm10.31-1.12c0-.19-.12-.51-.26-.73-.23-.35-.3-.35-.52 0-.42.63-.31 1.06.26 1.06.29 0 .52-.15.52-.33zm-4.98-.64c.66-.6.63-1.6-.05-1.81-.3-.1-.89-.1-1.32 0-.65.14-.79.3-.79.93 0 1.2 1.25 1.7 2.16.88zm32.32 3.6c-.98-.3-1.93-1.67-1.93-2.8 0-.43.26-1.31.6-1.96.47-.95.78-1.23 1.54-1.42 1.5-.37 2.25-.04 3.07 1.37l.74 1.25.14-1.06c.27-2 .81-2.2 2.15-.8.48.52.98.93 1.11.93.14 0 .65-.44 1.13-.99l.89-.99.49.58c1.06 1.24.9 6.06-.19 5.85-.32-.07-.45-.45-.5-1.6-.1-1.7-.42-1.92-1.33-.86-.73.83-.94.83-1.5-.04-.37-.54-.51-.61-.7-.33-.12.2-.23.67-.23 1.04s-.2.94-.43 1.27c-.33.47-.5.53-.79.29-.2-.17-.37-.48-.37-.68 0-.52-.28-.45-1.05.28-.82.78-1.72 1-2.84.66zm2.33-2.16c.4-.75.05-2.24-.63-2.71-.86-.6-1.35-.5-1.88.4-.4.66-.42.94-.16 1.7.16.51.48 1.03.7 1.15.6.34 1.65.05 1.97-.54zm-6.33 1.51c-.96-.8-1.29-.82-1.88-.09-.82 1-1.08.4-1.08-2.54 0-3.12.1-3.31 1.98-3.52 2.71-.3 3.92 2.3 1.93 4.17-.5.45-.49.48.3 1.04.45.32.82.81.82 1.1 0 .73-1.1.65-2.07-.16zm-.38-3.32c1.08-.38 1.26-.94.47-1.46-1-.66-1.58-.4-1.68.75-.09 1.08 0 1.13 1.21.7zm-20.18 1.8c-.24-2.63-.1-3.75.47-3.85.39-.08.46.11.46 1.18 0 .7.13 1.74.29 2.3.36 1.3.13 2.29-.54 2.29-.43 0-.52-.28-.68-1.92zm13.46 1.6c-.11-.19-.26-1.5-.31-2.92l-.11-2.57.71-.27a6.65 6.65 0 0 1 1.9-.27c1 0 1.18.07 1.1.46-.06.33-.34.46-.93.46-.96 0-1.8.7-1.58 1.29.09.22.55.44 1.03.48.67.07.87.21.87.62 0 .34-.2.55-.57.6-.41.06-.68.4-.93 1.18-.37 1.15-.82 1.51-1.18.94zm-10.74-2.53c-.18-3.64.35-4.04 2.38-1.8.48.52.96.94 1.08.94.11 0 .32-.5.45-1.12.16-.71.4-1.13.65-1.13.33 0 .4.47.4 2.65 0 2.27-.07 2.65-.45 2.73-.29.05-.6-.23-.9-.78a9.06 9.06 0 0 0-1.2-1.67c-.41-.44-.76-.9-.76-1.02s-.12-.14-.26-.05c-.15.09-.27.8-.27 1.58 0 1.63-.18 2.25-.66 2.25-.24 0-.37-.73-.46-2.58zm-202.98-4.71a7.48 7.48 0 0 1-.16-1.77c0-.89-.15-1.51-.44-1.84-.34-.37-.37-.56-.13-.8.17-.17.3-.49.3-.7 0-.26-.38-.03-1.03.6-.98.96-1.6 1.08-1.6.31 0-.2.18-.5.4-.7.27-.21.36-.56.26-.96-.12-.47.06-.82.74-1.47.48-.47 1.09-1.19 1.34-1.6.35-.56.59-.7 1-.56.37.11.5.07.37-.12-.32-.53-1.42-.31-2.2.43-.42.4-1.4 1.53-2.18 2.52-.78.98-1.57 1.78-1.75 1.78-.82 0-.57-.69.88-2.46 2.28-2.78 2.5-3.13 2.15-3.54-.6-.72-1.26-.3-3.17 2.03-1.88 2.29-2.61 2.84-2.61 1.97 0-.76.55-1.56 2.74-4 .9-1 1-1.24.85-2.06-.1-.51-.29-.93-.42-.93-.3 0-3.96 4.35-4.65 5.53-.55.93-1.43 1.1-1.43.3 0-.3.8-1.47 1.79-2.63 2.75-3.23 4.03-4.9 4.03-5.25 0-.18-.31-.53-.7-.78-.7-.46-.7-.45-1.58.59-.49.58-.89 1.2-.9 1.37 0 .17-.21.43-.47.57-.27.15-1.01 1-1.66 1.9-1.77 2.47-2.37 3.16-2.78 3.16-.2 0-.38-.22-.38-.48 0-.42.56-1.19 3.03-4.15 1.77-2.14 2.52-3.22 2.53-3.63 0-.61-1.25-.93-1.7-.44-.44.47-4.03 4.9-5 6.15-.79 1.04-1.77 1.3-1.77.47 0-.27.7-1.25 1.54-2.18 2.02-2.22 4.28-5.2 4.28-5.65 0-.19-.32-.42-.72-.5-.57-.12-.86 0-1.34.57-.84.98-4.1 5.3-4.67 6.2-.46.7-1.29.97-1.58.5-.14-.22.83-1.71 1.95-3.01.28-.33.79-.98 1.12-1.44l1.49-2.05.87-1.2-.53-.57-.52-.56-1.07 1.16a7.87 7.87 0 0 0-1.08 1.31c0 .09-.21.4-.46.7-.26.3-.94 1.22-1.53 2.05-1.36 1.96-1.89 2.52-2.38 2.52-.71 0-.41-1 .73-2.39.62-.75 1.5-1.86 1.97-2.47.46-.6 1.14-1.47 1.52-1.93.37-.45.68-1.02.68-1.25 0-.6-.91-.54-1.36.07-.2.27-1.04 1.33-1.87 2.35a27.82 27.82 0 0 0-2.08 2.87c-.86 1.53-1.87 2.14-2.19 1.3-.15-.38.95-1.92 2.93-4.11a7.67 7.67 0 0 0 1.13-1.43c0-.1.38-.67.85-1.25.7-.88.78-1.1.46-1.3-1.1-.7-1.7-.22-4.57 3.65-2.35 3.15-2.63 3.46-2.98 3.33-.68-.26-.39-1 1.08-2.72.8-.94 1.45-1.8 1.45-1.91 0-.11.55-.82 1.2-1.56 1.23-1.38 1.42-2.16.59-2.32-.44-.08-1.37.82-2.32 2.23-.21.32-.93 1.28-1.59 2.13-.65.85-1.4 1.87-1.65 2.27-.29.45-.6.66-.86.56-.51-.2-.5-1.02.02-1.61 1.94-2.21 6.46-8.4 6.46-8.87 0-.25-.04-.46-.1-.46-.06 0-.8.91-1.64 2.03a67.18 67.18 0 0 1-2.97 3.63c-.79.89-1.72 2.06-2.07 2.6-.66 1.06-1.32 1.29-1.6.57-.24-.63.52-1.84 2.46-3.94a70.84 70.84 0 0 0 4.8-5.77c1.31-1.68 1.8-3.09 1.06-3.09-.35 0-1.84 1.64-3.37 3.72-2.5 3.38-3 3.95-3.44 3.95-.26 0-.54-.17-.63-.39-.15-.4-.01-.6 3.56-4.8a43.8 43.8 0 0 0 2.77-3.5c.27-.46.6-.83.72-.83.31 0 .99-1.71.99-2.5 0-1.36-.46-.95-4.65 4.15-1.4 1.71-2.7 3.11-2.9 3.11-1.25 0-.46-1.5 2.62-4.96 5.1-5.74 4.93-5.48 4.93-6.95 0-.72-.12-1.32-.25-1.32-.33 0-4.13 4.91-4.66 6.02-.8 1.7-3.03 3.18-3.03 2.03 0-.66.5-1.44 2.22-3.47.89-1.05 1.97-2.4 2.4-2.99a59 59 0 0 1 2.02-2.53 5.83 5.83 0 0 0 1.39-2.43c.24-1.45.21-1.66-.23-1.66-.22 0-.4.11-.4.24s-.71 1-1.59 1.92c-.87.92-2.24 2.63-3.05 3.8-1.93 2.8-2.37 3.3-2.88 3.3-.93 0-.73-1.24.41-2.5a213.2 213.2 0 0 0 7.04-8.56c.75-1.06 1-2.1.68-2.75-.22-.45-3.51 3.81-3.51 4.55 0 .27-.44.78-3.47 4.05-1.4 1.53-2.1 1.79-2.1.8 0-.5.68-1.45 2.89-4.03.96-1.13 2.4-2.9 3.2-3.95.8-1.05 1.85-2.34 2.32-2.89.7-.8.86-1.21.86-2.17 0-1.35.14-1.45-2.2 1.48a15.26 15.26 0 0 0-1.5 2.07c0 .1-.67.93-1.47 1.82a26 26 0 0 0-2.19 2.75c-.77 1.22-.8 1.24-1.34.9-.6-.39-.16-1.36 1.48-3.26.84-.98 2-2.4 2.59-3.14.58-.75 1.39-1.75 1.79-2.23.4-.47.72-1 .72-1.15 0-.15.22-.43.48-.62 1.22-.9 2.15-3.3 1.44-3.75-.4-.24-1.2.6-1.06 1.11.1.36-.06.62-.5.86a20.3 20.3 0 0 0-2.82 3c-3.2 3.9-3.76 4.5-4.1 4.28a.71.71 0 0 1-.32-.54c0-.35 2.69-3.9 4.72-6.24.57-.65 1.35-1.66 1.74-2.24.39-.59 1.25-1.62 1.91-2.3.86-.88 1.18-1.4 1.11-1.85-.12-.9-.76-.75-1.46.31-2.44 3.73-6.87 9.05-7.44 8.94-.87-.16-.56-.94 1.16-2.87a43.55 43.55 0 0 0 2.4-2.9c.34-.5 1.17-1.57 1.82-2.37 2.86-3.51 3.86-5.45 3.07-5.94-.24-.15-2.2 2.02-3.1 3.42a12.9 12.9 0 0 1-1.1 1.45c-.32.37-.6.75-.6.85 0 .22-3.16 4.23-3.56 4.51-.49.35-.93.21-.93-.3 0-.27.5-1.08 1.12-1.78a63.52 63.52 0 0 0 3.18-3.93l1.07-1.49c.47-.67 1.42-1.97 2.11-2.88.7-.92 1.22-1.8 1.17-1.96-.05-.16-.5-.32-1-.37-.85-.07-1 .05-2.1 1.54l-1.71 2.33c-.3.4-1.27 1.57-2.16 2.61a13.26 13.26 0 0 0-1.82 2.5c-.37 1.17-1.45 1.42-1.45.34 0-.47.8-1.67 2.58-3.86 3.63-4.48 3.81-4.75 3.47-5.16-.32-.38-1.25-.46-1.7-.15-.15.1-.66.73-1.13 1.39-.47.65-1.62 2.14-2.55 3.3a42.06 42.06 0 0 0-2.31 3.11c-.66 1.07-1.02 1.21-1.53.6-.4-.47-.5-.3 2.55-4.04 3.11-3.82 3.21-4.1 1.63-4.44-.7-.15-.93-.08-1.35.44l-3.5 4.36c-.72.9-1.52 2.01-1.77 2.46-.26.48-.66.82-.96.82-1.01 0-.83-.77.58-2.44.77-.91 1.76-2.2 2.22-2.87.45-.66 1-1.36 1.24-1.55.5-.42.55-1.08.07-1.08-.77 0-2.58 1.12-3.15 1.94a82.94 82.94 0 0 1-3.8 4.87c-.57.65-.96.9-1.26.79-.7-.27-.52-.84.75-2.25a6.7 6.7 0 0 0 1.2-1.6c0-.14.08-.3.2-.35.3-.14 2.17-2.77 2.17-3.07 0-.3-.62-.6-1.28-.6-.4 0-1.72 1.58-3.94 4.74-.47.67-1.17 1.53-1.54 1.9-.38.38-.83.97-1 1.33-.18.35-.5.64-.71.64-.65 0-.59-1.04.12-1.86.36-.42.8-1.1.97-1.5.17-.41.4-.74.52-.74s.6-.54 1.04-1.2c.45-.65 1.11-1.5 1.46-1.88.73-.79.65-1.16-.26-1.16-.55 0-1.99 1.3-2 1.8 0 .1-.32.54-.72.98a51.4 51.4 0 0 0-3.39 4.23c-.96 1.42-1.54 1.99-2.03 1.99-.78 0-.54-1.06.46-2 .5-.48.92-1.04.92-1.24 0-.2.3-.66.68-1 .37-.36 1.07-1.24 1.56-1.97a18 18 0 0 1 1.4-1.86c.5-.52.5-.53-.12-.85-.86-.44-1.21-.24-2.28 1.33-.52.75-1.43 1.9-2.03 2.56-.6.66-1.4 1.67-1.79 2.25-.77 1.17-2.45 3.04-2.73 3.04-.1 0-.26-.19-.35-.42-.15-.4.67-2.07 1.11-2.27.3-.14 2.29-2.64 2.91-3.67.31-.52.81-1.17 1.1-1.43.7-.64.72-1.47.03-1.47-.48 0-1.87 1.22-1.87 1.63 0 .1-.15.34-.33.54-.29.3-3.07 3.74-3.77 4.66-.92 1.2-1.74 1.88-2.1 1.74-.23-.09-.41-.26-.41-.38 0-.4 1.3-2.18 2.9-3.98 1.62-1.82 2.92-3.59 2.92-3.98 0-.12-.3-.23-.65-.23-.5 0-.99.47-2.16 2.05-.83 1.13-1.7 2.2-1.92 2.38-.59.5-1.1.4-1.1-.18 0-.66 1.39-2.86 2.12-3.37.7-.5.46-.88-.56-.88-.43 0-1.02-.12-1.3-.27-.56-.3-.7-1.17-.23-1.46.16-.1 29.3-.22 64.76-.27 35.46-.06 68.7-.17 73.86-.26 5.17-.09 9.63-.15 9.92-.14 1.77.07 3.9.01 4.1-.1.13-.09.25-8.53.27-19 .02-10.37.06-21.33.08-24.36.05-5.03 0-5.54-.42-5.86-.27-.19-.7-.29-.97-.22-1.17.31-2.13-1.14-1.3-1.96.22-.23-.22-.8-1.72-2.24-1.11-1.07-2.02-2.1-2.02-2.27 0-.7.85-.25 2.91 1.53 1.98 1.7 2.83 2.12 2.48 1.2-.19-.5.37-.78.82-.41.58.48.67-.75.58-7.54-.1-6.9 0-8.58.54-8.79.2-.07.44-.06.53.03.15.15.11 16.02-.06 25.43-.15 7.76-.15 40.32 0 40.92.08.34.04 1.2-.1 1.91-.15.84-.15 1.57.03 2.06.18.53.17.99-.04 1.49-.36.89-.35.45-.31 11.06.04 9.54 0 9.89-1.47 11.26-.52.48-1.16.75-2.08.86-.72.09-8.94.22-18.25.3-9.32.07-17.36.23-17.88.35-.88.2-3.64 0-4.13-.31-.12-.07-.81.02-1.54.2-.87.23-1.54.26-1.96.1-.36-.13-3.63-.23-7.28-.21-3.65.02-9.2.03-12.32.02-3.13 0-6.02.05-6.42.13l-.73.15v4.94l1.1.18c1.2.2 36.6.2 69.55 0 11.71-.06 33.5-.12 48.42-.11a11062.4 11062.4 0 0 0 43.7-.05c12.26-.02 15.33-.1 15.56-.37.17-.21.26-1.28.21-2.69l-.08-2.34-1.32-.18c-1.3-.17-10.79-.22-39.42-.18-8 0-16.82 0-19.58-.03-2.77-.02-6.46-.03-8.2-.02-3.66.04-4.73-.32-5.47-1.8-.4-.79-.43-1.88-.34-10.05.06-5.05.17-24.64.25-43.54.08-18.9.2-34.46.27-34.56.06-.1.02-1.4-.08-2.87-.11-1.47-.11-2.92 0-3.2.26-.72.92-.69 1.15.05.14.45.21 24.87.08 28.78 0 .36 0 .9.04 1.19.03.29-.02 6.19-.11 13.1-.14 10.54-.1 12.66.2 13.09.3.4.3.57.04.83-.39.39-.74 13.3-.37 13.7.2.22 22.63.42 40.45.36 9.06-.02 28.61-.03 36.91 0 37.6.1 39.14.09 40.31-.32.84-.3 1.28-.33 1.66-.13.3.16 1.96.26 3.88.24 10.85-.13 12.96-.2 13.6-.37.4-.11.87-.1 1.06.02.47.3.99.32 8.34.35 4.86.02 6.5.11 6.76.37.18.2.6.49.93.66.88.48.74 1.4-.4 2.49a49.73 49.73 0 0 0-4.81 5.22c-2.3 2.92-2.88 3.38-3.34 2.63-.23-.37.18-.93 3.24-4.51 2.4-2.8 3.78-4.66 3.78-5.1 0-.09-.27-.16-.6-.16-1.02 0-6.28 5.41-7.48 7.7-.64 1.2-1.93 2.61-2.4 2.61-.26 0-.63-.55-.63-.94 0-.1 1.57-1.96 3.11-3.7l4.36-4.96c.6-.69.6-.72-.25-.72-.83 0-2.78 1.96-6.2 6.22-3.13 3.91-3.36 4.16-3.73 4.04-.56-.19-.56-1.06 0-1.5.29-.23 1.51-1.61 2.72-3.07 1.21-1.45 2.78-3.27 3.49-4.03 1.37-1.48 1.43-1.96.22-1.82-.92.1-1.74.66-2.49 1.7-1.03 1.4-4.5 5.34-4.71 5.34-.12 0-.4.33-.61.73-.78 1.43-2.12 2.75-2.6 2.57-.25-.1-.46-.27-.46-.37 0-.22 1.03-1.47 3.18-3.86 2.4-2.67 4.5-5.32 4.5-5.67 0-1.36-3.92 2.11-6.42 5.7-2.96 4.23-4.43 5.57-4.43 4.01 0-.65.75-1.63 4.39-5.79 3.54-4.04 3.81-4.59 2.14-4.27-.83.16-3.93 3.4-5.8 6.06-1.56 2.23-3.5 4.33-4.01 4.33-.81 0-.42-1.03.98-2.56a76.9 76.9 0 0 0 2.97-3.52 89 89 0 0 1 2.23-2.74c.85-.96.85-1.34-.02-1.44-.52-.06-.9.16-1.56.92-.48.56-1.74 1.96-2.8 3.13a67.8 67.8 0 0 0-2.67 3.09c-.84 1.1-3.5 4.37-4.7 5.79-6.41 7.55-7.75 9.4-7.18 9.97.32.32 1.05-.34 2.89-2.6 1-1.23 2.13-2.59 2.53-3.03.39-.43 1.11-1.35 1.6-2.05.5-.69 1.04-1.25 1.22-1.25.45 0 .62.55.36 1.23-.18.5-2.66 3.45-5.12 6.12-2.27 2.45-3.4 4.13-3.52 5.21-.07.62-.01 1.2.13 1.29.14.09 1.02-.7 1.95-1.75l2.18-2.45c.27-.29.94-1.12 1.49-1.85 1.7-2.27 2.35-2.86 2.76-2.53.44.37.25 1.24-.37 1.68-.6.43-3.69 3.96-6.05 6.92-1.5 1.86-1.9 2.55-1.9 3.24 0 .48.07.88.15.88.28 0 1.92-1.81 5.11-5.64 1.8-2.15 3.4-3.87 3.57-3.81.17.05.34.34.38.65.06.37-.52 1.2-1.85 2.63-2.9 3.14-3.7 4.08-3.6 4.18.04.05.4.17.78.27.62.15.86-.02 2.09-1.5 1.62-1.96 2.05-2.27 2.28-1.68.1.26-.19.92-.73 1.67-.94 1.33-6.17 7.34-6.62 7.61-.65.4-1.82 2.38-1.82 3.07 0 .41.1.75.21.75.27 0 2.67-2.7 4.82-5.42 2.34-2.96 3.07-3.67 3.55-3.49.57.22.52 1.06-.08 1.6-.28.26-.83.98-1.23 1.61-.4.64-.98 1.3-1.29 1.46a9.2 9.2 0 0 0-1.67 1.7c-.6.75-1.83 2.17-2.72 3.14-1.5 1.64-1.62 1.84-1.54 2.85.08 1.05.1 1.07.55.6 1.43-1.47 2.58-2.9 2.58-3.2 0-.18.17-.4.38-.48.21-.09 1.07-.98 1.9-2 1.11-1.36 1.64-1.81 2.06-1.76.37.06.58.3.63.79.06.54-.13.88-.86 1.45-.98.79-1.3 1.38-.45.85.6-.38 1.36-.13 1.36.43 0 .53-1.42 2.48-2.18 3.01-.7.48-1.94 1.82-4.18 4.53a146 146 0 0 1-2.86 3.36c-.68.76-1.94 2.29-2.82 3.4-.87 1.12-2.66 3.24-3.97 4.72-1.3 1.47-3.2 3.63-4.19 4.8-2.77 3.24-3.37 3.85-3.63 3.69-.4-.26-.27-.8.32-1.34.31-.28.77-.83 1.02-1.23.24-.4 1.43-1.8 2.64-3.12a65.95 65.95 0 0 0 2.94-3.37 20 20 0 0 1 1.38-1.65c.36-.36.87-1.01 1.14-1.45.28-.43.98-1.27 1.56-1.85.58-.59 1.83-2.01 2.78-3.17.94-1.16 2.02-2.4 2.38-2.78.73-.74 1.26-1.4 3.5-4.35 1.47-1.92 1.78-2.54 1.3-2.54-.24 0-3.84 3.98-4.67 5.16a33.5 33.5 0 0 1-2 2.36c-.8.89-2.37 2.74-3.48 4.13-2.15 2.67-2.57 3.19-4.68 5.69a234.1 234.1 0 0 0-6.6 8c-.62.84-1.69 2.08-2.36 2.78a8.51 8.51 0 0 0-1.64 2.36c-.22.6-.52 1.1-.67 1.11-.15 0-.35-.69-.46-1.55-.24-1.93-.5-2.23-1.2-1.35-.6.76-1.38.91-1.38.26 0-.23.48-.97 1.06-1.63 1.12-1.28 1.49-2.15 1.2-2.9-.13-.35-.58.01-2.16 1.73-1.1 1.2-2.1 2.1-2.24 2.02-.45-.28-.25-.93.48-1.6.4-.38.9-.95 1.12-1.29.22-.33 1.04-1.29 1.8-2.12 1.4-1.5 1.66-2.3.8-2.46-.47-.1-1.83 1.27-3.97 3.99-.72.9-1.55 1.85-1.84 2.1-.95.82-1.42-.05-.54-1a75.41 75.41 0 0 0 4.54-5.62c-.01-.4-.73-1.12-1.11-1.12-.22 0-.74.45-1.15 1-1.8 2.37-4.69 5.6-4.9 5.47-.45-.28-.22-.68 1.83-3.23a97.81 97.81 0 0 0 2.65-3.4c.58-.84.8-2.48.33-2.48-.14 0-.88.79-1.66 1.75-2.11 2.63-5.54 6.2-5.8 6.03-.56-.34-.13-1.28 1.2-2.56.77-.76 1.52-1.59 1.65-1.84a20.9 20.9 0 0 1 1.95-2.25c2.44-2.54 2.5-2.64 2.11-3.12-.52-.63-1.2-.46-1.92.47a28.9 28.9 0 0 1-1.55 1.8c-.5.52-1.6 1.88-2.48 3.02-1.86 2.43-2.77 3.36-3.14 3.24-.6-.2-.36-.7 1.22-2.58l1.98-2.37c.19-.22.7-.82 1.16-1.33.97-1.08 2.09-2.78 2.09-3.17 0-.72-1.14-.11-2.35 1.26-2.25 2.54-4.1 4.7-4.8 5.6-.83 1.07-1.54 1.49-1.92 1.11-.32-.31.96-2.18 2.42-3.56 1.18-1.1 4.26-5.19 4.26-5.64 0-.2-.24-.36-.54-.36-.62 0-2.51 1.96-5.6 5.82a19.58 19.58 0 0 1-2.48 2.75c-.62.24-.76-.61-.2-1.29l2.68-3.35c1.2-1.5 2.55-3.18 3-3.72.92-1.08.88-1.8-.11-1.8-.6 0-2.72 2.3-6.74 7.32-1.13 1.42-1.92 1.81-1.9.95 0-.25.51-1.08 1.12-1.83.62-.75 1.71-2.12 2.44-3.03.73-.92 1.77-2.16 2.32-2.76 1.73-1.92.94-2.84-.84-.97-2 2.12-3.94 4.46-4.34 5.24-.6 1.19-2.55 2.88-2.9 2.52-.46-.45.05-1.24 3.12-4.8a88.2 88.2 0 0 0 3.24-3.89c.47-.72.26-1.4-.42-1.4-.53 0-3.15 2.8-4.4 4.7-.41.62-.84 1.13-.97 1.13-.12 0-.71.65-1.32 1.45-1.08 1.44-2.09 1.93-2.09 1.03 0-.47 2.43-3.63 3.95-5.13.52-.52 1.17-1.29 1.44-1.72.28-.44.8-1.12 1.17-1.51.66-.7.66-.74.2-1.26-.82-.9-1.15-.76-2.66 1.19-.43.56-1.56 1.92-2.5 3.02-.95 1.1-1.8 2.12-1.92 2.27-1.54 2.03-2.17 2.43-2.5 1.58-.1-.25.5-1.12 1.67-2.41 1-1.1 2.56-2.92 3.47-4.03.9-1.11 2.19-2.65 2.84-3.42 1.13-1.33 1.2-1.48 1.2-3.02v-1.62l-.57.5c-.3.28-.92 1.05-1.37 1.7-.44.66-1.47 1.91-2.28 2.79-1.1 1.2-4.44 5.24-5.75 6.97-.16.2-.89-.57-.89-.95 0-.2.64-1.06 1.41-1.88.77-.83 1.7-1.88 2.05-2.33.35-.45 1.48-1.78 2.5-2.94 2.42-2.77 4.06-4.68 4.51-5.28.4-.52.52-2.73.15-2.73-.21 0-2.68 2.68-3.84 4.18-.3.4-.93 1.13-1.39 1.64-.9 1-2.34 2.89-3.04 3.97-.23.37-.74.84-1.14 1.05-.61.33-.74.33-.94 0-.3-.49-.2-.64 2.25-3.32a85.74 85.74 0 0 0 3.37-3.93l3.1-3.85c1.95-2.35 2.2-2.91 1.35-2.91-.29 0-.62-.18-.74-.39-.11-.21-.33-.3-.48-.2-.35.25-3.67 4.1-6.3 7.3-1.15 1.4-2.26 2.55-2.46 2.55-.54 0-.77-.82-.33-1.17a53.8 53.8 0 0 0 3.94-4.38c.66-.8 1.57-1.87 2.03-2.4 1-1.12 2.73-3.65 2.73-3.99 0-.13-.37-.23-.82-.23-.92 0-2 .98-4.92 4.5-2.98 3.6-3.42 4.05-3.72 3.87-.5-.3-.1-.94 2.77-4.36 1.5-1.8 2.73-3.49 2.73-3.77 0-.42-.2-.5-1.16-.5-1.1 0-1.22.07-2.3 1.51-1 1.3-1.71 2.17-3.03 3.61-.15.16-.9 1.1-1.68 2.08-1.38 1.76-2.16 2.24-2.15 1.32 0-.59.12-.76 1.72-2.6 1.96-2.24 4.35-5.24 4.36-5.47 0-.1-.35-.2-.78-.2-.79 0-1.81.9-3.63 3.2a20.9 20.9 0 0 1-1.16 1.36c-.23.23-1.06 1.26-1.85 2.3-1.03 1.35-1.6 1.88-2.03 1.88-.95 0-.72-.66.75-2.18.74-.77 2.02-2.27 2.85-3.34 2.45-3.2 2.3-2.91 1.58-3.18-.34-.13-.76-.16-.92-.07-.32.18-4.51 5.15-6.33 7.5-.6.77-1.28 1.44-1.52 1.48-.88.17-.45-.92 1.08-2.75 2.54-3.04 2.9-3.61 2.72-4.3-.15-.6-.22-.56-1.57.82-.78.8-1.6 1.75-1.85 2.11-.24.36-.8 1.06-1.26 1.55-.46.5-1.2 1.31-1.63 1.82-.68.79-.85.87-1.21.57-.54-.45-.36-.78 1.59-2.91.85-.93 1.78-2 2.08-2.37.29-.37 1.04-1.25 1.67-1.94.63-.69 1.07-1.38.98-1.53-.1-.15-.58-.28-1.08-.28-.67 0-1.08.2-1.51.7-.33.4-1.35 1.56-2.27 2.59a72.31 72.31 0 0 0-3.12 3.79c-.93 1.23-1.64 1.92-1.97 1.92-.91 0-.55-.75 1.67-3.45l3.2-3.87c1.2-1.48 1.01-1.93-.62-1.44-.91.27-1.62.96-4.8 4.67-2.04 2.4-3.88 4.35-4.09 4.35-.85 0-.28-1.27 1.42-3.2 2.94-3.34 4.56-5.3 4.56-5.52 0-.12-.32-.27-.72-.35-.6-.12-.93.07-1.92 1.1-.66.68-1.61 1.76-2.12 2.4-.5.63-1.41 1.7-2 2.39-.6.68-1.41 1.68-1.82 2.21-.78 1.02-1.39 1.24-1.64.59-.08-.23.51-1.16 1.5-2.32a440.8 440.8 0 0 0 4.09-4.9c.79-.96.73-1.25-.3-1.51-.62-.16-.89 0-2.06 1.26-.74.8-1.58 1.74-1.87 2.1-.3.36-1.1 1.28-1.78 2.03-.69.75-1.63 1.9-2.1 2.54-.88 1.24-1.8 1.58-1.8.66 0-.51.54-1.22 2.58-3.37.59-.6 1.4-1.56 1.8-2.11.4-.56 1.1-1.4 1.53-1.87.61-.65.73-.93.5-1.17-.21-.2-.49-.22-.82-.06-.48.23-2.7 2.7-3.9 4.34-1.04 1.4-4.25 4.76-4.56 4.76-.8 0-.08-1.57 1.4-3.07.3-.3.83-.9 1.2-1.32l2.18-2.54c1.3-1.49 1.8-2.33 1.43-2.33-.62 0-1.79.76-2.42 1.56l-3 3.75a27.87 27.87 0 0 0-2.45 3.35c-.23.6-1.37.86-1.68.37-.25-.4 1.45-2.62 4.76-6.22.15-.16.61-.75 1.03-1.3.88-1.17.69-1.56-.65-1.34-.78.13-1.23.54-2.84 2.57-2.47 3.1-5.4 6.26-5.82 6.26-.53 0-.38-.93.26-1.63.33-.36 1.19-1.36 1.9-2.23.72-.86 1.96-2.26 2.75-3.1 1.6-1.7 1.57-2.2-.07-1.89-.62.11-1.27.5-1.73 1.01-2.3 2.58-4.55 5.46-5 6.38a7.6 7.6 0 0 1-1.35 1.85c-.81.78-.85.78-1.22.28-.5-.7-.25-1.37 1.06-2.79.6-.65 1.42-1.6 1.8-2.12.4-.5 1.37-1.62 2.18-2.47 1.66-1.74 1.83-2.34.72-2.29-1.43.07-2.14 1.9-4.13 4.24-.15.17-.41.1-.41.24 0 .14-.21.45-.47.7-1.15 1.14-3.24 3.98-3.24 4.4 0 .54-.54.63-1 .16-.53-.53-.37-1.17.63-2.37l1.78-2.19c.46-.57 1.53-1.81 2.36-2.76a9.8 9.8 0 0 0 1.52-2.03c0-.62-1.73-.05-2.74.9-1.17 1.1-2.6 3.18-2.4 3.5.07.12-.25.41-.72.66-.9.47-1.79 1.37-1.8 1.85 0 .16-.25.5-.54.77-.29.26-.53.64-.53.84 0 .2-.27.47-.6.6-.73.28-1.42-.26-1.08-.85a94.5 94.5 0 0 1 5.25-6.4c.54-.47 1.27-1.74 1.1-1.91-.36-.37-1.47-.28-1.86.14-1.93 2.07-6.5 7.49-6.91 8.18-.6 1.02-1.45 1.16-1.45.24 0-.41 1.14-1.93 3.43-4.56a61.3 61.3 0 0 0 3.44-4.15c0-.1-.38-.2-.85-.2-.76.01-1.17.35-3.25 2.66a59.25 59.25 0 0 0-3.8 4.69c-1.5 2.16-1.95 2.58-2.56 2.34-.71-.27-.39-1.1 1-2.57 2.4-2.54 5.63-6.38 5.63-6.69 0-.16-.37-.33-.82-.38-.68-.06-.95.1-1.59.9a72.3 72.3 0 0 1-2.45 2.87 31.9 31.9 0 0 0-2.28 2.8c-.77 1.2-2.4 2.9-2.77 2.9-.66 0-.22-1.28.78-2.26a4.6 4.6 0 0 0 1.05-1.32c0-.16.38-.63.82-1.06.97-.92 3.69-4.2 3.69-4.44 0-.1-.41-.17-.9-.17-.67 0-1.14.22-1.8.87-.9.9-4.35 4.92-6.1 7.13-1.09 1.36-1.79 1.62-1.78.66 0-.38.97-1.64 2.67-3.5 1.47-1.6 3.02-3.35 3.44-3.9.76-.94.77-.98.26-1.25-.86-.46-1.05-.34-2.02 1.18a5.9 5.9 0 0 1-1.13 1.45c-.27 0-3.71 4.03-4.82 5.65-1.01 1.47-1.24 1.6-1.67.92-.35-.56.02-1.3 1.4-2.82.55-.6 1.3-1.48 1.67-1.96.37-.47 1.33-1.57 2.13-2.44.8-.87 1.4-1.68 1.33-1.79-.3-.49-1.94-.1-1.94.46 0 .19-1.05 1.5-2.32 2.91a56.06 56.06 0 0 0-3.17 3.8c-1.32 1.87-1.6 2.15-2.05 1.99-.79-.3-.41-1.17 1.44-3.28a301.7 301.7 0 0 1 4.1-4.6c1-1.09 1.1-1.35.66-1.63-.76-.46-2 .18-3.22 1.67-.69.83-1.64 1.95-2.12 2.49-.47.53-1.68 1.99-2.68 3.24a15.8 15.8 0 0 1-2.02 2.27c-.1 0-.34-.17-.52-.38-.25-.31-.11-.6.76-1.55a6.56 6.56 0 0 0 1.08-1.37c0-.2.28-.54 3.31-3.97 1.88-2.13 1.89-2.15 1.22-2.32-.76-.2-1.31.28-3.97 3.44-4.08 4.87-5.18 6-5.67 5.8-.65-.24-.55-.65.42-1.6.47-.46 1.2-1.31 1.64-1.9a27.4 27.4 0 0 1 1.98-2.27c1.35-1.37 2.4-2.73 2.4-3.1 0-.36-1.48-.51-1.9-.19-.39.3-5.56 6.22-7.05 8.06-.48.6-1.1 1.09-1.39 1.09-1.06 0-.46-1.11 1.9-3.58 1.7-1.75 4.47-5.12 4.47-5.41 0-.41-1.02-.58-1.6-.27-.58.31-1.9 1.7-3.12 3.27-2.59 3.35-5.42 6.47-5.76 6.34-.2-.08-.37-.3-.37-.5 0-.42 1.54-2.47 3.08-4.09 2.3-2.43 4.01-4.68 3.8-5.01-.45-.73-1.73-.03-3.2 1.75-.78.97-1.97 2.36-2.63 3.1-.66.75-1.51 1.77-1.9 2.28-1.39 1.88-2 2.46-2.43 2.3-.24-.1-.43-.32-.43-.5 0-.33 1.73-2.46 3.93-4.84 1.74-1.9 2.98-3.58 2.82-3.85-.1-.14-.5-.25-.92-.25-.61 0-1.12.4-2.62 2.05a49.42 49.42 0 0 0-2.46 2.9c-.34.46-1.19 1.58-1.89 2.47-.7.9-1.4 1.91-1.57 2.27-.37.83-1.1.7-1.2-.22-.06-.52.17-.98.86-1.7.51-.56.94-1.1.94-1.2 0-.11 1.13-1.51 2.51-3.12a26.14 26.14 0 0 0 2.51-3.19c0-.43-1.4-.28-1.98.2-1.27 1.09-6.63 7.63-7.25 8.85-.43.84-1.09 1.16-1.39.68-.38-.6-.25-.91.91-2.23.62-.7 1.36-1.64 1.64-2.08.27-.43 1.1-1.44 1.86-2.24 2.42-2.6 3-3.57 2.03-3.4-.45.08-4.31 4.35-7.7 8.51-1.47 1.8-1.94 2.03-2.09 1.04-.07-.51 1.22-2.08 6.47-7.83.88-.96 1.05-1.63.42-1.63-.43 0-6.16 6.27-7.97 8.72-.93 1.27-1.42 1.42-1.56.48-.05-.34.25-.91.8-1.48 3.07-3.26 6.29-7.15 6.29-7.6 0-.64-1.19-.13-2.35 1a119.7 119.7 0 0 0-6.91 8.27c-.5.71-1.46.85-1.46.2 0-.47.23-.77 3.2-4.24 1.24-1.46 1.7-2.2 1.57-2.52-.14-.37-.36-.25-1.28.76-2.2 2.4-3.81 4.37-4.21 5.14a5.53 5.53 0 0 1-.98 1.31c-.5.44-.61.46-.82.13a1.66 1.66 0 0 1-.25-.69c0-.42 1.75-2.64 4.59-5.78 3.8-4.2 3.5-3.83 2.96-3.83-.26 0-1.08.68-1.83 1.51-.75.84-2.31 2.53-3.48 3.77a32.53 32.53 0 0 0-3.01 3.66c-.87 1.37-1.4 1.63-1.57.76-.11-.6 2.6-4.14 5-6.52 1.29-1.3 2.47-2.9 2.27-3.1-.1-.1-.4-.06-.68.07-.74.35-4.22 4.3-6.69 7.59-1.17 1.56-2.23 2.84-2.35 2.84-.12 0-.33-.21-.47-.47-.27-.5.27-2.18.7-2.18.13 0 1.2-1.16 2.38-2.58a61.6 61.6 0 0 1 3.21-3.62c1.19-1.15 1.37-1.73.55-1.73-.65 0-2.5 1.64-3.34 2.96-.34.55-1.05 1.38-1.58 1.86a8.07 8.07 0 0 0-1.49 1.92c-.3.59-.7 1.16-.9 1.28-.2.12-.67.69-1.04 1.27-.73 1.15-1.32 1.51-1.75 1.08-.49-.49-.01-1.5 1.36-2.9a8.34 8.34 0 0 0 1.34-1.58c0-.2.37-.63 3.37-3.87 1.19-1.29 1.43-2.02.66-2.02-.42 0-1.22.68-2.65 2.27-1.1 1.21-5.27 6.37-5.7 7.05-.58.92-1.24.96-1.24.08 0-.6 1.38-2.43 3.07-4.06.35-.33.63-.69.64-.79 0-.1.62-.86 1.39-1.68l1.89-2.05.5-.56h-1.05c-1.26 0-1.68.39-5.66 5.3-3.72 4.57-3.68 4.54-4.02 4.43-.16-.06-.42-.3-.57-.54-.22-.34.04-.76 1.3-2.12a87.51 87.51 0 0 0 5.52-6.32c.44-.68.44-.71-.06-.87-.94-.3-1.74.15-2.95 1.63-.66.8-2.1 2.48-3.2 3.74a80.94 80.94 0 0 0-3.36 3.99c-.33.42-.66.58-.94.47-.68-.26-.52-1.07.39-1.92a20.3 20.3 0 0 0 1.81-2.1c.55-.73 1.34-1.68 1.76-2.12 1.06-1.1 2.75-3.2 2.75-3.4 0-.57-.89.12-2.39 1.87-.94 1.1-2.39 2.75-3.21 3.66-.83.9-1.8 2.13-2.18 2.72-.82 1.3-1.7 1.87-2.04 1.33-.13-.2-.23-.43-.23-.53-.01-.2 1.27-1.77 3.2-3.93 2.33-2.62 4.2-4.88 4.2-5.09 0-.44-1.12-.16-1.67.41-2.64 2.78-7.33 8.5-7.33 8.94 0 .13-.3.24-.66.24-1.26 0-.81-1.05 1.47-3.45a58.67 58.67 0 0 0 2.85-3.16c.39-.51 1.1-1.35 1.57-1.86.8-.85.82-.95.4-1.26-.77-.57-1.72-.13-3.15 1.47-2.42 2.7-5.77 6.62-6.26 7.31-.5.73-1.5.94-1.5.31 0-.3 3.07-4.4 3.67-4.92.82-.69 3.2-3.55 3.2-3.85 0-.7-1.01-.4-1.62.48-.34.47-.75.98-.92 1.13-.33.28-4.82 5.4-5.95 6.78-.65.8-1.3.87-1.3.14 0-.35 2.76-3.76 4.1-5.08 1.2-1.2 2.78-3.18 2.78-3.53 0-.16-.33-.3-.73-.28-.55.01-1.04.4-2.05 1.61-.73.88-1.58 1.88-1.9 2.23-.65.7-3.33 3.92-4.23 5.06-.48.61-.66.69-1.06.44-.26-.16-.48-.41-.48-.56 0-.15.98-1.34 2.18-2.64a59.2 59.2 0 0 0 2.94-3.41 14.1 14.1 0 0 1 1.46-1.67c.9-.83.88-1.08-.1-1.08-.62 0-.92.21-1.43 1-.35.54-1.32 1.7-2.15 2.57-.83.88-2.08 2.36-2.8 3.31-1.58 2.12-2.08 2.65-2.53 2.65-.79 0-.3-1.3 1.07-2.8.78-.86 1.5-1.8 1.6-2.1.1-.29.57-.83 1.07-1.2.94-.72 2.8-2.99 2.8-3.43 0-.81-1.43.35-3.06 2.5-.7.94-1.5 1.84-3.96 4.48-.44.47-1.06 1.17-1.39 1.57-.66.8-1.39.94-1.39.28 0-.43.62-1.22 3.01-3.81 2.01-2.17 4.13-4.67 4.13-4.86 0-.09-.28-.16-.62-.16-.57 0-2.36 1.76-3.6 3.55-.2.3-.95 1.16-1.65 1.9s-1.9 2.1-2.66 3.04c-.77.93-1.8 2.16-2.32 2.72-4.21 4.7-6.38 7.29-8.86 10.62a63.61 63.61 0 0 1-2.88 3.57c-.71.8-1.43 1.75-1.6 2.12a7.25 7.25 0 0 1-1 1.45c-1.76 2-2.85 3.36-2.85 3.55 0 .38-1.21.77-1.64.53-.3-.17-.63.02-1.24.7-.46.5-.95.91-1.1.91-.34 0-.33-1.24.01-1.45.15-.1.52-.73.83-1.4.3-.7 1.17-1.93 1.91-2.75a95.58 95.58 0 0 0 4.46-5.34c2.11-2.63 3.18-4.14 2.93-4.13-.73.04-2.56 1.35-3.18 2.28-.66 1-2.95 3.9-5.36 6.82-.51.62-1.29 1.58-1.72 2.13a71.74 71.74 0 0 1-4.55 5.21c-1.44 1.49-1.46 1.53-1.56 3.31-.12 2.12-.3 3-.62 3-.12 0-.3-.2-.39-.42zm223.7-5.34a92.98 92.98 0 0 0 5.65-6.68c1.45-1.92 2.36-3.05 5.45-6.75 2.35-2.8 3.43-4.21 3.43-4.47 0-.1-.68.18-1.52.64-1.58.86-2.77 2.17-9.93 10.92a144.82 144.82 0 0 1-3.77 4.47c-.73.78-.92 1.2-.92 2.05 0 .6.1 1.08.22 1.08s.75-.57 1.4-1.26zm-220.43-2.96c.16-.29 1.2-1.62 2.34-2.98 2.8-3.34 3.27-3.9 3.9-4.55.84-.85 2.3-3.09 2.14-3.25-.37-.38-1.46.28-2.34 1.43-.54.7-1.25 1.56-1.6 1.92-1.13 1.23-2.05 2.56-2.05 3 0 .25-.16.44-.37.44-.2 0-.95.69-1.66 1.53-1.88 2.22-2 2.4-1.81 2.7.28.45 1.16.3 1.45-.24zm218.73.07c-.1-.1-.17-.02-.17.18 0 .2.08.27.17.17.1-.1.1-.25 0-.35zm2.26-2c.6-.62 1.45-1.62 1.9-2.22.46-.6 1.75-2.23 2.88-3.63 2.58-3.2 2.66-3.68.44-2.55-.58.3-1.26.87-1.51 1.28a40.38 40.38 0 0 1-4.1 5.19c-1.71 1.85-1.93 2.71-.77 3.03.04.01.56-.49 1.16-1.1zm-213.45-.82c.77-1.14.86-1.45.26-.96a4.96 4.96 0 0 0-1.17 2c0 .26.12.12.9-1.04zm-8.29-.96c1.25-1.02 1.67-2.07 1.44-3.57-.26-1.72-1.3-2.53-3.24-2.53-1.19 0-1.62.13-2.3.7-1.6 1.33-1.92 2.9-.93 4.5a3.31 3.31 0 0 0 5.03.9zm220.85-1.17c1.44-1.3 1.75-3.06.82-4.57-.72-1.16-1.24-1.42-2.9-1.42-1.24 0-1.47.1-2.4 1.03-.94.93-1.03 1.16-1.03 2.42 0 1.24.1 1.48.92 2.26.51.48 1.2.92 1.53.99 1.03.2 2.42-.13 3.06-.7zm-209.48-1.65 3.15-3.97c2.85-3.57 4.03-5.16 3.9-5.28-.28-.29-1.5.62-1.61 1.2-.07.37-1 1.7-2.07 2.94a104.1 104.1 0 0 0-3.13 3.83c-.65.87-1.26 1.63-1.35 1.7a4.34 4.34 0 0 0-.77 1.48c0 .32.68-.37 1.88-1.9zm-7.43-1.16c.45-.63.48-.8.17-.8-.5 0-1.23.72-1.23 1.22 0 .6.45.43 1.06-.42zm-9.4-2c.7-1.08 2.56-1.78 4.11-1.57.71.1 1.43.34 1.6.55.17.2.44.37.6.37.15 0 .52.23.82.51.54.5.57.5 2.14-.16.87-.36 1.76-.8 1.98-.99.22-.18 1.32-.71 2.44-1.2a10.95 10.95 0 0 0 2.35-1.23c.17-.2.51-.37.77-.37.25 0 .6-.16.76-.36.17-.2 1-.61 1.85-.92.84-.31 2.03-.92 2.64-1.36l1.1-.8.05-3.5a59.7 59.7 0 0 0-.04-5.76c-.04-.5-.05-4.65-.04-9.2.02-4.98-.08-8.48-.23-8.77-.18-.34-.16-.72.08-1.25.25-.55.33-2.62.32-7.9l-.01-7.14H59.3c-10.68 0-19.53.07-19.68.16-.16.1-.3 4.45-.36 11.64-.1 12.06-.35 25.86-.52 29.53-.13 2.48-.16 2.44 2.92 3.97.87.43 2.54 1.28 3.7 1.9 1.16.6 2.77 1.34 3.57 1.64.8.3 1.64.7 1.85.9.51.44 3.48 1.96 3.88 1.97.16.01.5-.3.75-.67zm229.49-.86c.39-.27 1.46-.87 2.38-1.35a41.87 41.87 0 0 0 4.14-2.3c.28-.2.65-.37.81-.37.17 0 1.3-.6 2.53-1.33a28.1 28.1 0 0 1 3.08-1.64c.47-.17.93-.53 1.01-.8.1-.28.22-8.8.29-18.94.06-10.14.14-18.79.16-19.23.02-.43.01-1.63-.02-2.67-.05-1.66-.12-1.9-.65-2.14-.56-.25-9.22-.23-9.89.03-.16.06-.75.01-1.31-.12-.67-.15-1.13-.13-1.36.06-.25.2-.53.21-.96.01-.38-.17-1.85-.22-3.9-.13a97.99 97.99 0 0 1-5.2.12c-2.83.1-7.84.07-11.05-.07-2.18-.1-4.07-.08-4.2.04-.13.12-.27 3.76-.3 8.1-.14 16.07-.4 33.05-.53 33.95-.07.5-.04 1.05.07 1.22.28.4 7.45 3.8 8.01 3.8.12 0 .96.46 1.89 1.02.92.56 2.5 1.47 3.49 2.02l1.8.99.71-.68a5.86 5.86 0 0 1 4.15-1.5c1.4 0 1.56.08 2.72 1.2.69.64 1.29 1.18 1.34 1.18.05 0 .4-.2.79-.47zm-202.33-8.7c.93-1.13 2.1-2.48 2.62-2.99.52-.5 1.16-1.28 1.43-1.7.26-.43 1.21-1.55 2.1-2.51 1.24-1.33 1.51-1.76 1.16-1.83-.25-.04-.61.01-.8.13-.45.27-2.9 3.05-4.3 4.87-.58.76-1.3 1.63-1.58 1.95-1.45 1.56-2.8 3.32-3.03 3.95-.25.65-.23.69.22.44a15.8 15.8 0 0 0 2.18-2.32zm-1.48-1.34c.3-.26.89-.94 1.3-1.52.42-.58 1.15-1.44 1.63-1.9a8.7 8.7 0 0 0 1.4-1.86c.28-.55 1.12-1.6 1.86-2.32 1.2-1.18 1.68-2 1.14-1.98-.4.01-5.62 5.78-5.62 6.2 0 .11-.6.89-1.32 1.73-1.23 1.42-1.6 2.12-1.13 2.1.11 0 .44-.2.74-.45zm.69-6.33c.49-.61 1.84-2.2 3-3.54 2.36-2.7 2.6-3.16 1.67-3.16-.42 0-.79.27-1.1.8-.42.72-.98 1.41-2.1 2.64-.2.22-.6.75-.86 1.2-.27.43-.89 1.18-1.37 1.66-.47.48-.87 1.1-.87 1.4 0 .71.5.4 1.63-1zm1.81.12c0-.37-.5.03-.83.67-.3.58-.3.58.27.08.3-.28.56-.62.56-.75zm1.74-2c.41-.54 1.21-1.46 1.78-2.04.97-.97 1.67-2.18 1.42-2.43-.06-.06-.77.76-1.58 1.82l-2.17 2.8c-.38.46-.58.85-.44.85.13 0 .58-.44 1-1zm-4.34-.23c.27-.24.49-.6.49-.78 0-.19.14-.44.33-.55.55-.36 2.58-2.7 2.58-2.99 0-.46-1.28-.3-1.64.21-.2.27-.54.55-.78.64-.23.09-.75.74-1.15 1.44-1.13 2.01-1.04 3.13.17 2.03zm10.4-.55c.35-.4 1.18-1.33 1.84-2.05a6.15 6.15 0 0 0 1.2-1.66c.02-.73-1-.26-1.98.93a16.1 16.1 0 0 1-1.64 1.74c-.58.46-.79 1.23-.43 1.59.27.26.31.24 1-.55zm211.1-.67c2.96-3.43 2.83-3.24 2.34-3.54-.5-.31-.85-.04-2.8 2.27-1.1 1.3-1.6 2.66-.98 2.66.13 0 .78-.62 1.43-1.39zm-211.9-1.92c.4-.52.67-1.07.61-1.24-.1-.32-2.05 1.5-2.05 1.92 0 .56.77.2 1.44-.68zm50.55-.06c.76-.86.84-1.4.2-1.38-.59.01-1.49 1.22-1.29 1.72.2.54.36.49 1.1-.34zm117.42-.33c.19-.72-.3-.96-.83-.42-.39.39-.39.47-.04.69.57.36.71.32.87-.27zm-176.82-.94c0-.07-.42-.12-.93-.12-.72 0-.92.1-.92.49 0 .78.29.85 1.1.28.41-.3.75-.6.75-.65zm158.87.35c.5-.72.52-1 .06-1-.49 0-1.55 1.04-1.36 1.34.27.43.87.27 1.3-.34zm-146.83-9.77c.58-.75 1.62-2 2.3-2.76.68-.77 1.44-1.7 1.68-2.08.52-.8 1.18-.9 1.18-.18 0 .5-.72 1.46-3.27 4.37-1.15 1.32-1.39 2.01-.67 2.01.36 0 1.14-.83 4.84-5.11.71-.83 1.45-1.5 1.65-1.5.7 0 .35.96-.72 2-1.33 1.3-3.15 3.63-3.15 4.04 0 .57 1.08.31 1.75-.42a68.78 68.78 0 0 0 4.26-5.18c.4-.73.97-.74 1.08-.02.05.38-.49 1.15-1.72 2.48-2.3 2.46-2.92 3.4-2.4 3.59.78.3 1.82-.46 3.7-2.7a81.82 81.82 0 0 0 2.54-3.2c.65-.91 1.29-1.1 1.53-.47.14.36-.56 1.29-3.4 4.46a4.7 4.7 0 0 0-.99 1.44c-.02 1.14 2.33-.92 5.02-4.39 1.56-2.01 1.84-2.23 2.39-1.9.42.27-.07 1.11-1.57 2.73-.51.56-1.12 1.28-1.34 1.6-.22.32-.76.93-1.2 1.36-.7.7-.73.8-.3.88.6.12 2.1-1.4 6.16-6.27.48-.58.63-.62.99-.32.38.32.37.42-.15 1.18-.32.45-.94 1.2-1.39 1.64-1.35 1.35-3.12 3.58-2.97 3.73.41.41 1.58-.34 2.98-1.92 3.59-4.04 3.72-4.17 4.18-4 .54.21.3.8-.83 1.96-1.87 1.94-2.98 3.4-2.98 3.9 0 .08.29.15.64.15.46 0 1-.44 1.92-1.52 4.16-4.98 5.11-5.84 5.11-4.6 0 .47-3.1 4.34-4.02 5-.26.2-.47.53-.47.74 0 .88 1.06.25 2.79-1.64l2.11-2.32c.15-.16.54-.67.87-1.14.63-.9 1.53-1.34 1.94-.94.15.15-.54 1.12-1.82 2.56a155.75 155.75 0 0 0-2.69 3.09l-.63.77h1.26c1.17 0 1.34-.1 2.35-1.23.6-.68 1.55-1.84 2.1-2.58.57-.74 1.33-1.68 1.71-2.08.73-.77 1.65-.97 1.65-.36 0 .4-2.46 3.5-3.88 4.88-.96.94-.95 1.37.02 1.37.45 0 1.03-.54 2.17-2.02 2.6-3.37 3.8-4.6 4.5-4.6.92 0 .77.55-.46 1.74-1.36 1.3-3.94 4.5-3.94 4.86 0 .16.1.28.23.28.33 0 1.97-1.54 2.94-2.77.46-.59 1.49-1.75 2.28-2.58 1.4-1.5 2.22-1.91 2.22-1.14 0 .37-1.58 2.32-3.22 3.96-.43.42-1.01 1.1-1.3 1.52l-.54.75h1.03c1.16 0 1.74-.47 4.56-3.68 2.2-2.5 2.68-2.95 2.95-2.78.53.33.1 1.07-2.02 3.5a26.97 26.97 0 0 0-2.25 2.76c0 .1.28.2.62.2.7 0 1.66-.75 2.74-2.15 1.4-1.8 3.6-4.33 3.94-4.54.22-.13.45-.01.63.33.24.45.06.76-1.34 2.24-2.69 2.84-3.46 4.12-2.48 4.12.73 0 1.6-.77 3.19-2.83 1.7-2.2 1.8-2.31 3.63-4a5.44 5.44 0 0 0 1.24-1.4c0-.15 1.1-1.49 2.45-2.97a113.35 113.35 0 0 0 4.59-5.32c.81-.82 1.2-2.58.65-2.92-.3-.18-.82.35-4.19 4.3a29.39 29.39 0 0 1-2.74 2.97c-.67 0-.35-.78 1-2.43.85-1.04 2.12-2.61 2.82-3.5.7-.88 1.43-1.7 1.63-1.8.6-.35 1.53-2.05 1.35-2.5-.14-.38-.24-.36-.8.16-.35.33-.76.52-.92.42-.16-.1-.28-.02-.28.17 0 .38-1.67 2.37-4.04 4.82-1.15 1.18-1.6 1.5-1.83 1.28-.23-.23-.05-.6.73-1.45a60.6 60.6 0 0 0 3.47-4.25c.67-.9.56-1.35-.26-1.09-.64.2-4.35 3.95-5.54 5.59-.86 1.19-1.47 1.57-1.86 1.18-.35-.35.2-1.26 1.71-2.86 1.99-2.08 2.98-3.52 2.65-3.85-.33-.32-1.4.65-3.27 2.96-.65.8-1.53 1.82-1.96 2.27a24 24 0 0 0-1.24 1.39c-.53.66-1.26.77-1.26.2 0-.59 1.37-2.46 3.3-4.5.95-1 1.72-1.99 1.72-2.18 0-.76-1.04-.29-2.01.9-.57.7-1.57 1.86-2.24 2.59-.67.72-1.7 1.84-2.28 2.49-.75.82-1.19 1.11-1.5 1-.58-.23-.34-.7 1.16-2.3a43.6 43.6 0 0 0 1.94-2.25c.45-.58 1.04-1.3 1.3-1.57.25-.29.46-.67.46-.86 0-.48-1.77-.46-2.04.03-.11.2-1.1 1.36-2.2 2.57-4 4.43-3.9 4.35-4.25 4.01-.36-.36.3-1.32 3.14-4.56.91-1.05 1.59-2.02 1.5-2.16-.17-.27-1.21-.06-1.44.3-.22.34-4.3 5.04-5.2 5.99-.46.48-.97.88-1.13.88-.78 0-.07-1.28 2.1-3.75 1.3-1.5 2.38-2.87 2.38-3.06 0-.68-1.27-.34-2 .52-.76.92-4.1 4.65-5.07 5.67-.66.7-1.14.8-1.14.25 0-.36 1.64-2.5 3.41-4.45 1.52-1.67 1.75-2.08 1.32-2.35-.67-.43-.97-.25-2.29 1.41a58.5 58.5 0 0 1-2.54 2.98l-1.79 1.92c-.6.65-1.29.79-1.27.26.01-.58.62-1.44 2.11-3.02 2.8-2.95 3.35-3.8 2.49-3.8-.45 0-1.23.75-2.9 2.77l-1.84 2.24c-1.15 1.4-2.21 2.4-2.52 2.4-.9 0-.34-1 2.03-3.7 2.88-3.27 3.22-3.88 2.03-3.59-.41.1-.94.39-1.17.63-.77.81-3.54 4.22-4.21 5.18-.66.95-1.59 1.29-1.59.58 0-.44 2.8-4.24 3.8-5.16.78-.71.91-1.34.29-1.34-.77 0-1.34.49-3.32 2.8-3.36 3.94-3.84 4.44-4.17 4.24-.51-.32-.34-.81.65-1.9.52-.57 1.22-1.46 1.55-1.97.34-.5.98-1.27 1.44-1.7.92-.87 1.06-1.47.33-1.47-.29 0-1.12.82-2.08 2.05-.88 1.13-2.3 2.8-3.16 3.73-1.3 1.4-1.62 1.62-1.88 1.3-.25-.3-.2-.54.27-1.15.62-.82.7-.92 3.17-3.82 1.63-1.92 1.74-2.11 1.14-2.11-.65 0-1.73.6-1.73.95 0 .19-.8 1.21-1.79 2.28a34.07 34.07 0 0 0-2.45 2.92c-.43.65-.86.99-1.25 1-.82 0-.76-.64.16-1.53.8-.78 4.27-5.02 4.27-5.23 0-.07-.27-.13-.6-.13-.34 0-.82.3-1.12.72-.3.4-.83 1.06-1.2 1.48-.35.43-1.02 1.2-1.48 1.74-2.64 3.07-2.96 3.36-3.17 2.84-.1-.27-.08-.64.05-.82l1.83-2.33c2.52-3.18 2.91-3.88 2.04-3.68-.44.1-1.02.7-2.02 2.05-.43.57-1.12 1.4-1.54 1.84-.41.43-1.12 1.36-1.56 2.05-.5.77-1 1.26-1.31 1.26-.85 0-.57-.74 1.02-2.7a51.99 51.99 0 0 0 2.1-2.74c.33-.48.71-.95.86-1.04.46-.28.32-.67-.24-.67-.28 0-.9.49-1.38 1.08-.49.6-1.5 1.76-2.26 2.58-.77.83-1.4 1.58-1.4 1.68 0 .45-1.42 1.8-1.87 1.8-.7 0-.64-.49.14-1.3.35-.37.92-1.06 1.25-1.52.34-.47 1.19-1.57 1.89-2.45.7-.88 1.2-1.72 1.1-1.87-.16-.27-1.91 1.52-3.35 3.42-1.98 2.6-3.01 3.73-3.45 3.73-.62 0-.6-.42.07-1.28l1.12-1.48c.32-.42 1.02-1.25 1.54-1.85 1.08-1.22 1.68-2.24 1.45-2.47-.32-.33-1.61.66-2.9 2.23-1.34 1.63-2.01 2.05-2.01 1.26 0-.58.64-1.75 1.3-2.34.8-.73.7-1.22-.25-1.22-.43 0-.79.1-.79.21 0 .12-.68 1-1.52 1.95-.84.96-2.12 2.53-2.85 3.49-1.28 1.7-2.24 2.25-2.24 1.3 0-.26.89-1.54 1.98-2.85 2.55-3.07 2.89-3.54 2.66-3.77-.24-.24-2.58 2.23-4.6 4.88-.88 1.14-2.02 2.55-2.53 3.13-.9 1.03-2 2.38-3.34 4.1-.36.47-1.04 1.27-1.52 1.79-.47.5-.85 1.18-.85 1.49 0 .44.34.2 1.58-1.16a10 10 0 0 0 1.58-2.02c0-.17.46-.71 1.01-1.21.56-.5 1.28-1.3 1.61-1.75.67-.94 1.36-1.11 1.36-.34 0 .5-1.28 2.26-2.9 4-1.55 1.63-3.19 3.62-3.19 3.84 0 .12-.23.47-.5.77-.29.3-.6.87-.7 1.27-.25 1.03.38.95 1.13-.13.32-.48 1.02-1.34 1.55-1.92.53-.58 1.43-1.68 2-2.44 1.27-1.7 2.34-2.4 2.34-1.52 0 .36-1.12 1.93-2.45 3.43-2.35 2.67-3.9 4.82-3.9 5.43 0 .88 1.32-.44 5.37-5.4 1.06-1.28 1.43-1.47 1.67-.84.1.23-.76 1.5-2.12 3.19a25.06 25.06 0 0 0-2.27 3.05c0 .44.69.28 1.2-.28.27-.3.63-.48.81-.41.4.15.77-.29.99-1.17.22-.92 3.27-4.23 3.9-4.23.95 0 .52.85-1.48 2.94-1.88 1.98-2.39 2.96-1.65 3.22.44.15 1-.07 1-.4 0-.29.46-.9 3.06-3.98.95-1.12 1.84-2.05 1.98-2.05.7 0 .49.9-.46 1.93-1.43 1.55-3.27 4.01-3.27 4.38 0 .17.11.3.25.3.24 0 .9-.72 4-4.42.98-1.18 1.8-1.92 2.12-1.92.28 0 .51.09.51.2 0 .38-1.13 2.05-1.63 2.4-.83.58-3.15 3.5-2.99 3.77.36.57 1.13.16 2.11-1.12zm-1.99-14.27c0-.63 1.9-2.85 2.45-2.88.43-.02.16.88-.6 2-.76 1.09-1.85 1.6-1.85.88zm49.79 14.86c.35-.28 1.35-1.36 2.22-2.42.86-1.05 2.06-2.46 2.66-3.13 5.43-6.06 6.72-7.7 6.72-8.56 0-1.17-1.6.18-3.96 3.32-.64.85-1.4 1.74-1.71 1.99-.3.24-.78.8-1.06 1.23-.27.43-1.23 1.57-2.11 2.53-4.53 4.93-4.97 5.55-3.9 5.55.27 0 .79-.23 1.14-.5zm4.52-1.74c2.64-3.07 3.74-4.37 3.96-4.7.16-.25.27-.23.47.07.51.78.54.74-2.28 3.88-1.85 2.05-2.28 2.66-2 2.84.26.16 1.78-1.38 2.72-2.75.71-1.04 1.76-2.04 2.36-2.24.22-.08.52-.36.66-.62.87-1.6 1-1.92.84-2.08-.1-.1-.4.02-.66.27-.27.24-.63.43-.8.43-.6 0-.3-.86.75-2.04a5.07 5.07 0 0 0 1.06-1.55c0-.78-.57-.59-1.61.54-.6.66-1.34 1.2-1.62 1.2-.38 0-.47.13-.35.5.1.35-.1.72-.72 1.26-.47.42-1.28 1.3-1.79 1.95-.5.65-1.62 1.99-2.46 2.97-.85.97-1.48 1.89-1.4 2.02.34.53 1.28-.1 2.87-1.95zm49.98 1.65c.23-.18.96-1.06 1.63-1.95 1.78-2.36 3.9-4.62 4.18-4.45.56.35.1 1.2-1.88 3.42-1.17 1.3-2.12 2.52-2.12 2.7 0 .64 1.3.36 2.24-.47.52-.45.94-.95.94-1.1 0-.43 4-4.73 4.32-4.62.64.21.35.76-1.68 3.22-1.2 1.45-2.1 2.78-2.05 3.02.15.7 1.32.38 2.05-.57.37-.47 1.47-1.78 2.45-2.93a35.4 35.4 0 0 0 2.02-2.48c.26-.47 1.1-.28 1.09.25a9 9 0 0 1-1.49 2.06c-2.14 2.5-2.89 3.67-2.55 4 .53.54 2.02-.56 4.13-3.03a63.2 63.2 0 0 0 2.41-2.93c.21-.32.5-.44.78-.34.52.2.31.74-.7 1.78-.34.36-1.19 1.4-1.88 2.33-.94 1.25-1.19 1.76-.98 2.01.38.46 1.64.3 2.04-.26.18-.24.78-.94 1.35-1.54.56-.6 1.52-1.77 2.14-2.6 1.21-1.6 1.83-2.02 2.06-1.4.1.23-.33.92-1.04 1.72-.66.73-1.63 1.93-2.15 2.65l-.95 1.33.6.22c1.07.4 1.13.35 5.07-4.44 1.47-1.78 2.2-2.21 2.47-1.44.05.18-.47.91-1.17 1.64-1.5 1.56-3.26 3.73-3.26 4.03 0 1.1 2.76-.18 4.11-1.91.58-.74 1.43-1.78 1.9-2.3.47-.54.86-1.06.86-1.16 0-.1.26-.33.57-.5.88-.46 1.28.14.55.83-.32.3-.59.62-.59.73 0 .1-.72.95-1.59 1.88-1.58 1.7-2.07 2.93-1.15 2.93.75 0 2.18-.82 2.64-1.52.91-1.4 4.18-5.09 4.5-5.09.76 0 .62.64-.46 2.06-.62.83-1.67 2.09-2.32 2.79-.88.94-1.1 1.33-.84 1.48.67.42 1.31-.05 3.02-2.19 2.26-2.84 3.52-4.14 4.01-4.14.73 0 .41.86-.86 2.28-3.45 3.88-3.56 4.07-2.3 4.07.37 0 .86-.37 1.33-1 1.4-1.84 4.45-5.09 4.8-5.09.92 0 0 1.55-2.5 4.23-1.42 1.52-1.43 1.86-.05 1.86 1.24 0 1.38-.13 5.1-4.63 1.64-1.98 2.11-2.3 2.38-1.6.08.22-.54 1.22-1.5 2.41-3.15 3.92-3.24 4.12-1.46 3.5.7-.26 1.55-1.08 3.3-3.25 1.5-1.85 2.54-2.91 2.86-2.91.94 0 .7.6-.98 2.55-2.07 2.4-2.88 3.54-2.66 3.76.1.1.68.17 1.3.17.97 0 1.21-.12 1.73-.86a44 44 0 0 1 1.8-2.3 44.53 44.53 0 0 0 2.22-2.77c.44-.6 1.24-.4 1.24.31 0 .27-.47.94-1.04 1.5-1.08 1.05-3.09 3.8-2.9 3.97.12.12 1 .22 1.59.18.24-.02.94-.7 1.56-1.53.62-.82 1.98-2.46 3.02-3.63 1.04-1.18 2.87-3.34 4.06-4.8 1.2-1.45 2.86-3.44 3.7-4.42 1.5-1.76 2.23-3.18 1.98-3.84-.33-.87-1.33.01-4.42 3.9-1.76 2.2-3.23 3.7-3.64 3.7-.41 0-.2-.93.39-1.69.32-.42 1.19-1.43 1.92-2.25a48.8 48.8 0 0 0 2.48-3.03c.63-.86 1.61-2 2.18-2.55 1.43-1.39 1.31-2.38-.28-2.38-.5 0-.6.1-4.1 4.23-2.66 3.15-3.29 3.77-3.62 3.56-.48-.3-.21-.97.9-2.18.62-.68 1.48-1.72 1.91-2.3.43-.58 1.1-1.4 1.51-1.83.85-.89.9-1.1.3-1.33-.72-.27-1.22.06-2.67 1.78l-2.38 2.82c-2.24 2.65-2.63 3.01-3.09 2.84-.56-.22-.25-.88 1.14-2.45 4.18-4.71 4.27-4.88 2.74-4.88-1.07 0-1.76.57-4.02 3.31-1.85 2.24-3.81 4.12-4.06 3.88-.43-.43.3-1.42 4.24-5.85.65-.73.75-1.2.31-1.48-.3-.18-3.02 2.48-5.62 5.5a9.69 9.69 0 0 1-1.78 1.79c-.78 0 .03-1.4 2.3-4 1.76-2.02 2.46-3 2.27-3.19-.58-.58-1.5.21-4.21 3.64-2.18 2.74-2.95 3.55-3.43 3.55-1.14 0-.67-.88 2.02-3.8 1.46-1.57 2.65-3.03 2.65-3.23 0-.26-.3-.38-.9-.38-.73 0-1.13.24-2.1 1.26a31.9 31.9 0 0 0-2.55 2.97l-1.56 1.79c-1.37 1.6-1.94 1.95-2.29 1.38-.18-.3.8-1.6 3.5-4.65 1.99-2.25 2.1-2.75.62-2.75-.84 0-1.12.13-1.4.63-.18.35-.95 1.33-1.7 2.19a81.23 81.23 0 0 0-3.2 3.73c-.42.52-.92.86-1.3.86-.84 0-.77-.3.38-1.68l2.58-3.08c.87-1.05 1.62-2 1.67-2.12.04-.12-.2-.3-.53-.41-.52-.17-.89.1-2.54 1.9a98.32 98.32 0 0 0-3.3 3.73c-1.29 1.58-2.31 2.14-2.31 1.26 0-.22 1.07-1.68 2.38-3.23 1.31-1.56 2.34-2.96 2.3-3.11-.05-.15-.4-.3-.76-.35-.52-.07-.93.22-1.89 1.32l-3.12 3.59c-1.04 1.2-2.05 2.18-2.24 2.18-.77 0-.64-.64.38-1.8 2.56-2.94 4.1-5.1 3.81-5.38-.15-.16-.5-.21-.78-.13-.46.15-2.92 2.76-5.6 5.94-.63.75-1.3 1.37-1.5 1.37-.77 0-.66-.6.31-1.68 2.7-3 4.06-4.74 4.06-5.2 0-.15-.28-.27-.62-.27-.6 0-1.27.66-4.87 4.75-2.02 2.29-2.98 2.92-2.98 1.97 0-.33 3.62-4.63 4.53-5.4.09-.07.3-.4.47-.72.28-.54.25-.6-.29-.6-.84 0-1.75.68-3.27 2.43l-2.71 3.1c-.78.9-1.58 1.62-1.79 1.62-.76 0-.35-1.12.9-2.46 2.96-3.17 3.75-4.1 3.75-4.38 0-.17-.34-.3-.75-.3-.74 0-2.12 1.37-6.1 6.08-.9 1.08-1.88 1.4-1.88.63 0-.47.7-1.32 3.48-4.28 1-1.06 1.81-2.1 1.81-2.32 0-.59-1.01-.45-1.66.23a96.37 96.37 0 0 0-5.25 5.92c-.8 1.22-1.83 1.45-1.81.4 0-.25 1.13-1.72 2.51-3.28 1.38-1.55 2.5-2.95 2.5-3.1 0-.5-1.28-.3-1.58.24-.15.29-.54.8-.87 1.14-.32.34-1.52 1.71-2.67 3.05-2.02 2.34-3.08 3.02-3.07 1.97 0-.26.96-1.54 2.13-2.85 2-2.24 2.86-3.44 2.6-3.67-.05-.06-.5-.04-.98.03-.97.15-1.28.44-4.15 3.94a17.15 17.15 0 0 1-2.4 2.58c-.48.19-.9 0-.9-.4 0-.28 1.59-2.26 3.25-4.04 1.38-1.47 1.64-1.98 1.12-2.18-.23-.08-.68.03-1 .25-.93.64-3.13 2.87-4.38 4.45-.62.78-1.96 2.37-2.99 3.54a148.11 148.11 0 0 0-3.46 4.1c-.88 1.1-1.8 2.16-2.07 2.38-.56.47-.92 2.65-.43 2.65.28 0 3.46-3.56 7.02-7.85.64-.78 1.33-1.41 1.52-1.41.72 0 .3.97-1.1 2.63-.8.94-1.46 1.8-1.46 1.9 0 .1-.23.27-.51.36-.28.09-.96.78-1.5 1.54a47.8 47.8 0 0 1-2.53 3.11c-1.58 1.8-1.92 2.78-1.17 3.4.3.25.56.11 1.29-.7 1.36-1.49 4.71-5.4 5.58-6.51.79-1.01 1.75-1.3 1.75-.53 0 .25-.8 1.29-1.78 2.32a92.02 92.02 0 0 0-2.68 2.93l-1.79 2.05c-.49.55-.9 1.11-.9 1.26 0 .55 1.38.25 1.95-.43.31-.37 1.18-1.35 1.93-2.18.75-.82 1.8-2.03 2.35-2.69.55-.65 1.13-1.19 1.29-1.19.58 0 .28 1-.57 1.95-1.76 1.95-3.77 4.4-3.77 4.6 0 .1.4.2.9.2.72 0 1.06-.2 1.66-.95.41-.52 1.24-1.44 1.83-2.05.6-.6 1.49-1.66 1.98-2.35.9-1.23 1.84-1.66 1.84-.84 0 .48-1.14 2-2.9 3.9-1.4 1.5-1.69 1.93-1.47 2.3.23.36 1.28.32 1.76-.08zm-44.69-1.63c1.5-1.67 1.89-2.53 1.15-2.53-.41 0-3.6 3.48-3.6 3.93 0 .76 1.07.15 2.45-1.4zm97.66.83c1.83-1.92 2.82-3.06 2.82-3.27 0-.13.46-.71 1-1.3a92.7 92.7 0 0 0 2.08-2.38l2.44-2.9c1.26-1.49 1.9-2.86 1.5-3.25-.2-.2-1.88 1.53-3.45 3.52a89.11 89.11 0 0 1-3.95 4.63c-.47.5-1.4 1.67-2.1 2.57-.68.9-1.4 1.74-1.6 1.85-.2.12-.43.48-.54.8-.29.94.8.77 1.8-.27zm5.27-1.98c2.62-3.21 3.87-4.87 4.38-5.8.36-.65.26-1.4-.17-1.4-.13 0-1.05.98-2.06 2.18-1 1.2-2.12 2.48-2.49 2.84-1.1 1.1-3.67 4.6-3.53 4.83.07.1.45.2.84.2.58 0 1.13-.52 3.03-2.85zm1.15 2.65c.17-.11.97-1.02 1.79-2.02 1.17-1.43 1.49-2.01 1.49-2.73 0-.55-.12-.88-.3-.82-.44.15-4.7 5.35-4.56 5.57.16.25 1.2.25 1.58 0zm3.23-.53c.1-.65-.2-.77-.7-.28-.47.48-.38 1.06.15.96.26-.05.5-.35.55-.68zm44.44-4.63c2.72-3.11 3.19-3.67 5.25-6.2 2.3-2.83 4.45-5.4 6.24-7.45 1.74-1.98 2.19-3.01 1.43-3.3-.42-.16-1.6 1.03-4.11 4.19a61.6 61.6 0 0 1-2.58 3.04c-.48.5-1.68 1.94-2.66 3.17-.98 1.24-2.3 2.8-2.93 3.48-2.2 2.36-3.42 4.37-3.12 5.15.08.2.18.37.24.37s1.06-1.1 2.24-2.45zm2.2-6.41c.55-.73 1.61-2.04 2.34-2.91.73-.88 2.04-2.5 2.91-3.61a50.66 50.66 0 0 1 1.95-2.39c.62-.62 1-1.5.72-1.67-.31-.2-2.13.54-2.13.87 0 .13-.96 1.35-2.14 2.72-3.83 4.43-6.66 7.8-7.85 9.34-.58.75-.78 2-.39 2.39.21.22 2.92-2.58 4.58-4.74zm-114.92-2.52c1.78-2.1 3.62-4.25 4.1-4.75 1.23-1.32 2.05-2.46 2.05-2.85 0-.2-.33-.33-.86-.32-.72.01-1.07.27-2.17 1.6-.72.88-1.63 1.78-2.03 2.02-.4.23-.87.7-1.05 1.04-.18.34-.43.62-.56.62-.12 0-.33.26-.46.6-.12.32-1.07 1.58-2.1 2.8a16 16 0 0 0-1.9 2.51c-.01.17-.07.54-.13.83-.05.3-.03.76.05 1.04.2.6.34.45 5.06-5.14zm-108.52 3.9c.74-.76 1.98-2.28 2.76-3.37.79-1.09 1.62-2.16 1.86-2.38a40.6 40.6 0 0 0 3.68-4.48c.43-.82.03-1.2-.86-.8-.37.18-1.07.87-1.54 1.54-.48.68-1.72 2.18-2.75 3.34a42.67 42.67 0 0 0-2.52 3.05 23.3 23.3 0 0 1-1.65 2.06c-.63.7-.97 1.3-.88 1.55.08.22.15.5.15.64 0 .5.46.2 1.75-1.15zm222.75-4.97c.58-.74 1.18-1.49 1.33-1.66 1.89-2.2 3.54-4.54 3.34-4.75-.32-.32-1.83.01-2.09.46-.25.43-3.1 3.69-4.17 4.76-1.8 1.81-2.24 2.62-2.24 4.14v1.43l1.39-1.52c.76-.83 1.86-2.12 2.44-2.86zm-223.37 1.8c.36-.47.95-1.16 1.3-1.54.34-.37 1.1-1.32 1.68-2.11a87.6 87.6 0 0 1 2.2-2.89c1.07-1.31 1.17-1.96.21-1.42-.35.2-3.74 3.84-5.14 5.52-.82.98-1.38 2.1-1.38 2.76 0 .77.37.67 1.13-.32zm106.33-1.98a21.64 21.64 0 0 1 2-2.27c.71-.44 3-3.53 3-4.05 0-.6-1.24-.42-2.38.36-.58.4-1.05.83-1.06.96-.01.36-2.58 3.44-3.18 3.8-.43.28-.53.62-.53 1.8 0 .8.1 1.45.24 1.45.14 0 1-.93 1.91-2.05zm116.45-3.92c1.57-1.87 1.8-2.41 1.13-2.67-.43-.16-1.9.65-2.53 1.41-1.49 1.78-2.38 3.92-1.94 4.64.19.3.6-.12 3.34-3.38zM81.53 106.7c.37-.4 1.07-1.32 1.57-2.04.5-.73 1.06-1.5 1.26-1.7.31-.34.3-.42-.13-.57-.75-.27-1.02-.08-2.58 1.83-1.64 2-2.13 3.21-1.3 3.21.28 0 .8-.33 1.18-.73zm106.22-2.82c.63-.85 1.08-1.66 1-1.78-.08-.12-.47-.23-.87-.23-1.4 0-2.86 2.43-2.31 3.86.23.59.7.2 2.18-1.85zm-124.66.34c10.3-.03 14.96-.12 15.28-.33.26-.16.47-.57.47-.9v-.63l-8.53.03c-4.7.02-8.71.03-8.93.02-2.5-.08-21.48.25-21.68.38-.32.2-.38 1.28-.08 1.58.1.11 2.1.13 4.43.04 2.33-.09 10.9-.17 19.04-.2zm236.21-.98c.14-.14.2-.52.16-.86l-.09-.6-19.38-.03-19.38-.02v.82c0 .45.05.87.1.93.24.24 38.35 0 38.6-.24zm2.3-.28c.7-.98.69-1.09-.11-1.09-.37 0-.67.15-.67.34 0 .18-.07.6-.16.92-.23.84.29.75.94-.17zm-220.7.02c.05-.17-.09-.31-.32-.31a.42.42 0 0 0-.42.42c0 .46.57.38.74-.1zm69.9-.7a.13.13 0 0 0-.13-.14.13.13 0 0 0-.13.13c0 .07.06.13.13.13.08 0 .14-.06.14-.13zm140.5 63.22c0-.22 1.28-1.92 2.85-3.77s3.15-3.78 3.5-4.3c.36-.5 1.54-1.97 2.64-3.26 3.08-3.62 6.35-7.7 6.35-7.91.01-.37 1.08-.2 1.23.2.22.55-.45 1.48-2.65 3.7-1.05 1.05-3.6 4.04-5.7 6.64-6.95 8.66-8.22 10-8.22 8.7zm-217.96-1.95c-.28-.17-.28-.35-.03-.91.18-.39.41-.7.52-.7.11 0 .77-.8 1.46-1.8.69-.97 1.8-2.43 2.48-3.23.67-.8 1.78-2.25 2.47-3.22.68-.98 1.4-1.93 1.59-2.12.19-.2 1.2-1.48 2.25-2.86 2.52-3.34 3.59-4.5 4.11-4.5.86 0 .42 1.07-1.21 2.92a85.98 85.98 0 0 0-3.3 4.04 155.42 155.42 0 0 1-5.15 6.48c-.67.8-1.63 2.1-2.11 2.86-.49.77-1.03 1.4-1.2 1.41-.17 0-.35.27-.4.58-.1.7-1.02 1.34-1.48 1.05zm224.31-1.33c0-.55.37-1.18 1.26-2.18a60.59 60.59 0 0 0 5.06-6.21c.57-.86 1.45-2.03 1.97-2.61.79-.9 1-1.01 1.41-.76.33.2.47.57.42 1.1-.03.45.11.93.33 1.12.68.56.44 1.24-1 2.82-.77.85-2.03 2.29-2.8 3.2-1.1 1.29-1.5 1.6-1.77 1.37-.4-.33-.25-.88.46-1.8.58-.76.61-1.1.12-1.1-.2 0-.58.32-.84.71-.74 1.14-4.17 5.11-4.4 5.11-.12 0-.22-.34-.22-.77zm7.62-6.71c1.19-1.21 1.33-1.51.73-1.51-.45 0-2.26 1.84-2.26 2.31 0 .57.38.37 1.53-.8zm-228.02 5.67c0-.27.42-1.02.93-1.66.51-.63 1.76-2.23 2.76-3.54 1.01-1.3 2.4-2.97 3.07-3.69.68-.71 1.5-1.92 1.84-2.68.34-.77.86-1.52 1.15-1.68.78-.41 1.62-.35 1.81.15.22.57-.18 1.17-1.13 1.7-.5.28-.74.6-.7.94.04.3-.18.66-.55.9-.8.5-3.44 3.6-6 7a38.28 38.28 0 0 1-2.24 2.85c-.5.35-.94.21-.94-.3zm3.88-1.8c-.2-.2.37-1.14 1.42-2.32l2-2.27c.72-.8 1.62-1.86 2-2.36.61-.78.78-.86 1.13-.57.23.2.42.48.42.65 0 .16-.84 1.19-1.86 2.27a15.82 15.82 0 0 0-1.84 2.2c0 .1-.5.74-1.1 1.39-1 1.1-1.74 1.44-2.17 1zm82.06-33.9c-1-.07-1.42-.26-2.15-.98-1.1-1.1-1.25-2.21-1.1-7.8.1-3.92.28-26.38.54-65.1.08-11.86.25-21.66.37-21.79.13-.12.38-.14.55-.03.26.16.29 4.12.14 18.1-.22 21.3-.22 52.08 0 52.42.08.14.66.25 1.3.25.96 0 1.16-.1 1.29-.6.22-.89.29-39.47.07-39.83-.1-.17-.07-.53.09-.82.28-.53.64-19.76.51-27.8-.04-2.4-.07-10.2-.07-17.33 0-13.3.07-14.16 1.03-14.16.54 0 .71.95.55 2.99-.09 1.1-.03 1.82.14 1.93.16.1.96-.5 1.79-1.32.82-.81 1.59-1.48 1.7-1.48.65 0-.08 1.3-1.68 2.96-1.84 1.92-2.4 2.93-1.92 3.42.27.26 3.15-2.5 4.06-3.88.95-1.46 3.76-4.1 4.35-4.1.86 0 .94.72.95 8.85 0 4.4.1 7.03.27 7.03.43 0 2.24-.99 2.6-1.43.44-.52 1.6-.55 1.6-.04 0 .2-.42.63-.93.95-.52.32-.9.63-.85.68.06.06 1.03-.08 2.16-.3 1.13-.2 2.9-.39 3.95-.39 1.04 0 2.3-.11 2.8-.26.5-.14 2.83-.34 5.17-.43 3.8-.16 4.29-.13 4.62.27.22.27.27.54.13.68-.26.25-3.79.56-6.3.54-.86 0-2.43.17-3.5.4-1.07.21-2.63.39-3.47.38-4.69-.03-5.36 0-5.36.2 0 .11.34.37.77.55.9.4 1.19.96.7 1.37-.28.23-.5.17-.9-.28-.49-.51-3.21-1.66-3.43-1.44-.05.05-.14 3.82-.2 8.38-.14 8.83-.25 11.44-.5 11.84-.08.14-.06.31.05.38s.18 4.93.15 10.8a6229.6 6229.6 0 0 0-.07 31.84l.04 3.7c.07 4.06.07 4.4-.04 5.3-.05.44-.07 2.97-.05 5.62l.04 4.83h1.26c.69 0 1.42-.11 1.63-.25.41-.26.46-4.51.58-49.3.06-22.78.08-23.13 1.04-22.54.23.14.27 5.27.13 20.47-.1 11.15-.22 32.25-.28 46.9-.07 15.57-.22 26.89-.36 27.27a4.25 4.25 0 0 1-2.75 2.17c-1.05.16-11.49.32-13.21.2zm3.85-1.99a80.87 80.87 0 0 0 4.65-5.4c.4-.55 1.56-1.89 2.56-2.98 3.53-3.81 4.07-4.6 4.07-5.86 0-.65-.12-1.02-.33-1.02-.18 0-.9.78-1.62 1.72-1.1 1.46-2.6 2.77-3.16 2.77-.37 0 .27-1.03 1.56-2.51 2.73-3.14 3.55-4.41 3.55-5.48 0-.55-.11-1-.25-1-.15 0-.83.7-1.53 1.56-1.2 1.48-5.83 6.74-9.46 10.74a88.76 88.76 0 0 0-5.44 6.53c-.24.44.28 1.27.8 1.27.38 0 1.23-.87 3.48-3.57 4.04-4.85 6.38-7.27 7.02-7.27.5 0 .47.08-.5 1.25-.48.57-1.16 1.44-1.52 1.93-.62.84-4.13 4.87-5.9 6.78-.9.96-.77 1.41.38 1.41.57 0 1.05-.26 1.64-.87zm4-.25a356 356 0 0 0 2.09-2.4c.6-.7 1.82-2.07 2.7-3.04.89-.98 1.81-2.06 2.05-2.42.46-.68.62-2.66.22-2.66-.12 0-.83.69-1.57 1.52-.73.84-2.24 2.46-3.34 3.6-1.1 1.15-2.01 2.17-2.01 2.26 0 .1-.66.92-1.46 1.85-1.17 1.34-1.4 1.75-1.16 2.04.57.69 1.46.42 2.49-.75zm4.2-.4c2.66-2.83 3.08-3.48 3.08-4.72 0-.64-.09-1.16-.2-1.16-.48 0-6.21 6.72-5.95 6.98.09.09.55.16 1.02.16.69 0 1.1-.26 2.05-1.26zm2.13.45c1.13-1.35.85-1.84-.37-.65a5.3 5.3 0 0 0-1.06 1.25c0 .49.8.15 1.43-.6zm-12.2-6.4a7.05 7.05 0 0 0 1.25-1.46c0-.12.45-.69 1-1.27.54-.57 2.43-2.7 4.18-4.74 4.24-4.92 4.87-5.64 5.75-6.57.44-.47.65-.88.5-1.02-.33-.33-1.53.24-1.81.87-.22.47-1.29 1.7-5.12 5.9a193.1 193.1 0 0 0-5.55 6.37c-.6.73-1.78 2.08-2.61 3-1.8 2.03-2 2.33-1.78 2.88.13.34.48.08 1.54-1.13.76-.87 1.95-2.13 2.64-2.82zm-.54-2.58c1.3-1.53 3.02-3.48 3.8-4.33 1.55-1.7 1.6-1.8 1.06-2.26-.55-.46-.96-.16-2.6 1.9-.84 1.06-2.45 3.04-3.58 4.43-1.38 1.68-2.08 2.76-2.12 3.28-.07.76-.06.77.5.26.3-.27 1.63-1.75 2.94-3.28zm-1.72-1.4a76.8 76.8 0 0 1 2.25-2.61c.62-.68 1.72-1.93 2.45-2.77.73-.85 2.04-2.32 2.9-3.28 3.07-3.35 3.35-3.73 3.5-4.64.11-.68.05-.91-.23-.91-.41 0-3.3 3.05-6.37 6.75a90.73 90.73 0 0 1-3.65 4.1c-1.87 1.94-2.63 3.05-2.63 3.86 0 .54.2.91.5.89.09-.01.66-.63 1.28-1.4zm.64-4.48c1.07-1.2 2.33-2.59 2.8-3.09.47-.5.86-.99.86-1.1 0-.1 1.49-1.84 3.3-3.86 2.18-2.4 3.32-3.86 3.32-4.26 0-.33-.1-.6-.21-.6-.26 0-2.6 2.41-2.74 2.81a49 49 0 0 1-3.18 3.57 73.36 73.36 0 0 0-5.78 6.7c-.77.99-1.05 2-.56 2 .13 0 1.11-.97 2.19-2.17zm8.7-2.78c.8-.99 1.71-2.06 2.04-2.4.67-.68.78-1.38.23-1.38-.48 0-3.75 3.23-4.49 4.43-.18.3.27 1.1.64 1.12.08 0 .8-.8 1.59-1.77zm-9.27.08c2.01-2.47 5.63-6.52 9.72-10.89.77-.81 1.39-1.7 1.39-1.98 0-1-.4-.72-2.65 1.87-.94 1.09-1.95 2.23-2.24 2.54-.3.32-1.3 1.5-2.25 2.65-.95 1.14-2.39 2.8-3.2 3.67-1.66 1.8-2.36 2.75-2.36 3.23 0 .54.6.13 1.59-1.09zm-.6-2.25a4.5 4.5 0 0 0 .86-1.32c0-.39-.85-.36-1.4.05-.49.35-.95 2.31-.55 2.3.13 0 .62-.47 1.1-1.03zm5.01-5.74c.85-.97 2.6-2.9 3.88-4.3 2.34-2.55 3.06-3.58 2.73-3.92-.18-.17-1.85 1.5-5.86 5.88-2.6 2.84-2.76 3.05-2.77 3.63-.02.8.44.51 2.02-1.3zm-.87-1.97c.38-.3 1.98-2.06 3.54-3.9a149.2 149.2 0 0 1 3.43-3.96c.57-.59.83-1.65.4-1.65-.12 0-.4.21-.62.47l-2.1 2.33-2.62 2.91-2.05 2.29c-1.56 1.7-1.56 2.74.02 1.5zm4.2-7.65a54.07 54.07 0 0 1 2.63-2.97c.28-.25.58-.89.66-1.42.15-.9.13-.95-.37-.68-.3.15-.73.59-.97.96-.25.37-1.07 1.31-1.83 2.1s-1.98 2.12-2.7 2.96c-.73.85-1.59 1.79-1.9 2.1-.65.61-1.03 1.78-.74 2.25.21.35 1.82-1.29 5.21-5.3zm-3.11.22c1.02-1.2 2.78-3.19 3.93-4.44 2.6-2.83 2.9-3.3 2.69-3.97-.19-.58-.37-.66-.81-.34-.24.17-3.24 3.54-4.75 5.33a32.78 32.78 0 0 1-3.09 3.42c-.27.1-.3 2.16-.02 2.16.1 0 1.03-.98 2.05-2.16zm1.32-2.87c.1-.15.22-.26.28-.26.07 0 .12.11.12.26 0 .15-.13.26-.28.26-.16 0-.2-.11-.12-.26zm-1.04-1a1462.47 1462.47 0 0 0 5.86-6.36c.19-.2.34-.76.34-1.27 0-.82-.05-.89-.52-.64-.28.15-.67.5-.86.77-.18.27-.93 1.15-1.66 1.95-.73.8-1.92 2.15-2.65 3-.73.83-1.5 1.71-1.73 1.95-.83.88-1.31 1.73-1.31 2.32 0 .33.09.6.2.6.1 0 1.16-1.04 2.33-2.32zm-1.25-1.86c2.87-3.03 5.81-6.44 6.75-7.83.77-1.12.9-1.75.35-1.75-.32 0-3.95 3.76-5.64 5.83-.41.5-.81.98-.89 1.05-.96.94-1.85 2.27-1.85 2.8 0 .85.4.82 1.28-.1zm.87-4.35c.95-1.05 2.01-2.27 2.36-2.7.98-1.17 3.17-3.64 3.88-4.36.5-.5.59-.8.45-1.45a3.6 3.6 0 0 0-.3-.94c-.15-.17-4.34 4.29-7.19 7.65-.93 1.1-1.17 1.6-1.23 2.54-.05.65 0 1.18.12 1.18.1 0 .97-.86 1.91-1.92zm1.03-5.14c2.64-3 2.4-2.75 4.16-4.64.93-1 1.39-1.73 1.39-2.18 0-.93-.36-.85-1.38.3-.48.54-1.29 1.42-1.8 1.95-3.2 3.34-5.22 5.77-5.34 6.4-.26 1.37.68.8 2.97-1.83zm-.73-2.28c5.23-5.82 6.26-7.17 6.27-8.2 0-.9-.04-.97-.5-.73-.27.15-.89.78-1.37 1.4a96.2 96.2 0 0 1-5.4 5.85c-.93.95-1.45 1.87-1.45 2.57 0 1.46.5 1.27 2.45-.9zm-.93-2.9c.6-.62 2.12-2.31 3.4-3.77a42.67 42.67 0 0 1 2.75-2.96c.43-.3 1.27-3.13 1-3.4-.12-.12-1.28 1.08-4.47 4.64-3.7 4.12-4.2 4.81-4.2 5.72 0 .5.1.9.22.9s.7-.51 1.3-1.13zm.04-3.65 2.42-2.72c4.01-4.47 4.75-5.42 4.75-6.1 0-.69-.02-.7-.75-.31-.42.21-.97.72-1.24 1.13a23.9 23.9 0 0 1-2.05 2.37c-.86.9-1.76 1.91-1.99 2.25-.22.34-.93 1.18-1.56 1.86-.72.79-1.14 1.5-1.14 1.92 0 .96.47.83 1.56-.4zm.68-4.22c.73-.9 2.97-3.32 4.14-4.48.53-.52 1.33-1.49 1.8-2.15.73-1.06.81-1.35.66-2.32-.1-.6-.24-1.1-.31-1.1-.2 0-4.07 4.17-5.3 5.7a64 64 0 0 1-2.14 2.5c-1 1.1-1.08 1.29-.98 2.38l.13 1.3c.03.17 1.37-1.06 2-1.83zm-1.28-3.11c.16-.1.74-.73 1.29-1.39.54-.65 1.9-2.2 3.03-3.44 3.44-3.78 3.71-4.14 3.71-4.86 0-.38-.1-.7-.24-.7-.14 0-.88.73-1.65 1.62-.78.9-2.14 2.36-3.03 3.27a35.8 35.8 0 0 0-2.38 2.69c-.42.56-.91 1.18-1.1 1.38-.35.37-.45 1.63-.13 1.63.11 0 .34-.1.5-.2zm.68-4.19c.58-.52 1.74-1.74 2.59-2.7.84-.98 2.19-2.48 3-3.34.86-.92 1.5-1.86 1.56-2.31.06-.41.03-.75-.07-.75-.3 0-3.43 3.15-5.24 5.29a53.3 53.3 0 0 1-2.45 2.72c-.67.65-1.08 2.04-.6 2.04.1 0 .64-.43 1.21-.95zm.02-3.02c.2-.29 1.35-1.59 2.56-2.9 1.2-1.3 2.45-2.72 2.78-3.16.32-.45.9-1.06 1.3-1.36.56-.45.7-.77.7-1.73 0-.64-.1-1.17-.22-1.17-.2 0-3.69 3.66-6.81 7.15-.72.8-1.4 1.5-1.5 1.54-.12.05-.2.55-.2 1.12 0 .85.09 1.04.5 1.04.3 0 .69-.24.9-.53zm-.07-3.98c.25-.37 3.86-4.37 5.62-6.26 1.6-1.7 1.78-2.01 1.78-2.97 0-.6-.1-1.08-.22-1.08-.2 0-1.4 1.23-4.67 4.77-3.36 3.63-3.84 4.25-3.84 4.98 0 .41.07.82.16.9.18.18.96-.05 1.17-.34zm1.47-5.7c.86-.97 2.46-2.71 3.55-3.87 2.07-2.19 2.34-2.6 2.37-3.58.03-1.05-.65-.65-2.66 1.57-1.07 1.19-2.82 3.06-3.87 4.17-1.68 1.75-1.91 2.12-1.92 3 0 .89.05.97.48.74.27-.14 1.2-1.05 2.05-2.03zm3.42-7.39c2.02-2.2 2.4-2.75 2.46-3.61.17-2-.92-1.18-6.97 5.34-1.7 1.83-2.16 3.14-1.38 3.93.36.35.7.02 5.9-5.66zm-4.49.34c.55-.62 1.9-2.1 3-3.29 3.64-3.9 4.1-4.53 3.95-5.33-.06-.32-.82.31-2.65 2.2-4.98 5.13-5.75 6.04-5.75 6.81-.01 1 .29.92 1.45-.4zm.68-3.96c.64-.77 2.14-2.41 3.33-3.65 2.82-2.93 3.26-3.52 3.26-4.34 0-.76-.54-.92-1.1-.32l-2.32 2.45-3.52 3.7c-1.09 1.1-1.64 1.92-1.8 2.62-.43 1.92.3 1.77 2.15-.46zm.26-4.14a196.3 196.3 0 0 0 6.13-6.75c.27-.42.25-1.7-.03-1.86-.23-.15-3.99 3.53-5.11 5-.34.44-.8.97-1.04 1.19-1.65 1.54-2.72 3.52-2.18 4.06.33.32.53.18 2.23-1.64zm.68-4.45c1-1.12 2.68-2.97 3.73-4.12 1.61-1.74 1.92-2.22 1.92-2.99 0-1.77-.4-1.45-6.87 5.5-1.24 1.34-1.43 1.69-1.54 2.88-.12 1.29-.1 1.33.4 1.06.3-.16 1.36-1.2 2.36-2.33zm2.8-7.18c2.4-2.52 2.58-2.8 2.58-3.78V8.43l-.72.57a61.7 61.7 0 0 0-4.63 4.9c-.26.3-.95 1.06-1.52 1.67-1.02 1.1-1.74 2.77-1.4 3.3.08.14.82-.45 1.63-1.3l4.07-4.3zm.13-3.9c1.98-2.19 2.86-3.52 2.54-3.84-.18-.18-.65.15-1.42 1-.63.7-2.4 2.6-3.94 4.24-2.57 2.73-3.4 4-2.97 4.44.16.16 2.55-2.25 5.8-5.84zm-2.66-.13a85.6 85.6 0 0 0 3.13-3.56 43.9 43.9 0 0 1 1.4-1.68c.63-.67.87-1.32.55-1.52-.28-.17-6.32 5.81-6.32 6.26 0 .1-.41.7-.92 1.3-1.04 1.24-1.31 2.42-.42 1.8.27-.2 1.43-1.36 2.58-2.6zM334.78 111.5c-.1-.24.01-.73.23-1.1.6-.98 3.7-4.03 4.1-4.03.74 0 .32 1.31-.82 2.56-.65.7-1.5 1.67-1.88 2.14-.77.94-1.38 1.1-1.63.43zM37.04 98.32c-.91-.33-2.12-1.73-2.12-2.46 0-.9 1.11-2.48 2.1-2.99 1.18-.6 2.54-.7 2.73-.2.22.6-.1 1-.85 1-.4 0-1.06.25-1.46.56-.62.49-.7.71-.57 1.5.18 1.12.5 1.36 1.83 1.37 1.17 0 1.59.61.82 1.2-.6.45-1.26.46-2.48.02zm236.96.17c-.1-.08-.16-.49-.16-.9 0-.87-.77-1.18-2.25-.9-.68.12-.96.34-1.08.8-.2.76-.65.97-1.7.76-.9-.18-1.18-.47-1.43-1.5-.16-.68-.26-.73-1.29-.65-1 .07-1.12.15-1.2.8-.1.87-.9 1.42-1.33.92-.17-.22-.18-.48-.03-.73.14-.21.25-1.11.25-2 0-1.72.41-2.43 1.21-2.12.3.11.36.34.24.76-.31 1.02-.27 1.12.46 1.2 1.02.12 1.75-.36 1.85-1.2.04-.4.27-.76.5-.8.35-.07.46.28.6 1.96.1 1.12.24 2.1.32 2.19.24.23 1.1-1.04 1.71-2.52.68-1.66 1.64-2.32 2.24-1.54.2.28.39.77.4 1.09 0 .32.12.65.27.75.44.27 1.32 2.17 1.32 2.86 0 .62-.57 1.1-.9.77zm-1.75-3.24c0-.15-.05-.26-.12-.26-.06 0-.19.11-.28.26-.09.15-.03.26.12.26s.28-.11.28-.26zm11.64.84c0-3.1.24-3.6 1.72-3.54 1.34.05 1.97.67 1.95 1.87-.01.53.07 1.29.17 1.7.13.47.07.87-.17 1.16-.46.56-2.3 1.4-3.07 1.4-.58.01-.6-.07-.6-2.59zm2.5 1.12c.22-.1.41-.39.41-.67 0-.37-.19-.5-.78-.5-.85 0-1.2.34-.97.94.16.4.64.5 1.33.23zm-.27-2.39c.6-.22.52-1.09-.1-1.29-.72-.23-1.07.04-1.07.81 0 .65.36.8 1.17.48zM41.55 98.05c-.19-.23-.23-.54-.11-.74.12-.19.34-1.3.49-2.45.22-1.67.37-2.14.73-2.2.34-.07.46.08.46.56 0 1.05.28 1.5.91 1.5.68 0 1.37-.67 1.51-1.45a.8.8 0 0 1 .66-.61c.5-.08.55.05.57 1.53.02.88.1 1.85.2 2.15.16.51.2.51.67.08.28-.25.95-1.24 1.48-2.2.53-.96 1.1-1.83 1.25-1.93.37-.25 1.22.53 1.22 1.11 0 .25.22.74.5 1.1.77.97 1.25 2.8.85 3.2-.26.26-.44.17-.86-.4-.45-.61-.73-.73-1.76-.73-.98 0-1.33.13-1.76.65-.38.46-.86.68-1.6.73-1.02.08-1.06.05-1.2-.85-.12-.91-.14-.92-1.45-.92-1.26 0-1.33.04-1.6.86-.38 1.19-.75 1.5-1.16 1.01zm9.5-3.21c0-.45-.23-.48-.78-.12-.35.23-.35.3-.02.51.46.3.8.13.8-.4zm51.78 3.4c-.33-.32-.2-5.77.15-6.23.56-.72 4.7-.68 4.7.05 0 .44-.76.81-2.01.98-2.13.29-2.23 1.15-.14 1.15.7 0 1.34.07 1.43.16.41.41-.25.9-1.42 1.06-1.2.16-1.3.23-1.3.92 0 1.5-.77 2.56-1.41 1.92zm5.24-.38c-.25-.77.13-6.01.44-6.2.66-.41 1 .51 1.08 2.88l.07 2.4.82.17c1.44.3 1.9-.07 2.1-1.69.24-1.88.9-2.93 2.28-3.6 1.68-.8 2.25-.7 3.62.67 1 1 1.24 1.13 1.43.78a3.1 3.1 0 0 1 3.77-1.46c3.74 1.23 2.23 7.12-1.66 6.47-1.67-.28-1.85-.38-2.13-1.19-.34-.96-.56-.97-1.38-.1-1.36 1.46-2.46 1.68-4.4.88-.73-.3-.92-.29-1.32.07-.33.28-1.1.42-2.51.45-1.87.04-2.05 0-2.21-.53zm9.23-1.3c1.5-1.19.53-3.7-1.43-3.7-.82 0-1.5.55-1.86 1.52-.38.98-.3 1.37.4 2.07.8.8 1.95.85 2.9.1zm6.7-.14c.56-.56.65-.84.52-1.62a3.45 3.45 0 0 0-.72-1.55c-.48-.51-.67-.56-1.33-.33-1.15.4-1.9 1.6-1.68 2.66.26 1.21.58 1.52 1.62 1.52.62 0 1.12-.21 1.59-.68zm135.65 1.62a2.66 2.66 0 0 1-1.69-2.6c0-1.78 2.1-3.3 3.6-2.61 1.04.48.8 1.05-.49 1.15-.94.07-1.18.2-1.49.86-.32.67-.32.87.01 1.45.32.58.57.68 1.6.68 1.53 0 1.85.3 1.04.95-.73.59-1.43.62-2.58.12zm16.1-2.17c.07-2.38.12-2.6.59-2.6.3 0 .9.5 1.42 1.19.5.65 1.03 1.19 1.17 1.19.15 0 .49-.42.76-.92.52-.96 1.63-2.13 2.03-2.13.33 0 .66 5.33.35 5.64-.38.38-.82-.04-.82-.77 0-.77-.44-1.7-.8-1.7-.14 0-.43.37-.66.8-.44.87-1.19 1.04-1.72.4-.52-.63-.93-.47-1.2.46-.14.49-.46.9-.73.95-.43.08-.46-.14-.4-2.51zm12.64 2.07c0-.3.13-.63.3-.73.2-.12.24-.76.13-1.98-.13-1.44-.08-1.88.25-2.21.45-.45 2.13-.56 2.73-.17.55.35.15 1.15-.48.95-.28-.09-.57-.05-.66.09-.08.13.15.32.51.41.83.2.86.69.05.69-.76 0-1.24.46-1.24 1.2 0 .51.18.59 1.78.74.97.09 1.88.06 2-.07.14-.13.1-.85-.06-1.67a5.11 5.11 0 0 1-.12-1.9c.4-1.03 2.87-1.27 4.27-.42 1.06.64 1.1 1.35.17 2.57l-.69.9.6.64c.55.59.56.65.12.82-.26.1-.7.04-.96-.13-1.66-1.02-1.55-1-2.07-.32-.45.59-.68.64-2.83.67-1.29.02-2.67.13-3.07.25-.63.18-.73.14-.73-.33zm8.22-2.83c.97-.5 1.02-1.35.11-1.76-1-.46-1.98.07-1.98 1.08 0 .7.25 1 .87 1.06.12.02.57-.16 1-.38zM62.47 97.92c-.27-.17-.3-.44-.15-.99.12-.41.18-1.54.14-2.5-.08-2 .3-2.62 1.6-2.62.86 0 2.6.65 2.63.98.1 1.1.24 2.23.39 3.03.16.9.1 1.01-.84 1.65-1.05.71-3 .94-3.77.45zm3.34-1.54c.27-.36.26-.52-.06-.84-.63-.63-1.84-.09-1.95.88-.08.73-.05.75.8.58.48-.1 1.03-.37 1.21-.62zm-1.15-2.35c.59-.22.53-.9-.08-.9-.5 0-.92.6-.63.9.2.2.2.2.71 0zm3.46 3.9c-.29-.28-.11-5.23.19-5.54.17-.17.89-.32 1.59-.32 1.08 0 1.27.08 1.27.52 0 .56-.9 1.2-1.33.94-.14-.1-.26-.07-.26.05 0 .12.27.34.6.48.78.35.74.72-.14 1.14-1.26.6-.83 1.6.67 1.56 1.05-.03 1.8.43 1.37.84-.27.25-3.75.54-3.96.33zm146.5.03c-1.77-.1-2.27-.5-1.6-1.29.22-.27.35-1.15.35-2.36 0-1.23.14-2.07.35-2.29.55-.55.84.22.82 2.22-.01.98.06 1.9.16 2.05.09.16.82.28 1.6.28 1.04 0 1.45.1 1.45.36 0 .42-.86 1.25-1.21 1.18-.14-.03-1-.1-1.92-.15zm4.06-.48a3.49 3.49 0 0 1-.75-1.9c-.12-1.05-.03-1.44.57-2.39.8-1.27 1.34-1.5 3.24-1.32 1.46.14 2.1.73 2.38 2.19l.15.8.42-.94c.55-1.21 1.14-1.72 2.5-2.12.98-.3 1.19-.27 2 .23 2.68 1.66 1.71 5.44-1.49 5.8-1.49.16-2.53-.3-2.9-1.26-.16-.43-.35-.79-.43-.79-.08 0-.55.42-1.04.93-.9.94-1.14 1.03-3.03 1.29-.84.11-1.12.02-1.62-.52zm3.44-1.3a2.1 2.1 0 0 0 .24-2.73c-.36-.5-.58-.57-1.4-.43-.53.1-1.11.36-1.3.59-.5.64-.4 2.1.2 2.7.71.7 1.48.67 2.26-.12zm6.69.12c.4-.38.58-.85.58-1.56 0-1.1-.28-1.44-1.4-1.7-.58-.15-.86-.04-1.39.52-.71.78-.9 2.4-.33 2.96.5.5 1.9.38 2.54-.22zm-174.52-.93c.2-3.64.82-3.93 2.2-1.02.37.79.73 1.43.8 1.43.08 0 .3-.33.47-.73.73-1.6 1.58-2.73 2-2.65.36.07.43.5.43 2.72 0 2.54-.03 2.65-.6 2.73-.53.07-.6-.03-.6-1 0-1.28-.29-1.35-1.06-.26-.54.75-.6.78-1.05.38a3.99 3.99 0 0 1-.8-1.21c-.47-1.12-.82-.95-.75.37.06 1.28-.14 1.77-.75 1.77-.36 0-.4-.35-.29-2.53zm72.16 2.06V94.6c.04-2.8.28-3.15 2.4-3.44 1.89-.26 3.01.4 3.12 1.86.06.86-.07 1.2-.73 1.93-.92 1-.96 1.17-.4 1.64.3.25.32.41.1.69-.44.52-.9.45-1.78-.3-.93-.78-1.37-.84-1.37-.19 0 .95-1.3 1.59-1.34.65zm3.13-3c.95-.32 1.18-.75.75-1.35-.34-.46-1.95-.71-2.48-.38-.55.34-.38 1.38.27 1.7l.62.3c.02.01.4-.1.84-.26zm77.74 3.01c-.09-.26-.04-.87.1-1.35.13-.48.18-1.44.1-2.14-.2-1.62.44-2.4 1.96-2.4.54-.01 1.23-.07 1.52-.15.73-.2 1.53.43 1.3 1.02-.14.39-.44.46-1.66.4-1.44-.08-1.5-.06-1.57.63-.08.63.01.72.79.79 1.05.1 1.2.78.21 1-.39.1-.8.48-1 .95-.6 1.33-.76 1.57-1.18 1.65-.23.05-.49-.13-.57-.4zm24.03.1c-.07-.19-.02-.64.11-.99.14-.35.19-1.26.11-2.01-.18-1.88.05-2.58 1.03-3.2.77-.5.94-.5 2.04-.18 1.38.42 2.05 1.01 2.3 2.04.15.6.03.86-.78 1.57l-.95.84.54.57c.56.6.49 1.3-.16 1.55-.21.08-.8-.23-1.33-.68l-.95-.84-.66.84c-.7.91-1.08 1.05-1.3.5zm3.58-3.47c.48-.57.23-1.32-.47-1.42-.79-.11-1.37.39-1.37 1.18 0 .51.14.63.76.63.42 0 .9-.18 1.08-.39zM73.28 96.21c0-3.13.66-4.27 2.47-4.27 2.24 0 3 1.64 1.5 3.23-.92.98-.95 1.1-.33 1.55.37.28.4.41.13.68-.26.27-.51.27-1.28 0-.7-.26-1.03-.27-1.24-.06-.16.16-.5.3-.77.3-.4 0-.48-.24-.48-1.43zm3.13-1.8c.7-.7.21-1.54-.9-1.54-.46 0-1.27 1.2-1.04 1.57.23.38 1.55.35 1.94-.04zm-36.46-4.27c-1-.34-1.37-1.14-.65-1.41.25-.1.67-.04.94.13 1.2.74 2.56-.01 2.05-1.14-.3-.63-.92-.93-2-.93-.34 0-.78-.3-1.03-.67-.4-.62-.4-.7-.01-1.15.24-.26.43-.61.43-.77 0-.4.4-.62 1.55-.88 1.73-.39 2.74.3 2.1 1.44-.26.48-1.14.59-1.4.17-.23-.38-1.26-.33-1.13.05.06.18.42.4.8.5.4.1 1.07.45 1.51.77.65.46.8.76.8 1.54 0 1.24-.15 1.44-1.5 2.13-1.28.65-1.23.64-2.46.22zm239.67-.3c-.93-.63-1.28-1.44-1.28-2.92 0-1.01 1.45-2.73 2.47-2.93 1.18-.22 2.08.25 1.97 1.03-.06.48-.25.57-1.14.58-1.48 0-1.72.23-1.72 1.7 0 1.56.4 1.94 1.9 1.82 1.36-.1 1.73.55.62 1.06-1.03.46-1.76.38-2.82-.34zm6.02.43a11.6 11.6 0 0 1-.33-2.16c-.17-1.88-.26-2.06-1.25-2.74-.59-.41-.4-1.4.3-1.6.81-.23 4.06.25 4.3.63.37.6-.2 1.32-1.04 1.32-.93 0-1.08.35-1.08 2.5 0 1.12-.13 1.78-.38 1.98-.21.18-.43.21-.52.07zm4.22-.11c-.06-.19-.17-.81-.25-1.4l-.32-2.17c-.19-1.2.36-2.45 1.07-2.45.44 0 .71 4.82.31 5.75-.27.66-.65.78-.81.27zm2.7-.23c-.95-.7-1.4-2.32-.99-3.57.32-.96 1.86-2.22 2.72-2.22.83 0 2.3 1.8 2.3 2.82 0 1.49-.66 2.7-1.7 3.14-1.2.5-1.46.48-2.33-.17zm2.4-1.08c.62-.63.13-3.13-.62-3.13-.58 0-1.72 1.3-1.72 1.96 0 1.22 1.52 1.98 2.33 1.17zM32.42 90c-.07-.12-.27-1.3-.44-2.64-.28-2.14-.26-2.5.12-3.08.68-1.03.76-.99 2.83 1.51.46.55.92 1 1.03 1 .11 0 .27-.52.36-1.15.21-1.58.62-2.56 1.07-2.56.48 0 .66 1.25.42 2.86-.1.68-.1 1.48 0 1.77.26.74-.06 1.83-.57 1.93-.24.05-1.12-.57-1.96-1.37-.84-.8-1.61-1.4-1.71-1.34-.1.06-.12.65-.05 1.3.09.75.01 1.34-.2 1.6-.37.44-.7.5-.9.17zm18.27-.07c-.38-.23-.45-.48-.31-1.2.1-.5.1-1.15 0-1.45l-.17-.54-.6.55c-.31.3-1.13.74-1.8.97-.68.23-1.41.7-1.64 1.06-.4.6-1.19.88-1.22.44l-.1-3.5c-.08-3.46.1-4.27.85-3.65.22.18 1 .34 1.73.36 1.2.02 1.43.13 2.18 1l.84.97.33-.8c.3-.72.45-.8 1.54-.8 1.46 0 2.3.6 1.89 1.36-.15.27-.44.5-.66.5-.46 0-.5.3-.08.72.43.43.1 1.07-.62 1.17-.41.06-.64.3-.7.72-.1.76.33 1.08 1.49 1.09.53 0 .93.16 1.02.4.09.23.11.46.06.51-.29.27-3.6.37-4.03.12zm-2.4-3.35c.43-.55.49-1.81.1-2.05-.9-.56-2.32.9-1.96 2.02.2.64 1.4.66 1.87.03zm8.85 3.3c-1-.35-2.13-1.77-2.12-2.67.03-2.31 3.1-4.84 4.22-3.48.44.53.22.79-1.16 1.31-1.01.39-1.22.6-1.36 1.34-.1.54-.02 1.19.2 1.64.3.63.53.76 1.54.83 1.47.1 1.91.47 1.2 1-.6.45-1.28.45-2.52.03zm6.13.03c-.18-.19-.31-1.07-.31-2.08 0-1.59-.08-1.84-.78-2.57-1.47-1.54-.52-2.4 2.25-2.06 1.4.18 1.46.22 1.39.9-.05.42-.32.8-.68.96-.53.23-.6.45-.6 2.03 0 1.77-.32 3.13-.73 3.13-.12 0-.36-.14-.54-.31zm190.8-.03c-.13-.18-.23-1.56-.23-3.07.01-2.36.08-2.79.5-3.04 1.08-.67 1.4 1.41.81 5.3-.13.9-.72 1.33-1.09.8zm9.6-.26c-.53-.44-.72-.78-.6-1.08.15-.41.26-.4 1.22.15 1.22.7 2 .46 2-.6 0-.47-.2-.7-.8-.87-1.35-.4-1.58-.6-1.66-1.4-.12-1.12 1.15-2.28 2.36-2.16.75.07.9.2.98.81.07.63-.03.75-.73.9-.97.19-1.05.5-.18.72.8.2 1.54 1.33 1.43 2.2-.1.85-1.11 1.64-2.33 1.82-.72.1-1.1 0-1.7-.5zm9.76.34c-.08-.14-.03-.49.12-.77s.2-.88.11-1.32l-.16-.81-.77.64c-.42.36-1.19.73-1.7.82-.56.1-1.1.43-1.35.8-.23.36-.58.64-.78.64-.48 0-.53-5.29-.05-5.77.45-.45 2.47-.4 3.4.09.7.36.85.36 1.4 0 .9-.6 3.49-.22 3.49.5 0 .34-.3.6-.93.81-1.2.4-1.42 1.2-.33 1.2.42 0 .85.07.94.17.27.27-.35.88-.9.88-.26 0-.56.14-.66.3-.29.47.67 1.04 1.42.85.7-.17 1.17.27.93.88-.16.42-3.92.5-4.18.1zm-2.13-2.64c.47-.18.68-.46.68-.9 0-.65-.44-.96-1.34-.96-.54 0-.95 1.03-.69 1.72.18.46.42.49 1.35.14zm26.22 2.57c-.06-.18-.17-1.34-.26-2.58-.13-1.7-.08-2.38.2-2.75.47-.64 1.38-.36 1.88.59.35.65 1.31 1.63 1.61 1.63.07 0 .13-.33.13-.73 0-.4.19-1 .42-1.34.34-.48.5-.54.8-.28.3.24.38.86.35 2.33-.06 3.54-.48 4.08-1.9 2.49-.47-.53-1.1-1.19-1.39-1.47-.52-.5-.53-.5-.67.64-.15 1.24-.4 1.8-.8 1.8-.15 0-.31-.15-.37-.33zm-227.05-.83c-.73-.74-.9-1.1-.9-2 0-1.42.56-2.47 1.68-3.16 2.34-1.45 4.65.26 4.67 3.43 0 1.49-1.5 2.63-3.45 2.63-.9 0-1.27-.17-2-.9zm3.58-.86c.54-.68.72-2.09.34-2.6-.62-.86-1.07-.97-1.96-.52-1.07.55-1.26.83-1.27 1.8 0 .51.24.98.72 1.4.95.8 1.5.78 2.17-.08zm5.6.4c-.63-.72-1.25-1.22-1.35-1.1-.11.11-.34.66-.52 1.2-.6 1.89-1.6.78-1.2-1.32.11-.55.23-1.45.26-2 .12-1.71.53-1.79 1.86-.35.66.7 1.19 1.38 1.19 1.51 0 .13.12.24.26.24.15 0 .27-.39.27-.87 0-1.36 1.1-2.1 1.45-.98.38 1.19.33 4.1-.08 4.57-.59.68-.86.57-2.14-.9zm177.16 1.16c-.07-.1-.1-1.37-.07-2.8.07-3.6.58-3.85 2.85-1.39l1.25 1.35.01-1.01c.02-1.27.42-2.07.94-1.87.31.12.4.67.4 2.48 0 1.93-.1 2.43-.53 2.95-.33.39-.6.52-.72.35-.12-.15-.66-.96-1.21-1.8-.55-.85-1.15-1.5-1.32-1.43-.18.05-.36.68-.4 1.4-.09 1.24-.4 1.97-.87 1.97a.44.44 0 0 1-.33-.2zm-227.28-.24c-.1-.1-.18-.4-.18-.65 0-.27-.18-1.03-.41-1.7-.26-.77-.32-1.33-.17-1.53.14-.17.32-.63.41-1.01.2-.87.92-1.18 1.46-.64.43.43.53 3.27.17 4.9-.17.76-.82 1.09-1.28.63zm38.08-.24c-.33-.87-.17-5.07.2-5.38.48-.4 1.3-.07 1.11.43-.08.22-.16 1.36-.17 2.55-.02 1.98-.25 2.81-.77 2.81-.11 0-.28-.18-.37-.41zM136.9 47c-.09-.22-.04-.62.1-.89.26-.5.21-3.34-.08-4.72-.14-.6-.03-.98.41-1.54.56-.72.66-.74 2.07-.57 1.84.23 1.95.3 1.6.96-.23.43-.5.52-1.4.45-1-.08-1.1-.03-1.1.55 0 .5.21.71.93.95.5.17.93.48.93.69 0 .22-.37.42-.93.5-.83.13-.92.22-.87.91.1 1.29.26 1.47 1.34 1.47.56 0 1.23.16 1.49.35.75.55.04.89-2.3 1.1-1.7.15-2.07.12-2.2-.21zm-10.58-.29c-.43-.31-.45-.47-.17-1.4.17-.59.32-1.95.32-3.03 0-2.12.42-3.23.98-2.56.25.3.45 3.65.36 6.1-.03.92-.81 1.39-1.5.9zm3.98.1c-.09-.14-.08-.52.03-.85.11-.33.2-1.8.22-3.28.01-2.25.1-2.77.52-3.24.56-.62 1.5-.7 2.77-.26.92.32 1.89 1.84 1.89 2.98 0 .93-1.2 2.22-2.38 2.57-.8.24-1.11.53-1.48 1.33-.45 1-1.2 1.36-1.57.76zm3.63-3.67.86-.76-.46-.97c-.42-.89-.54-.96-1.44-.89-.88.08-1 .18-1.18 1.01-.11.5-.14 1.25-.06 1.65.2.99 1.15.97 2.28-.04zm102.53 3.76c-.06-.12-.13-1.74-.16-3.62-.03-3.18 0-3.44.54-3.9 1.63-1.42 4.46.32 4.45 2.74 0 1.06-.95 2.27-2.04 2.6-.74.22-1.16.56-1.54 1.25-.52.95-1.03 1.33-1.25.93zm2.74-3.8c.38-.2.5-.55.5-1.45 0-1-.1-1.24-.64-1.48-1.1-.5-1.47-.15-1.47 1.44 0 1.83.36 2.16 1.6 1.5zm7.2 3.66c-.14-.18-.28-1.85-.3-3.7l-.06-3.36.8-.42a3.2 3.2 0 0 1 3.29.42c.67.53 1.12 2.12.77 2.72-.7 1.18-1.83 2.28-2.35 2.28-.46 0-.67.25-.95 1.11-.38 1.18-.78 1.5-1.2.95zm2.82-4.03c.74-.79.58-1.78-.39-2.42-.83-.55-1.36-.18-1.6 1.12-.13.68-.06 1.05.3 1.43.6.68.95.66 1.69-.13zm4.38 4.12-1.06-.16-.08-3.28c-.08-3.68.09-4.11 1.7-4.42 1.37-.26 2.27.06 2.17.76-.07.5-.24.58-1.05.53-.65-.03-1.02.08-1.12.33-.28.73.13 1.18 1.04 1.18 1.6 0 1.4 1.22-.23 1.38-.63.06-.86.22-.92.64-.13.9.62 1.42 2.06 1.42 1.07 0 1.32.1 1.46.55.38 1.2-.89 1.54-3.97 1.07zm-159.85-.44c-.1-.23-.03-.71.14-1.07.16-.36.3-1.67.3-2.91 0-3.04.15-3.28 2.09-3.28.97 0 1.66.13 1.84.35.41.5.1.7-1.01.7-1.04 0-1.6.38-1.6 1.07 0 .34.27.44 1.2.44 1.42 0 1.97.38 1.44 1.02-.23.27-.67.4-1.24.34-.93-.08-1.39.3-1.4 1.16 0 .64.82 1 2.45 1.1.76.05 1.57.17 1.8.27.57.25 1.1-1.34 1.1-3.37.02-2 .3-2.82.97-2.82.56 0 1.66 1.18 2.32 2.48.23.46.67 1.1.98 1.45l.57.62.13-2.19c.07-1.2.25-2.22.4-2.27.71-.22.9.44 1.04 3.53.11 2.71.07 3.26-.28 3.55-.36.3-.61.15-1.8-1.1-.75-.79-1.62-1.77-1.94-2.19-.78-1.01-1.13-.7-1.13 1.05 0 .8-.12 1.69-.27 1.97-.34.63-1.2.67-1.54.07-.23-.42-.27-.42-.69 0-.63.63-5.63.66-5.87.03zm16.81.36c0-.04-.05-1.21-.08-2.6-.08-2.9-.24-3.43-1.1-3.43-.85 0-1.31-.88-.75-1.44.3-.3.93-.42 2.23-.42 3.11 0 4.07.81 2.24 1.9-1.07.62-1.01.44-1.04 3.53l-.01 2.38-.73.08c-.4.05-.74.05-.76 0zm9.24-.15c-.02-.1-.06-1.09-.08-2.18-.02-1.1-.13-2.46-.25-3.05-.16-.87-.1-1.18.33-1.72.46-.56.75-.65 2.09-.65 1.36 0 1.7.1 2.67.88.98.77 1.11 1.01 1.11 1.94 0 .85-.17 1.24-.87 1.94-.49.48-1.37 1.01-1.98 1.17-.7.2-1.3.58-1.65 1.08-.52.74-1.26 1.05-1.37.6zm4.02-3.77c.7-.7.67-1.17-.15-1.81-.89-.7-2.15-.97-2.64-.56-.37.3-.35 1.36.02 2.57.18.55 2.16.4 2.77-.2zm118.44 3.77c-.08-.12-.18-1.73-.22-3.57-.06-2.41 0-3.43.25-3.67.7-.7.93.2.96 3.78.03 3.08-.03 3.53-.41 3.6-.24.05-.5-.01-.58-.14zm-154.95-.6c-.3-.28-.53-.7-.53-.92 0-.22-.12-.4-.27-.4-.14 0-.26-.16-.26-.37 0-.2-.1-.41-.2-.46-.39-.18-1.39-2.32-1.39-2.99 0-.48.14-.67.5-.67.34 0 .91.65 1.75 2 .68 1.1 1.38 1.95 1.55 1.9a8 8 0 0 0 1.37-1.92c1.17-1.99 1.78-2.55 2.26-2.07.22.22.08.7-.56 1.85-.48.85-1.04 1.9-1.26 2.34-1.14 2.27-1.95 2.73-2.96 1.72zm115.29-1.5c-.9-1.95-1.52-3.77-1.52-4.51 0-.46.92-.42 1.31.06.18.21.43.78.55 1.25.45 1.74.92 2.86 1.19 2.86.35 0 1-1.15 1.44-2.58.41-1.3 1.13-2.06 1.74-1.82.65.25.26 1.51-1.3 4.26-1.81 3.17-2.14 3.22-3.41.48zm6.82 1.79c-.08-.14-.16-1.64-.18-3.33-.03-3.64.09-3.86 2.25-4.04 1.26-.1 1.48-.05 1.74.44.32.6.07.72-1.7.89-.6.05-.8.2-.8.6 0 .4.23.56.91.66 1.24.18 1.32.72.18 1.2-.87.36-.95.49-.95 1.45v1.05h1.42c1.47 0 2.03.41 1.41 1.03-.35.36-4.06.4-4.28.05zm9.68-1.76c-.79-1.1-1.52-1.9-1.64-1.78-.12.12-.25.93-.3 1.8-.06 1.39-.14 1.59-.6 1.59-.5 0-.55-.23-.7-2.91-.08-1.6-.05-3.12.08-3.37.49-.96 1.2-.5 2.62 1.65.76 1.16 1.44 2.07 1.5 2 .07-.06.14-.77.16-1.57.04-1.55.4-2.19 1.08-1.93.34.13.42.63.42 2.66 0 2.61-.28 3.87-.86 3.86-.18 0-.98-.9-1.76-2zm6.37 1.7c-.2-.2-.32-1.16-.32-2.52 0-2.13-.01-2.2-.74-2.57-1.1-.57-1.5-1.14-1.14-1.58.32-.38 4.22-.8 4.93-.53.68.27.43.86-.6 1.39l-.98.5v2.4c0 1.8-.11 2.5-.42 2.81-.32.32-.48.34-.73.1zm64.08-17.22c.02-.65.27-1.5.55-1.94.29-.42.72-1.13.95-1.57 2.01-3.66 2.9-4.9 3.5-4.9.65 0 1.68 1.44 2.18 3.02.25.8.65 1.67.89 1.93.8.9 1.88 2.63 1.87 3 0 .59-.65 1.32-1.15 1.32-.27 0-.63-.45-.94-1.15-.43-1-.63-1.18-1.64-1.42a13.8 13.8 0 0 0-2.27-.32c-1.07-.03-1.14.02-2.12 1.5-1.3 1.95-1.88 2.12-1.82.53zm5.98-4c0-.58-.77-2.29-1.04-2.29-.39 0-1.4 1.84-1.24 2.26.2.52 2.28.55 2.28.03zm8.07 4.89c-4.75-.59-5.53-6.85-1.1-8.91 1.58-.74 2.98-.82 3.82-.24 1.21.85.37 2.02-.96 1.33-.7-.36-.89-.36-1.67-.02-2.56 1.13-3.37 3.29-1.82 4.85.43.43 1.12.83 1.52.9.41.07.93.21 1.16.31.55.24 1.83-.78 1.83-1.46 0-.74.48-1.55.92-1.55.55 0 .75.93.54 2.56-.3 2.37-.82 2.65-4.24 2.23zm34.06-.08a1.44 1.44 0 0 1-.32-.89c0-.72 1.22-2.31 2.23-2.92a4.92 4.92 0 0 0 2.28-2.86c.5-1.74-.52-1.96-2.03-.43-.85.88-1.22.97-1.66.43-.8-.95 1.37-2.8 3.27-2.8 1.3 0 2.52 1.16 2.52 2.42a4.42 4.42 0 0 1-2.55 3.82c-1.39.68-2.42 1.57-2.14 1.84.08.09.96.23 1.96.33 1.57.16 1.8.25 1.8.71 0 .49-.2.54-2.51.6-1.73.06-2.62-.02-2.85-.25zm-27.74-.26c-.12-.2-.19-2.14-.14-4.32.07-3.7.12-4 .65-4.46.5-.42.84-.47 2.43-.31 1.88.18 2.74.61 2.38 1.2-.14.23-.7.27-2 .14-1.81-.17-1.81-.17-2 .54-.13.54-.05.81.31 1.08.6.43 1.5.46 1.9.06.4-.4 1.4.16 1.4.79 0 .66-1.2 1.18-1.88.81-.67-.36-1.55-.08-1.6.5-.09.96.1 2.04.4 2.22.16.11 1.1.2 2.06.2 1.97 0 2.6.17 2.6.66 0 .68-.75.92-3.48 1.08-2.2.14-2.85.1-3.03-.19zm18.03-1.6c-1.75-2.7-2.09-3.17-2.36-3.21-.14-.02-.26.87-.28 1.99-.04 2.2-.47 3.19-1.1 2.55-.4-.42-.68-6.66-.34-7.56.32-.85.98-1.03 1.56-.43.26.27.91 1.33 1.45 2.35a16.12 16.12 0 0 0 1.36 2.25c.59.6.89-.08.9-2.03 0-2.02.35-3.07.99-2.94.38.07.44.32.36 1.4l-.26 4.36c-.21 3.86-.5 4.02-2.28 1.27zM287 29.26a3.5 3.5 0 0 1-1.28-1.2c-1.12-1.85-2.6-2.41-2.78-1.07-.19 1.37-.38 1.85-.75 1.85-.62 0-.73-.46-.84-3.67-.12-3.4.26-4.88 1.33-5.17a9.77 9.77 0 0 1 3.91.12c1.01.28 2.6 1.82 2.6 2.52 0 .65-1.02 2.47-1.59 2.83-.71.44-.66 1.15.14 1.67.52.34.66.66.66 1.47 0 1.1-.18 1.2-1.4.65zm-.44-4.8c.95-.48 1.27-1.54.75-2.47-.42-.74-1.15-1.02-2.8-1.06-1.4-.03-1.93.63-1.93 2.4 0 1.08.08 1.25.6 1.35 1.3.26 2.64.17 3.38-.21zM86.13 29.03c-.47-.35-.48-.43-.1-1 .22-.35.49-1.47.59-2.49.26-2.56.24-2.77-.22-3.29-.56-.62-.52-1.26.1-1.6.7-.37.96-.34 1.46.16.34.34.41.97.37 3.31-.04 2.66 0 2.95.55 3.52.95 1.02.64 1.6-.91 1.68-.84.05-1.51-.06-1.84-.3zm-70.89-.32c-.09-.24-.16-.72-.16-1.07 0-.75-.79-1.3-2.2-1.55-1.33-.24-1.96 0-2.43.9-.54 1.04-1.14 1.6-1.74 1.6-.6 0-.66-.45-.14-1.04.2-.23.92-1.79 1.6-3.46 1.39-3.4 1.58-3.7 2.3-3.7.44 0 2.08 1.88 2.08 2.4 0 .12.48.97 1.07 1.88 1.24 1.92 1.37 3.42.35 4.1-.5.32-.59.31-.73-.06zm-1.8-4.73a.74.74 0 0 0-.32-.74.88.88 0 0 1-.43-.68c0-.38-.04-.39-.36-.05-.2.21-.44.7-.53 1.1-.12.53-.05.73.3.83.8.21 1.25.06 1.35-.46zm12.85 4.76c-.21-.56.4-2.03 1.73-4.12.6-.95 1.31-2.21 1.59-2.81.93-2.02 1.9-1.78 3.17.8.47.96.95 1.74 1.07 1.74.27 0 .94 1.68 1.17 2.94.32 1.79-1.15 2.06-1.5.28-.14-.65-.34-.79-1.56-1.07-1.95-.46-3.2 0-4 1.43-.63 1.12-1.4 1.5-1.67.8zm5.78-4.6c-.07-.69-.64-1.38-1.14-1.38-.46 0-1.02.83-1.03 1.54 0 .56.1.6 1.12.53 1-.07 1.11-.15 1.05-.7zm6.74 4.55c-.7-.22-1.34-.57-1.42-.78-.08-.21-.3-.38-.5-.38-.6 0-1.18-1.12-1.17-2.25.01-2.71 1.9-4.6 4.83-4.83 1.86-.15 2.57.23 2.57 1.36 0 .9-.2.95-1.5.38-1.16-.52-1.25-.52-2.22-.08-1.39.63-2 1.38-2.2 2.7-.16 1.06-.12 1.14.82 1.78 2.08 1.41 4.57.56 4.57-1.56 0-.82.09-.94.65-.94.8 0 1.05.7.82 2.24a3.01 3.01 0 0 1-2.08 2.5c-.96.37-1.61.34-3.17-.14zm8.54.2c-1.94-.2-1.92-.15-1.33-2.82.2-.9.2-1.9.03-3.16-.35-2.52-.26-2.6 2.8-2.48 2.7.1 3.44.43 2.68 1.19-.24.24-.8.42-1.25.4-.53 0-.8.11-.8.36 0 .22-.17.3-.4.22-.22-.09-.4-.33-.4-.55 0-.64-.92-.26-1.02.42-.12.89.24 1.12 1.27.83 1.01-.3 1.6 0 1.6.82 0 .36-.2.5-.73.5-1.22 0-1.84.28-2.14.94-.58 1.28-.19 1.52 2.27 1.37 2.16-.14 2.23-.12 2.52.5.62 1.37-1.05 1.84-5.1 1.45zm26.08-1.64c-.87-1-1.68-2.01-1.8-2.23-.12-.22-.4-.4-.6-.4-.37 0-.6.83-.72 2.75-.08 1.13-.75 1.83-1.27 1.31-.21-.21-.21-.73 0-1.89.19-1.03.2-2.13.06-3.08-.17-1.06-.14-1.6.08-1.91.44-.61 1.54-.28 2.13.63.9 1.38 2.83 3.5 3.2 3.5.26 0 .36-.36.36-1.28 0-2.17.25-2.98.9-2.9.38.06.54.25.49.62-.04.29-.08 1.93-.1 3.64-.02 2.99-.05 3.1-.6 3.09-.35-.01-1.13-.69-2.13-1.85zm191.07 1.39c-3.52-1.03-4.69-4.14-2.54-6.75a7.02 7.02 0 0 1 1.84-1.51c1.25-.64 3.73-.72 4.21-.14.63.76.17 1.04-1.73 1.06-2.24.03-3.15.54-3.6 2.03-.48 1.6-.06 2.84 1.18 3.48.96.5 2.8.67 3.36.32.15-.09.27-.68.27-1.32 0-1.2.54-2.07 1.14-1.84.37.14.42 3.48.07 4.06-.21.34-1.09.73-2.08.93a6.53 6.53 0 0 1-2.12-.32zm-261.75-.3a3.76 3.76 0 0 1-2.23-3.5c0-.98.17-1.38.95-2.3.9-1.04 2.79-2.16 3.78-2.22.83-.06 1.83.32 2 .77.27.7-.23.98-1.18.65-.74-.26-1.01-.2-2.11.39-1.4.76-1.85 1.49-1.85 3.02 0 1.22.68 1.81 2.3 2.03 1.26.17 1.92-.46 2.12-2.01.13-.92.24-1.08.78-1.08.68 0 .69.04.62 1.98-.05 1.65-.48 2.14-2.15 2.5-1.7.36-1.75.36-3.03-.22zm15.55.17c-.16-.19-.24-1.73-.21-3.73.06-4.02.18-4.21 2.8-4.5 4.09-.47 6.16 2 3.84 4.57-1.1 1.22-1.13 1.42-.25 1.89 1 .53 1.22 2.11.3 2.1-.17 0-.67-.32-1.1-.73-.79-.73-3.17-2.17-3.6-2.17-.11 0-.29.54-.39 1.2-.2 1.28-.9 1.97-1.39 1.37zm5.2-4.43c.31-.3.57-.8.56-1.13 0-.79-.66-1.61-1.07-1.36-.18.1-.78.18-1.34.16-1.2-.05-2.08.66-2.08 1.68 0 .8.68 1.14 2.27 1.17.73.01 1.26-.16 1.65-.52zm246.94 4.42c-.22-.26.05-1 1.05-2.97.74-1.45 1.7-3.2 2.15-3.9 1.18-1.87 1.6-1.68 3.17 1.4.7 1.38 1.57 2.92 1.93 3.41.36.5.65 1.25.65 1.67 0 .65-.1.76-.57.7-.38-.06-.65-.35-.78-.84-.38-1.45-.68-1.59-3-1.4-2.08.15-2.15.18-3.01 1.22-.96 1.15-1.15 1.24-1.59.71zm5.34-3.74c.13-.33-.42-1.63-.88-2.1-.12-.12-.55.27-.95.88-.74 1.13-.69 1.47.29 1.66.73.15 1.39-.04 1.54-.44zm57.47 3.05c-.22-.35.67-1.16.96-.87.13.13.16.43.07.67-.19.48-.79.6-1.03.2zm-253.97-.2c-.1-.1-.18-.5-.18-.91 0-.56-.2-.85-.76-1.14-1.3-.67-1.51-2.4-.44-3.47 1.42-1.42 4.38-.27 4.38 1.7 0 1-.6 1.88-1.5 2.2-.71.26-.88.46-.88 1.06 0 .71-.25.94-.62.56zm1.55-3.27c.26-.41-.07-1.5-.5-1.66-.21-.08-.63-.08-.94 0-.61.16-.75 1.1-.23 1.62.39.4 1.44.41 1.67.04zm251.56.7c-1.35-1.13-1.36-3.34-.02-3.84 1.12-.41 1.72.32.85 1.05-.22.19-.37.64-.33 1.02.07.57.22.68.88.68.7 0 .8-.1.87-.87.05-.48-.02-1.02-.15-1.2a3.4 3.4 0 0 1-.41-.77c-.13-.36-.02-.46.48-.46.77 0 1.41.87 1.63 2.18.12.76.02 1.07-.6 1.75-1.07 1.17-2.17 1.33-3.2.46zM214.37 17.3l-.46-.96-1.95.15c-1.46.1-2.09.28-2.53.69-1.27 1.2-1.61.38-.55-1.3.37-.58.66-1.14.66-1.24 0-.1.5-1 1.1-1.99 1.61-2.68 2-2.52 4.03 1.66 1.3 2.68 1.41 3.12.9 3.63-.5.5-.71.38-1.2-.64zm-1.56-2.85c.07-.2-.03-.6-.22-.86-.34-.46-.4-.46-.82-.05-.24.24-.37.63-.29.86.2.52 1.13.55 1.33.05zm4.38 3.24c-.06-.34-.05-2.05.03-3.8l.13-3.17h.66c.66 0 .66 0 .74 2.83l.07 2.83.99.17c1.5.25 1.64.33 1.64.9 0 .44-.17.54-.89.54-.49 0-1.42.08-2.08.16-1.1.16-1.2.12-1.3-.46zm5.92.2a25.3 25.3 0 0 1-.23-3.64c-.07-2.82-.01-3.46.34-3.8.75-.76.96-.15 1.33 3.97.18 2 .43 2.34 1.6 2.12 1-.19 1.65.18 1.65.95 0 .6.13.56-2.46.62-1.14.02-2.14-.07-2.23-.21zm-22.71-.2a31.34 31.34 0 0 1-1.63-5.72c-.1-.86-.04-1.12.26-1.12.51 0 1.25.85 1.25 1.44 0 .7.59 2.53.8 2.53.11 0 .46-.71.79-1.58.67-1.8 1.17-2.36 1.77-1.98.38.24 1.02 1.67 1.33 2.97.24 1 .68.52 1.06-1.13.36-1.58.94-2.52 1.56-2.52.58 0 .64.44.2 1.5-.25.56-.81 2.09-1.26 3.4-.66 1.91-.92 2.38-1.34 2.38-.42 0-.65-.4-1.17-1.99-.35-1.09-.69-2.04-.75-2.1-.18-.22-.7.77-1.3 2.5-.54 1.55-1.15 2.1-1.57 1.42z"/>
</svg>
